<?xml version="1.0" standalone="no"?>
<!DOCTYPE svg PUBLIC "-//W3C//DTD SVG 1.1//EN" "http://www.w3.org/Graphics/SVG/1.1/DTD/svg11.dtd" >
<svg xmlns="http://www.w3.org/2000/svg" xmlns:xlink="http://www.w3.org/1999/xlink" version="1.1">
<metadata></metadata>
<defs>
<font id="gravitylight" horiz-adv-x="1337" >
<font-face units-per-em="2048" ascent="1638" descent="-410" />
<missing-glyph horiz-adv-x="500" />
<glyph horiz-adv-x="0" />
<glyph horiz-adv-x="682" />
<glyph unicode=" "  horiz-adv-x="500" />
<glyph unicode="&#x09;" horiz-adv-x="500" />
<glyph unicode="&#xa0;" horiz-adv-x="500" />
<glyph unicode="!" horiz-adv-x="382" d="M141 26l2 117q0 26 23 26h46q23 0 23 -26l3 -117q0 -13 -4.5 -19.5t-18.5 -6.5h-52q-14 0 -18 6.5t-4 19.5zM148 405l10 1016q0 8 5 14.5t16 6.5h22q11 0 15.5 -6.5t4.5 -14.5l10 -1016q0 -15 -5 -18.5t-18 -3.5h-36q-13 0 -18.5 3.5t-5.5 18.5z" />
<glyph unicode="&#x22;" horiz-adv-x="580" d="M130 1101v318q0 23 26 23h22q15 0 20.5 -5t5.5 -19v-316q0 -14 -5.5 -19t-20.5 -5h-22q-14 0 -20 4.5t-6 18.5zM371 1101v318q0 23 26 23h22q15 0 20.5 -5t5.5 -19v-316q0 -14 -5.5 -19t-20.5 -5h-22q-14 0 -20 4.5t-6 18.5z" />
<glyph unicode="#" horiz-adv-x="1181" d="M71 559l5 28q3 17 25 17h199q16 0 19 19l52 311q3 18 -17 18h-194q-11 0 -15.5 4.5t-2.5 17.5l5 29q3 17 22 17h203q9 0 13 6t5 12l65 385q2 12 7 15.5t16 3.5h23q11 0 14.5 -4t1.5 -15l-61 -383q-3 -20 16 -20h305q15 0 18 18l66 386q2 11 6.5 14.5t15.5 3.5h24 q8 0 13.5 -3.5t3.5 -14.5l-62 -386q-3 -18 21 -18h201q20 0 16 -19l-5 -31q-2 -11 -7.5 -14.5t-15.5 -3.5h-208q-17 0 -20 -17l-49 -310q-3 -21 16 -21h201q21 0 18 -22l-5 -29q-3 -17 -22 -17h-208q-16 0 -19 -19l-83 -498q-3 -19 -22 -19h-28q-24 0 -20 22l82 491 q5 23 -19 23h-295q-17 -1 -20 -17l-84 -501q-3 -18 -15 -18h-39q-9 0 -13.5 7t-2.5 17l83 494q2 11 -3.5 14.5t-16.5 3.5h-191q-21 0 -18 23zM388 625q-2 -9 3 -15t13 -6h304q9 0 12 4t5 14l53 315q2 8 -3 11.5t-13 3.5h-303q-18 0 -21 -18z" />
<glyph unicode="$" horiz-adv-x="1193" d="M72 374q-2 12 0.5 19.5t19.5 7.5h33q11 0 16.5 -6t9.5 -17q25 -77 67 -134.5t98 -96t124 -57.5t145 -19q42 0 92 6t101 20.5t98 39.5t82 62.5t53.5 89.5t13.5 122q-5 56 -28 98t-59 73t-80.5 52t-91 35.5t-92 24t-83.5 17.5q-98 20 -183 46t-148 67t-99.5 102.5 t-36.5 153.5q0 81 30 144.5t84 109t129.5 72.5t166.5 35q17 2 17 18v133q0 18 20 18h37q18 0 18 -18v-137q0 -13 13 -16q149 -26 242.5 -103.5t131.5 -214.5q4 -22 -20 -22h-32q-13 0 -19 4t-11 18q-21 69 -57.5 116t-83 76t-101 43t-112.5 17q-35 1 -76 -4t-82.5 -18 t-80.5 -35.5t-69.5 -54.5t-49 -75.5t-18.5 -98.5q1 -59 24 -106t75 -84.5t136.5 -66.5t208.5 -52q105 -20 187.5 -47t142 -69t94 -102t42.5 -145q6 -70 -9.5 -126.5t-48 -101.5t-78.5 -79t-100 -57t-113.5 -36t-118.5 -16q-17 0 -17 -17v-130q0 -12 -3.5 -17t-17.5 -5h-33 q-14 0 -17.5 5t-3.5 17v130q0 17 -16 17q-81 2 -156.5 30t-137 77t-106 117t-63.5 151z" />
<glyph unicode="%" horiz-adv-x="1370" d="M160 1204q0 53 20 99.5t54.5 81t80.5 54t99 19.5q52 0 98 -19.5t80 -54t54 -81t20 -99.5q0 -52 -20 -98t-54 -80t-80 -54t-98 -20q-53 0 -99 20t-80.5 54t-54.5 80t-20 98zM222 1204q0 -42 14 -76.5t39.5 -60t61 -39.5t77.5 -14t77 14t60.5 39.5t39.5 60t14 76.5 q0 43 -14 78t-39.5 60.5t-60.5 39.5t-77 14t-77.5 -14t-61 -39.5t-39.5 -60.5t-14 -78zM363 22l567 1405q4 10 7 12.5t10 2.5h43q8 0 12 -5t1 -13l-554 -1413q-2 -5 -6 -8t-14 -3h-51q-9 0 -14 6.5t-1 15.5zM723 247q0 54 20 100.5t55 81.5t81 55t99 20q52 0 98 -20 t80.5 -55t54 -81.5t19.5 -100.5q0 -53 -19.5 -98t-54 -79t-80.5 -53t-98 -19q-53 0 -99 19t-81 53t-55 79t-20 98zM785 246q0 -42 14.5 -76.5t40 -58.5t61 -37.5t77.5 -13.5t77.5 13.5t61 37.5t40 58.5t14.5 76.5q0 43 -14.5 79.5t-40 62.5t-61 40.5t-77.5 14.5t-77.5 -14.5 t-61 -40.5t-40 -62.5t-14.5 -79.5z" />
<glyph unicode="&#x26;" horiz-adv-x="1170" d="M73 351q-7 69 8.5 126t44 102t64.5 79t70.5 59t63 40.5t41.5 23.5q10 6 10.5 10.5t-6.5 15.5q-14 22 -34.5 48.5t-40 62.5t-34.5 84t-19 113q0 75 26 138.5t69.5 110t101.5 73t121 26.5q60 0 116 -24t99 -66.5t68 -101.5t24 -129q-1 -81 -35 -141.5t-86 -104.5 t-114.5 -74t-119.5 -50q-21 -8 -9 -23l380 -475q8 -9 14.5 -10.5t15.5 12.5q13 19 17.5 49.5t6.5 69.5q1 14 4 18.5t18 4.5h27q11 0 18 -5t8 -19q-1 -43 -10 -90.5t-39 -101.5q-9 -15 0 -25l122 -150q10 -13 1.5 -20t-18.5 -7h-55q-17 0 -27 15l-78 96q-9 11 -13.5 11 t-8.5 -3q-32 -25 -65.5 -47.5t-74.5 -40t-92 -28t-117 -10.5q-105 0 -188 28t-141.5 76t-92.5 113.5t-41 140.5zM157 451q-13 -64 6 -137q20 -80 68.5 -131t111 -77.5t134 -31t138.5 7t123 37.5t89 61q9 10 10 15t-7 15l-398 514q-12 15 -29 7q-59 -27 -111 -68t-87 -94.5 t-48 -117.5zM311 1118q0 -48 14 -91.5t34 -81t43.5 -69t41.5 -55.5q5 -7 12 -7.5t13 1.5q22 8 54.5 20.5t68.5 31t72.5 44t66 58.5t48 74t19.5 92q1 48 -15 94t-47 82t-76 58t-100 22q-57 0 -103 -23.5t-78.5 -62t-50 -87.5t-17.5 -100z" />
<glyph unicode="'" horiz-adv-x="359" d="M140 1101v318q0 23 26 23h22q15 0 20.5 -5t5.5 -19v-316q0 -14 -5.5 -19t-20.5 -5h-22q-14 0 -20 4.5t-6 18.5z" />
<glyph unicode="(" horiz-adv-x="506" d="M100 535q0 135 24 259.5t66 239t99.5 218.5t125.5 199q7 10 15 11.5t13 -3t6.5 -12t-3.5 -15.5q-57 -101 -104.5 -202t-82 -208t-53.5 -224t-19 -249q0 -127 19.5 -246.5t55 -232.5t83.5 -220t105 -209q7 -13 5 -21.5t-8 -12.5t-14 -3t-14 9q-66 94 -124 200.5 t-101.5 223t-68.5 241.5t-25 257z" />
<glyph unicode=")" horiz-adv-x="506" d="M51 -380.5q2 -8.5 8 -12.5t14 -3t14 9q66 94 124 200.5t101.5 223t68.5 241.5t25 257q0 135 -24 259.5t-66 239t-99.5 218.5t-125.5 199q-7 10 -15 11.5t-13 -3t-6.5 -12t3.5 -15.5q57 -101 104.5 -202t82 -208t53.5 -224t19 -249q0 -127 -19.5 -246.5t-55 -232.5 t-83.5 -220t-105 -209q-7 -13 -5 -21.5z" />
<glyph unicode="*" horiz-adv-x="579" d="M69 1264l16 43q3 10 14 6l144 -63q11 -5 11 8l-4 171q0 11 11 13h44q11 0 11 -13l-5 -171q0 -12 11 -8l146 63q11 5 15 -5l16 -39q2 -5 0.5 -9t-6.5 -6l-149 -58q-5 -2 -6.5 -6t2.5 -9l110 -136q4 -5 3 -9.5t-4 -6.5l-35 -27q-8 -6 -14 2l-107 143q-8 13 -18 1l-109 -144 q-7 -9 -16 -2l-32 25q-10 8 -3 17l113 137q4 5 2 9t-7 6l-147 56q-9 4 -7 12z" />
<glyph unicode="+" horiz-adv-x="1152" d="M100 498v36q0 21 21 21h394q9 0 15 6t6 14v395q0 8 4 14t15 6h36q11 0 16 -6t5 -14v-396q0 -8 6 -13.5t14 -5.5h394q21 0 21 -19v-38q-1 -11 -5.5 -14.5t-13.5 -4.5h-396q-8 0 -14 -6t-6 -14v-395q0 -7 -5 -13.5t-15 -6.5h-37q-9 0 -14 6.5t-5 12.5v394q0 9 -5.5 15.5 t-15.5 6.5h-394q-6 0 -13.5 4t-7.5 15z" />
<glyph unicode="," horiz-adv-x="312" d="M91 -156.5q0 6.5 6 14.5q15 15 24 33.5t11.5 37.5t-2.5 38t-17 34q-7 8 -12.5 14.5t-5.5 17.5l2 120q0 26 23 26h66q23 0 23 -26l3 -117q-1 -41 -8 -71.5t-19 -54t-29 -42t-38 -34.5q-6 -5 -12.5 -5t-10.5 4t-4 10.5z" />
<glyph unicode="-" horiz-adv-x="722" d="M100 571v27q0 21 21 21h475q21 0 21 -19v-29q-1 -19 -19 -20h-477q-21 0 -21 20z" />
<glyph unicode="." horiz-adv-x="267" d="M80 26l2 117q0 26 23 26h46q23 0 23 -26l3 -117q0 -13 -4.5 -19.5t-18.5 -6.5h-52q-14 0 -18 6.5t-4 19.5z" />
<glyph unicode="/" horiz-adv-x="614" d="M-18 22l567 1405q4 10 7 12.5t10 2.5h43q8 0 12 -5t1 -13l-554 -1413q-2 -5 -6 -8t-14 -3h-51q-9 0 -14 6.5t-1 15.5z" />
<glyph unicode="0" horiz-adv-x="1091" d="M60 696q0 149 30 284t89.5 238t148.5 163.5t207 60.5q127 0 219 -60.5t151 -163.5t87.5 -238t28.5 -284q0 -87 -13.5 -173t-40 -164.5t-67 -145.5t-94 -116t-120.5 -77t-147 -28q-79 0 -145.5 28t-119.5 77t-93 116t-67 145.5t-40.5 164.5t-13.5 173zM143 699 q0 -69 10.5 -142.5t32 -143.5t54 -132.5t76.5 -109.5t100 -74.5t123 -27.5q70 0 126.5 27.5t101 74.5t77 109.5t53.5 132.5t31.5 143.5t10.5 142.5q0 142 -25 264.5t-75 213t-124.5 142.5t-173.5 52q-97 0 -171.5 -52t-124.5 -142.5t-76 -213t-26 -264.5z" />
<glyph unicode="1" horiz-adv-x="749" d="M100 1091l1 28q0 8 4 14.5t19 6.5h134q48 0 78.5 17t47.5 51.5t24 87t7 124.5q0 22 17 22h40q16 0 16 -22l7 -1394q0 -8 -5.5 -17t-20.5 -9h-35q-15 0 -20.5 9t-5.5 17l5 1017q0 13 -9 22t-22 9h-262q-11 0 -15.5 5t-4.5 12z" />
<glyph unicode="2" horiz-adv-x="1071" d="M82 16q-4 16 7 30l672 803q52 62 73.5 124.5t18 120.5t-29.5 108.5t-67 88t-95 59t-115 21.5q-58 0 -112 -15t-100 -45t-82 -76t-59 -107q-5 -13 -11 -21t-17 -8h-36q-12 0 -19.5 6t-2.5 21q25 80 70.5 139.5t104.5 98.5t126.5 58.5t136.5 19.5q73 0 140.5 -26t120.5 -72 t86.5 -108.5t38 -135.5t-25 -153.5t-101.5 -161.5l-554 -682q-5 -5 -3 -12t12 -7h695q15 0 20.5 -5t6.5 -21v-32q0 -13 -4.5 -19.5t-18.5 -6.5h-850q-22 0 -26 16z" />
<glyph unicode="3" horiz-adv-x="1050" d="M72 316q-4 16 2 21.5t20 5.5h40q18 0 26 -20q9 -27 32 -70t65 -84t107.5 -70.5t160.5 -29.5q70 0 135 25t114 70t78.5 107.5t29.5 138.5q0 75 -36 135.5t-91.5 103t-121.5 65.5t-126 23h-96q-13 0 -18 4t-5 18v31q0 23 23 23h105q58 0 117.5 20.5t107 58.5t77.5 91.5 t30 120.5q0 52 -21.5 100.5t-62 85.5t-100 59t-135.5 22q-53 0 -103.5 -14.5t-95 -45t-80 -77t-57.5 -110.5q-5 -14 -11 -19.5t-20 -5.5h-30q-14 0 -20 7t0 24q28 84 73.5 143t101.5 96.5t119 55t126 17.5q81 -1 152 -26t124.5 -70t84 -109t30.5 -143q0 -51 -19.5 -100 t-53.5 -90t-80 -72.5t-99 -47.5q-13 -4 -11 -11t13 -11q54 -16 106.5 -48.5t94.5 -79t68.5 -106.5t27.5 -131q0 -90 -35.5 -164.5t-97.5 -128t-146 -82.5t-180 -29q-78 0 -148 21.5t-127 63t-99.5 101.5t-64.5 137z" />
<glyph unicode="4" horiz-adv-x="1093" d="M81 449l2 48q0 11 7 21l623 913q5 7 9.5 9t11.5 2h49q8 0 12 -7t4 -15l5 -904q0 -16 19 -16h158q11 0 16 -5.5t5 -13.5l1 -32q0 -10 -5 -18t-16 -8h-157q-21 0 -21 -18l2 -379q0 -8 -5.5 -17t-20.5 -9h-35q-15 0 -20.5 9t-5.5 17l2 378q0 19 -19 19h-595q-27 0 -26 26z M180 505.5q3 -5.5 13 -5.5h512q17 0 17 17l3 763q0 14 -8.5 17.5t-16.5 -6.5l-517 -770q-6 -10 -3 -15.5z" />
<glyph unicode="5" horiz-adv-x="1079" d="M83 316q-5 17 1 22t21 5h40q19 0 25 -20q26 -74 65 -122t87 -77t102.5 -41.5t111.5 -13.5q87 3 155 35t115.5 85t72.5 122t25 147q0 79 -26.5 146t-73.5 115.5t-112 75.5t-141 27q-95 0 -172.5 -27t-153.5 -86q-6 -5 -13 -10.5t-16 -6.5h-38q-11 0 -17 6.5t-4 20.5 l69 697q4 26 32 26h646q14 0 22.5 -3.5t8.5 -19.5v-29q0 -16 -7.5 -19.5t-21.5 -3.5l-599 1q-15 0 -16 -14l-49 -533q1 -13 7.5 -15.5t15.5 2.5q42 22 79 38t74.5 27t78.5 16.5t91 5.5q82 0 158 -31.5t134.5 -89t93.5 -139.5t35 -182q0 -96 -33.5 -179.5t-93 -146 t-142 -98.5t-181.5 -36q-86 0 -159.5 21.5t-132 63t-100.5 101.5t-64 137z" />
<glyph unicode="6" horiz-adv-x="1158" d="M80 680q0 77 12.5 164t39 171.5t67.5 162t98 136t131 93.5t166 35q70 0 131.5 -19.5t111.5 -59t85.5 -98.5t53.5 -138q4 -17 0 -22.5t-18 -5.5h-34q-14 0 -20 4t-9 18q-11 48 -32 93t-57 80t-88.5 56t-126.5 21t-134.5 -30t-108 -80.5t-82.5 -117t-58 -140t-34 -149.5 t-11 -145q0 -9 6 -14t14 1q31 26 73 59t96.5 62t123.5 48.5t154 19.5q102 -2 184.5 -37t140.5 -93t89 -135t31 -162q0 -92 -32 -175.5t-91 -147.5t-142 -102.5t-186 -39.5q-105 0 -185.5 27.5t-141 76t-102 114t-67 142t-37 160t-11.5 167.5zM183 544q6 -125 44.5 -214.5 t97 -147.5t131.5 -85.5t148 -27.5q87 0 158 30.5t121.5 84t78 126t27.5 157.5q0 71 -26.5 133.5t-75.5 109.5t-117 74.5t-152 27.5q-57 0 -111.5 -14t-103.5 -37t-89.5 -52t-70 -59t-45.5 -58t-15 -48z" />
<glyph unicode="7" horiz-adv-x="959" d="M60 1387l1 34q0 21 21 21h778q25 0 26 -19l3 -61q0 -13 -4 -20q-52 -99 -104 -209.5t-102 -227t-96.5 -235.5t-86 -233.5t-71.5 -221.5t-54 -200q-3 -15 -22 -15h-54q-13 0 -15.5 9.5t-0.5 17.5q88 310 221.5 643.5t306.5 679.5q9 18 -10 18h-718q-8 0 -13.5 4t-5.5 15z " />
<glyph unicode="8" horiz-adv-x="1079" d="M71 398q0 60 22.5 116t61.5 103.5t91.5 85t113.5 61.5q18 7 19 15t-13 15q-51 24 -92 56t-70.5 71t-45 84t-15.5 94q0 81 35.5 144.5t92.5 108t128 67.5t142 23q74 0 146.5 -21.5t129.5 -65t92.5 -108t35.5 -149.5q0 -47 -19 -92t-51.5 -84.5t-75.5 -72.5t-92 -55 q-14 -6 -12 -15.5t15 -14.5q67 -26 120.5 -64t91 -85.5t57.5 -102.5t20 -115q0 -94 -37 -168.5t-100 -127t-146 -80.5t-174 -28q-95 0 -180.5 28t-150 80.5t-102.5 127.5t-38 169zM157 409q0 -80 30 -143t82.5 -106.5t122.5 -67t150 -23.5q81 0 149 23.5t117.5 67.5t77 107 t27.5 142q0 70 -33 130t-86 104t-119.5 69t-133.5 25q-75 0 -144.5 -27.5t-122.5 -73t-85 -105t-32 -122.5zM223 1106q0 -64 26 -117t69.5 -90.5t101 -58t121.5 -20.5q62 0 119.5 19.5t102.5 56t72.5 89.5t29.5 120q-2 55 -22.5 103.5t-61 84.5t-100.5 57t-140 21 q-65 0 -121 -19t-98.5 -53.5t-68.5 -83.5t-30 -109z" />
<glyph unicode="9" horiz-adv-x="1114" d="M75 984q0 100 37 184.5t99 145.5t142.5 95t168.5 33q137 -2 235 -55.5t159.5 -159t88.5 -262t24 -363.5q-2 -114 -28 -223.5t-83 -195t-149.5 -138t-226.5 -52.5q-65 0 -128 20t-118 60t-99.5 100.5t-71.5 141.5q-5 16 -1.5 22t20.5 6h34q14 0 20.5 -2t12.5 -19 q28 -76 67.5 -124.5t83.5 -76.5t90 -39.5t87 -12.5q108 -4 189.5 42.5t133 135t71.5 215t4 282.5q-2 23 -12.5 25.5t-18.5 -8.5q-26 -36 -64.5 -72t-88.5 -65.5t-111 -48t-132 -18.5q-84 0 -162.5 29.5t-139 85t-97 134.5t-36.5 178zM155 982q1 -65 24 -127.5t68 -111 t111.5 -78.5t153.5 -30q60 0 115 16t101.5 41.5t83.5 58t62.5 66t38.5 64.5t10 54q-11 90 -37 169.5t-73.5 139t-120 93.5t-175.5 34q-78 0 -144.5 -32t-115 -86t-76 -124.5t-26.5 -146.5z" />
<glyph unicode=":" horiz-adv-x="301" d="M90 26l2 127q0 26 23 26h60q23 0 23 -26l3 -127q0 -13 -4.5 -19.5t-18.5 -6.5h-66q-14 0 -18 6.5t-4 19.5zM90 874l2 127q0 26 23 26h60q23 0 23 -26l3 -127q0 -13 -4.5 -19.5t-18.5 -6.5h-66q-14 0 -18 6.5t-4 19.5z" />
<glyph unicode=";" horiz-adv-x="292" d="M82 -156.5q0 6.5 6 14.5q15 15 24 33.5t11.5 37.5t-2.5 38t-17 34q-7 8 -12.5 14.5t-5.5 17.5l2 120q0 26 23 26h66q23 0 23 -26l3 -117q-1 -41 -8 -71.5t-19 -54t-29 -42t-38 -34.5q-6 -5 -12.5 -5t-10.5 4t-4 10.5zM94 874l2 117q0 26 23 26h46q23 0 23 -26l3 -117 q0 -13 -4.5 -19.5t-18.5 -6.5h-52q-14 0 -18 6.5t-4 19.5z" />
<glyph unicode="&#x3c;" horiz-adv-x="1112" d="M100 557v24q0 9 2.5 16t10.5 11l851 369q12 5 22.5 3t10.5 -18v-28q0 -8 -3.5 -16t-14.5 -12l-786 -332q-5 -2 -5 -8.5t5 -8.5l796 -396q9 -5 13.5 -11t4.5 -17v-28q0 -12 -8.5 -19.5t-24.5 2.5l-863 440q-8 4 -9.5 11.5t-1.5 17.5z" />
<glyph unicode="=" horiz-adv-x="1117" d="M100 297v41q0 8 4.5 13t12.5 5h873q8 0 12.5 -5t4.5 -13v-41q0 -7 -4.5 -12t-12.5 -5h-873q-8 0 -12.5 5t-4.5 12zM100 693v41q0 8 4.5 13t12.5 5h873q8 0 12.5 -5t4.5 -13v-41q0 -7 -4.5 -12t-12.5 -5h-873q-8 0 -12.5 5t-4.5 12z" />
<glyph unicode="&#x3e;" horiz-adv-x="1112" d="M100 105v28q0 11 4.5 17t13.5 11l796 396q5 2 5 8.5t-5 8.5l-786 332q-11 4 -14.5 12t-3.5 16v28q0 16 10.5 18t22.5 -3l851 -369q8 -4 10.5 -11t2.5 -16v-24q0 -10 -1.5 -17.5t-9.5 -11.5l-863 -440q-16 -10 -24.5 -2.5t-8.5 19.5z" />
<glyph unicode="?" horiz-adv-x="1050" d="M82.5 1084q-5.5 5 1.5 27q27 94 77 160.5t112.5 109t133.5 62.5t141 20q92 0 168 -31t130 -84t84 -122.5t30 -147.5q0 -71 -17.5 -127t-47.5 -101t-70 -81t-85 -67t-93 -59.5t-93 -58.5q-10 -7 -10 -17l2 -180q0 -14 -5 -18.5t-17 -5.5h-35q-15 0 -20.5 5t-5.5 19l2 208 q0 20 18 31q83 51 156 97t127.5 97t86 113t31.5 144q0 61 -23.5 118t-67.5 100.5t-107 69.5t-142 26q-70 0 -131 -21t-110.5 -59t-85.5 -91t-55 -116q-5 -15 -11.5 -20t-20.5 -5h-25q-17 0 -22.5 5zM456 26l2 117q0 26 23 26h46q23 0 23 -26l3 -117q0 -13 -4.5 -19.5 t-18.5 -6.5h-52q-14 0 -18 6.5t-4 19.5z" />
<glyph unicode="@" horiz-adv-x="1449" d="M60 728q0 101 24 195t67.5 175.5t105 148.5t136 114.5t160 73.5t178.5 26q94 0 179 -24.5t157 -69t129.5 -107t98.5 -137t62.5 -160t21.5 -176.5q0 -69 -14.5 -136.5t-43 -120.5t-71 -86t-98.5 -33q-23 0 -48.5 8t-49 26t-42.5 46.5t-29 68.5q-3 11 -10.5 13.5 t-12.5 -8.5q-40 -84 -103 -124.5t-139 -38.5q-68 1 -123.5 27.5t-94.5 70.5t-60.5 102t-21.5 123q0 64 21.5 122t60 102.5t92 70.5t118.5 26q28 0 58.5 -7t61 -23t59 -42.5t54.5 -65.5q7 -10 14.5 -7.5t7.5 16.5v81q0 16 14 16h20q14 0 14 -16l10 -369q3 -48 20 -82.5 t42.5 -53.5t56.5 -20.5t63 16.5q31 18 53 49.5t35.5 72.5t20 88.5t5.5 97.5q-2 124 -46 233.5t-121.5 191.5t-185 130t-236.5 48q-85 0 -163.5 -24.5t-146 -69t-122.5 -106t-94 -136t-60.5 -159t-21.5 -173.5q0 -139 44.5 -262t124.5 -215.5t191.5 -146.5t245.5 -54 q86 0 167 20t160 76q7 6 16 6t12 -6l14 -29q5 -10 0.5 -16.5t-12.5 -11.5q-66 -46 -153.5 -73.5t-202.5 -27.5q-103 0 -192.5 27t-163.5 76t-132.5 116.5t-98.5 149.5t-61 175t-21 192zM476 729q0 -67 21.5 -117t56 -83.5t78 -50.5t86.5 -17q63 0 107.5 27t72 67t40.5 86.5 t13 84.5q0 53 -17.5 101t-49 84t-75 57t-94.5 21q-50 0 -93.5 -19t-75.5 -53t-51 -82t-19 -106z" />
<glyph unicode="A" d="M63 11.5q-1 11.5 2 19.5l567 1400q2 4 6 7.5t11 3.5h40q7 0 11 -3.5t6 -7.5l561 -1400q5 -11 2 -21.5t-15 -9.5h-44q-11 0 -16 6t-10 17l-175 446q-5 13 -12.5 18t-21.5 5h-616q-11 0 -19.5 -4.5t-13.5 -16.5l-177 -448q-8 -23 -25 -23h-46q-14 0 -15 11.5zM377 605 q-13 -36 19 -36h544q18 0 20.5 11t-1.5 25l-274 701q-5 14 -16.5 12.5t-15.5 -12.5z" />
<glyph unicode="B" horiz-adv-x="1264" d="M113 26l7 1394q0 22 17 22h516q103 0 184.5 -27t138.5 -74.5t87 -112t30 -139.5q0 -43 -15 -88t-43.5 -86t-70.5 -75t-95 -55q63 -20 116 -55t91.5 -80.5t59.5 -98.5t21 -110q0 -99 -37 -180.5t-105 -139.5t-166 -89.5t-219 -31.5h-491q-15 0 -20.5 9t-5.5 17zM194 1350 l2 -516q0 -21 20 -21h488q54 0 109.5 23.5t99.5 62.5t72 89t28 103q0 72 -34 124.5t-86 86t-114 50t-118 16.5h-449q-9 0 -13.5 -5t-4.5 -13zM197 718l3 -612q0 -12 5 -16.5t17 -5.5h398q102 0 185.5 25.5t142 72t90.5 112.5t32 147q0 59 -31 112.5t-81.5 94t-113.5 64.5 t-127 25h-502q-18 0 -18 -19z" />
<glyph unicode="C" horiz-adv-x="1397" d="M57 728q0 156 45.5 290.5t130 233.5t206 155t273.5 56q114 0 206.5 -27.5t165 -77.5t125 -120.5t87.5 -157.5q7 -17 5.5 -30.5t-18.5 -13.5h-33q-14 0 -20 5t-12 18q-29 63 -70 122.5t-100.5 106t-141.5 75t-194 28.5q-121 0 -225 -46.5t-180.5 -131.5t-120 -204 t-43.5 -264q0 -140 40 -262.5t114 -214t179 -144.5t236 -53q106 0 192 34t152 90t112.5 128.5t75.5 150.5q5 11 9 17.5t17 6.5h42q19 0 19.5 -13t-3.5 -24q-35 -106 -93 -192t-136 -147t-175.5 -94.5t-211.5 -33.5q-106 0 -195.5 28t-162.5 78t-128.5 119t-93 150.5 t-56.5 172.5t-19 186z" />
<glyph unicode="D" horiz-adv-x="1308" d="M103 26l7 1394q0 22 17 22h411q165 0 292 -57t213.5 -155t131 -229.5t44.5 -281.5q0 -94 -20.5 -183.5t-59 -169.5t-95 -147t-128 -116t-158 -76t-185.5 -27h-444q-15 0 -20.5 9t-5.5 17zM183 1345l7 -1241q0 -20 21 -20h367q75 0 145 23t132 64.5t112.5 99.5t87.5 128.5 t57 152t20 168.5q0 152 -48 272t-128 203.5t-184.5 128t-217.5 44.5h-351q-20 -1 -20 -23z" />
<glyph unicode="E" horiz-adv-x="1085" d="M103 26l7 1394q0 22 17 22h821q13 0 16 -6t4 -16v-31q0 -5 -2 -13t-16 -8h-748q-11 -1 -15 -5t-4 -14l3 -515q0 -21 20 -21h679q9 0 15 -4.5t6 -17.5l1 -32q0 -13 -6 -17.5t-16 -4.5h-680q-11 0 -15 -5.5t-4 -12.5l4 -614q0 -19 20 -19h755q15 0 21.5 -7.5t6.5 -13.5 l2 -39q0 -15 -8 -20.5t-18 -5.5h-840q-15 0 -20.5 9t-5.5 17z" />
<glyph unicode="F" horiz-adv-x="1058" d="M103 26l7 1394q0 22 17 22h817q23 0 23 -22l1 -28q0 -10 -3.5 -16.5t-16.5 -7.5h-747q-11 0 -14.5 -5t-3.5 -14l3 -515q0 -21 20 -21h680q19 0 20 -15l1 -43q0 -18 -20 -18h-681q-11 0 -15.5 -7t-4.5 -14l4 -690q0 -8 -5.5 -17t-20.5 -9h-35q-15 0 -20.5 9t-5.5 17z" />
<glyph unicode="G" horiz-adv-x="1455" d="M56 745q0 154 51.5 285.5t141.5 227.5t212 150.5t262 54.5q195 0 345.5 -92t240.5 -275q8 -17 -1.5 -24t-13.5 -7h-44q-5 0 -10 3t-10 12q-36 74 -89 132t-118 97.5t-140 60.5t-157 21q-78 0 -151.5 -21t-138 -60t-118.5 -95t-93 -126.5t-61 -154.5t-22 -178v-6 q0 -140 42 -262q43 -125 120.5 -217.5t184.5 -146t234 -53.5q106 0 197.5 40t164 106t123 150t74.5 172q5 16 -2.5 24.5t-30.5 8.5h-379q-14 0 -19 7.5t-5 15.5v30q0 8 5 15.5t19 7.5h489q12 0 19 -5.5t7 -20.5q-6 -73 -31 -148t-67.5 -145t-100.5 -131t-129.5 -106.5 t-155.5 -71.5t-178 -26q-141 0 -262.5 56.5t-211.5 156.5t-141.5 237.5t-51.5 300.5z" />
<glyph unicode="H" horiz-adv-x="1282" d="M108 26l7 1394q0 10 3.5 16t14.5 6h37q18 0 18 -22l3 -587q0 -9 3.5 -14.5t15.5 -5.5h858q20 0 20 20l3 587q0 22 17 22h40q16 0 16 -22l7 -1394q0 -8 -5.5 -17t-20.5 -9h-35q-15 0 -20.5 9t-5.5 17l3 690q0 13 -4 17t-17 4h-853q-13 0 -17 -4t-4 -17l3 -690 q0 -8 -5.5 -17t-20.5 -9h-35q-15 0 -20.5 9t-5.5 17z" />
<glyph unicode="I" horiz-adv-x="398" d="M153 26l7 1394q0 22 17 22h40q16 0 16 -22l7 -1394q0 -8 -5.5 -17t-20.5 -9h-35q-15 0 -20.5 9t-5.5 17z" />
<glyph unicode="J" horiz-adv-x="960" d="M83 428q0 14 5.5 20.5t23.5 6.5h30q14 0 19 -7t5 -20q0 -69 20 -133.5t59.5 -114t99 -79.5t138.5 -30t134 29t89 75.5t49.5 104.5t15.5 116l5 1024q0 22 17 22h40q16 0 16 -22l5 -1014q0 -94 -24.5 -170.5t-72 -130.5t-116.5 -83t-158 -29q-88 0 -161.5 30t-126.5 86 t-82.5 137t-29.5 182z" />
<glyph unicode="K" horiz-adv-x="1282" d="M106 26l7 1394q0 22 17 22h40q16 0 16 -22l4 -755q0 -13 8.5 -15.5t18.5 5.5l861 778q10 9 26 9h37q4 0 8.5 -2t7 -6t1.5 -9.5t-8 -12.5l-599 -564q-9 -9 -8.5 -16t6.5 -14l653 -787q11 -11 5.5 -21t-17.5 -10h-59q-11 0 -18 5t-14 13l-603 744q-11 14 -16.5 12.5 t-18.5 -12.5l-262 -241q-8 -8 -8 -21l2 -474q0 -8 -5.5 -17t-20.5 -9h-35q-15 0 -20.5 9t-5.5 17z" />
<glyph unicode="L" horiz-adv-x="1102" d="M107 26l7 1394q0 22 17 22h40q16 0 16 -22l7 -1310q0 -13 3.5 -19.5t16.5 -6.5h791q11 0 18.5 -4t7.5 -15l1 -42q0 -23 -29 -23h-870q-15 0 -20.5 9t-5.5 17z" />
<glyph unicode="M" horiz-adv-x="1519" d="M105 26l7 1394q0 22 19 22h82q12 0 17.5 -7t9.5 -17l498 -1263q7 -18 16.5 -18t17.5 17l509 1267q4 9 9 15t16 6h84q16 0 16 -22l7 -1393q0 -8 -5.5 -17.5t-20.5 -9.5h-35q-15 0 -20.5 9t-5.5 17l6 1284q0 12 -8 15.5t-13 -10.5l-497 -1292q-5 -10 -13.5 -16.5 t-19.5 -6.5h-48q-25 0 -33 23l-492 1292q-5 12 -13.5 9t-8.5 -14l6 -1283q0 -9 -5 -18t-21 -9h-35q-15 0 -20.5 9t-5.5 17z" />
<glyph unicode="N" horiz-adv-x="1273" d="M103 26l7 1394q0 22 17 22h59q16 0 26 -13l845 -1275q5 -7 12 -4.5t7 11.5l7 1259q0 22 17 22h40q16 0 16 -22l7 -1394q0 -8 -5.5 -17t-20.5 -9h-59q-11 0 -16.5 4t-9.5 9l-850 1302q-4 6 -11 4.5t-7 -9.5l6 -1284q0 -8 -5.5 -17t-20.5 -9h-35q-15 0 -20.5 9t-5.5 17z " />
<glyph unicode="O" horiz-adv-x="1471" d="M61 745q0 156 47.5 288t135 227.5t212 149t277.5 53.5q151 0 274.5 -54t211 -149.5t135 -227t47.5 -285.5q0 -161 -46 -299t-132.5 -239t-211.5 -158.5t-283 -57.5q-103 0 -192.5 26t-163.5 74t-132 115.5t-97.5 151t-60.5 181t-21 204.5zM148 745q0 -157 44 -282 t122 -212t185 -133.5t232 -46.5q123 0 229.5 45.5t185 132t123.5 212t45 284.5q0 153 -46.5 273.5t-126 203t-185.5 126t-225 43.5q-116 0 -221.5 -42t-186 -124t-128 -202.5t-47.5 -277.5z" />
<glyph unicode="P" horiz-adv-x="1147" d="M105 26l7 1394q0 22 17 22h561q89 0 160.5 -30.5t122 -84.5t77.5 -129t27 -164q0 -86 -24.5 -156.5t-78.5 -121.5t-139 -79t-205 -28h-424q-17 0 -17 -17l3 -606q0 -8 -5.5 -17t-20.5 -9h-37q-14 0 -19 9t-5 17zM185 1352l3 -608q1 -17 17 -17h456q104 0 170 27.5 t103.5 71.5t51.5 99t14 110t-16.5 114t-53 107.5t-95.5 80t-144 31.5h-491q-15 0 -15 -16z" />
<glyph unicode="Q" horiz-adv-x="1477" d="M61 745q0 152 47 283.5t134.5 228t211.5 151.5t278 55q104 0 194 -25t164 -71t132 -111t98 -144.5t60.5 -172t20.5 -193.5q0 -89 -16.5 -176t-49.5 -167.5t-84 -151.5t-120 -129q-10 -7 -8 -13t6 -11l87 -104q8 -10 10.5 -17.5t-5.5 -14.5l-35 -34q-12 -9 -20 -5t-16 13 l-92 116q-12 14 -25 8q-31 -15 -68 -27.5t-76.5 -21.5t-79.5 -13.5t-76 -4.5q-167 0 -293 61.5t-210 165t-126.5 239.5t-42.5 286zM148 745q0 -158 46.5 -283.5t126 -213t185.5 -133.5q102 -44 214 -44h10q25 0 55.5 2.5t62 8.5t61.5 16.5t56 26.5q12 8 16 13.5t-4 15.5 l-93 115q-7 8 -5.5 16t7.5 14l21 21q18 14 33 -3l102 -121q10 -12 19 -11t19 9q61 50 105 114t72.5 136t42.5 149t14 152q0 163 -50.5 285t-133 202.5t-186.5 119.5q-102 39 -208 39h-5q-111 -1 -216 -42t-186.5 -121.5t-131 -201t-49.5 -281.5z" />
<glyph unicode="R" horiz-adv-x="1288" d="M113 26l7 1394q0 22 17 22h540q75 0 149.5 -25t134 -75.5t96.5 -127t37 -180.5q0 -77 -30 -141.5t-82 -112.5t-122 -79t-149 -41q-11 -2 -13.5 -9t2.5 -14l485 -598q10 -11 11.5 -25t-17.5 -14h-52q-11 0 -20 2t-15 10l-497 627q-11 12 -24 12h-357q-17 0 -17 -20l3 -605 q0 -8 -5.5 -17t-19.5 -9h-36q-15 0 -20.5 9t-5.5 17zM194 1351l2 -604q0 -11 4 -15t16 -4h411q85 0 155 26t120 69t77.5 98t27.5 113q0 70 -23.5 131t-67.5 106t-108.5 71t-145.5 26h-451q-17 0 -17 -17z" />
<glyph unicode="S" horiz-adv-x="1218" d="M72 396q-4 17 2.5 22.5t19.5 5.5h42q21 0 25 -22q14 -73 53.5 -134.5t98.5 -106t135 -68.5q71 -22 152 -22h14q86 2 163.5 25.5t136.5 66.5t93.5 104t34.5 138q0 83 -37 139.5t-94.5 92t-126.5 53.5t-132 25q-124 14 -220 44.5t-162 78.5t-100 114.5t-34 152.5 q0 87 38 153.5t100.5 112t143 69t165.5 23.5q84 0 165 -19.5t149.5 -61t119 -105t74.5 -151.5q3 -16 -1.5 -21.5t-21.5 -5.5h-38q-12 0 -15.5 5.5t-8.5 20.5q-18 56 -56.5 104.5t-92.5 84.5t-121.5 56.5t-142.5 20.5q-69 0 -134 -18.5t-117 -53.5t-84 -85.5t-35 -114.5v-15 q-1 -51 17 -91q20 -46 55.5 -80.5t82.5 -58.5t98 -40t102 -25t96 -14q118 -12 204 -45.5t141.5 -83t82.5 -112.5t27 -136q-2 -104 -42.5 -183t-109.5 -132.5t-161 -81.5t-197 -28q-54 0 -111 9t-112 28.5t-106.5 51t-94.5 76.5t-75 104t-48 134z" />
<glyph unicode="T" horiz-adv-x="1104" d="M40 1390l1 33q0 8 4.5 13.5t16.5 5.5h977q11 0 15 -5.5t4 -13.5l1 -33q0 -9 -2.5 -15.5t-16.5 -6.5h-439q-5 0 -11 -4t-6 -16l7 -1322q0 -8 -5.5 -17t-20.5 -9h-37q-14 0 -19 9t-5 17l7 1321q0 12 -6 16.5t-11 4.5h-435q-13 0 -16 6.5t-3 15.5z" />
<glyph unicode="U" horiz-adv-x="1277" d="M103 614l4 806q0 22 17 22h40q16 0 16 -22l4 -780q1 -141 37.5 -247.5t98.5 -178t143.5 -107.5t172.5 -36q93 0 175 36.5t143.5 108.5t97 180.5t36.5 252.5l4 771q0 22 17 22h40q16 0 16 -22l4 -795v-7q-1 -134 -37 -247q-38 -116 -107 -200t-167.5 -131t-221.5 -47 q-122 0 -220.5 45.5t-168.5 127.5q-69 82 -107 196q-37 111 -37 245v7z" />
<glyph unicode="V" horiz-adv-x="1300" d="M57 1419q-2 6 0.5 14.5t16.5 8.5h45q9 0 13.5 -5.5t6.5 -10.5l502 -1297q5 -12 16.5 -12t16.5 12l484 1297q4 10 9 13t16 3h42q10 0 13 -7.5t0 -15.5l-513 -1394q-8 -25 -25 -25h-82q-19 0 -26 21z" />
<glyph unicode="W" horiz-adv-x="1906" d="M57 1414q-3 12 1 20t18 8h36q12 0 16 -5.5t8 -16.5l351 -1295q4 -15 14.5 -15t15.5 15l378 1287q3 11 11 20.5t21 9.5h47q12 0 20 -9.5t11 -20.5l340 -1287q5 -15 15 -15t15 15l389 1295q4 10 9 16t16 6h36q15 0 19 -8.5t-1 -19.5l-414 -1388q-4 -11 -13 -18.5t-21 -7.5 h-69q-12 0 -21.5 7t-12.5 18l-328 1250q-5 14 -16.5 12.5t-14.5 -12.5l-362 -1249q-3 -11 -12.5 -18.5t-22.5 -7.5h-67q-28 0 -35 25z" />
<glyph unicode="X" horiz-adv-x="1221" d="M77 9.5q-4 9.5 2 17.5l467 694q6 9 8 16t-6 18l-427 665q-5 8 1 15t23 7h33q17 0 26 -14l389 -603q5 -8 14 -8t14 8l392 603q5 7 10.5 10.5t17.5 3.5h36q15 0 20 -7t0 -15l-430 -665q-8 -11 -5.5 -18t8.5 -16l467 -694q6 -8 1.5 -17.5t-18.5 -9.5h-54q-11 0 -17 4t-11 12 l-417 635q-6 8 -14.5 7t-13.5 -7l-414 -635q-5 -7 -10.5 -11.5t-13.5 -4.5h-64q-10 0 -14 9.5z" />
<glyph unicode="Y" horiz-adv-x="1118" d="M67 1420q-5 8 1 15t23 7h33q15 0 24 -14l390 -602q7 -9 17 -10t16 10l391 600q5 8 11 12t18 4h35q14 0 19 -7.5t-1 -16.5l-444 -684q-2 -5 -4 -9.5t-2 -9.5l4 -689q0 -8 -5.5 -17t-20.5 -9h-35q-15 0 -20.5 9t-5.5 17l3 689q0 11 -5 19z" />
<glyph unicode="Z" horiz-adv-x="1214" d="M70 38l1 50q0 12 8 23l927 1234q5 7 2.5 15t-15.5 8h-867q-23 0 -23 24l1 28q0 10 6 16t21 6h970q25 0 25 -22l1 -35q0 -14 -9 -24l-920 -1259q-4 -5 -1.5 -11.5t10.5 -6.5h918q23 0 23 -22l1 -41q0 -9 -6.5 -15t-20.5 -6h-1016q-15 0 -25.5 10.5t-10.5 27.5z" />
<glyph unicode="[" horiz-adv-x="512" d="M130 -421v1844q0 19 22 19h284q16 0 16 -14v-38q0 -15 -16 -15h-221q-7 0 -10.5 -2.5t-3.5 -10.5v-1722q0 -8 3.5 -10.5t10.5 -2.5h221q16 0 16 -15v-37q0 -15 -16 -15h-284q-22 0 -22 19z" />
<glyph unicode="\" horiz-adv-x="603" d="M-18 1424q-3 8 1 13t12 5h32q7 0 10 -2.5t7 -12.5l567 -1405q4 -9 -1 -15.5t-14 -6.5h-40q-10 0 -14 3t-6 8z" />
<glyph unicode="]" horiz-adv-x="512" d="M60 -388q0 15 16 15h221q7 0 10.5 2.5t3.5 10.5v1722q0 8 -3.5 10.5t-10.5 2.5h-221q-16 0 -16 15v38q0 14 16 14h284q22 0 22 -19v-1844q0 -19 -22 -19h-284q-16 0 -16 15v37z" />
<glyph unicode="^" horiz-adv-x="1111" d="M91 555.5q-2 10.5 3 22.5l391 851q4 8 11 10.5t16 2.5h24q10 0 17.5 -1.5t11.5 -9.5l440 -863q10 -16 2.5 -24.5t-19.5 -8.5h-28q-11 0 -17 4.5t-11 13.5l-396 796q-2 5 -8.5 5t-8.5 -5l-354 -786q-4 -11 -12 -14.5t-16 -3.5h-28q-16 0 -18 10.5z" />
<glyph unicode="_" horiz-adv-x="1008" d="M50 -208q0 5 4 13t13 8h865q13 0 17 -5t4 -14v-38q0 -8 -3.5 -13t-15.5 -6h-867q-10 0 -13.5 7t-3.5 12v36z" />
<glyph unicode="`" horiz-adv-x="319" d="M72 1432.5q5 9.5 18 9.5h51q16 0 24 -14l111 -171q4 -6 3 -12t-5 -10t-9.5 -4t-11.5 5l-178 179q-8 8 -3 17.5z" />
<glyph unicode="a" horiz-adv-x="931" d="M66 263v12q0 37 10 75q12 44 38.5 80.5t67 64.5t94.5 40q70 15 136 27.5t125.5 27.5t111 36t93.5 54q24 18 30 42t6 59q-2 42 -19.5 81.5t-52 70t-87 49t-124.5 19.5q-37 0 -82.5 -11.5t-88 -38t-78 -68.5t-52.5 -102q-5 -17 -9.5 -21.5t-16.5 -4.5l-36 1q-9 0 -13 9.5 t-2 17.5q12 67 51.5 119.5t93.5 88.5t116 55t118 19q66 0 129 -16t112 -51.5t79.5 -93.5t32.5 -142l4 -740q0 -22 -21 -22h-34q-10 0 -17 6t-7 16l1 126q0 8 -5.5 10t-10.5 -4q-42 -49 -89 -80.5t-95.5 -50t-95.5 -25t-87 -6.5q-69 1 -127 21.5t-101.5 56.5t-69 85.5 t-28.5 107.5zM145 299v-5q-1 -60 21 -103q22 -45 60 -73q40 -30 90 -42q44 -11 90 -10h14q54 2 109.5 16.5t104 41t85.5 63t56 82.5v41t0.5 58.5t0.5 67.5t0.5 67.5t0.5 59v42.5q0 5 -2.5 10.5t-13.5 0.5q-29 -15 -54 -27t-51.5 -23.5t-57.5 -22t-71.5 -21.5t-93.5 -22.5 t-123 -24.5q-46 -9 -77.5 -31t-51 -48.5t-28 -52.5t-8.5 -44z" />
<glyph unicode="b" horiz-adv-x="1099" d="M77 22l7 1399q0 8 5 14.5t16 6.5h24q11 0 15.5 -6.5t4.5 -14.5l3 -573q0 -15 9.5 -19.5t17.5 6.5q26 36 63 76t85 74.5t107.5 57t131.5 22.5q108 0 192 -44t141.5 -116t87.5 -163.5t30 -187.5q0 -116 -32 -218t-91.5 -178.5t-143 -121t-185.5 -44.5q-62 0 -118 16.5 t-105 45t-90 67.5t-72 84q-6 9 -15.5 7.5t-9.5 -15.5l1 -175q0 -22 -21 -22h-34q-10 0 -17 6t-7 16zM153 517q1 -111 38.5 -194.5t97 -139.5t133.5 -84t149 -28q79 0 146 39.5t116.5 105t77.5 151t28 177.5t-28.5 174t-78 143.5t-116 97t-143.5 35.5q-84 0 -160.5 -33.5 t-134.5 -96t-92 -150.5q-33 -85 -33 -191v-6z" />
<glyph unicode="c" horiz-adv-x="1075" d="M81 536q0 131 42.5 230t110.5 165.5t153 100t171 33.5q60 0 119 -12t113.5 -41t103.5 -77t88 -120q5 -10 2 -20t-17 -10h-39q-11 0 -15.5 3t-10.5 12q-24 39 -54.5 74t-71 62t-94 42.5t-124.5 15.5q-86 0 -159.5 -35.5t-126.5 -97t-83 -143t-30 -173.5q0 -94 28 -179.5 t80 -151t125.5 -104.5t165.5 -39q73 0 133 20t106 54.5t79 80t53 96.5q4 10 8 14.5t15 4.5h38q24 0 18 -25q-16 -62 -54.5 -120.5t-96 -103.5t-131 -72.5t-158.5 -27.5q-112 0 -202 44t-153.5 119t-97.5 173.5t-34 207.5z" />
<glyph unicode="d" horiz-adv-x="1112" d="M81 554q0 96 29 187.5t85.5 163.5t140 116t191.5 44q72 0 131.5 -22.5t107.5 -57t85 -74.5t63 -76q8 -11 17.5 -6.5t9.5 19.5l3 573q0 8 4.5 14.5t15.5 6.5h24q11 0 16 -6.5t5 -14.5l7 -1399q0 -10 -7 -16t-17 -6h-34q-21 0 -21 22l1 175q0 14 -9.5 15.5t-15.5 -7.5 q-31 -45 -72 -84t-90 -67.5t-105.5 -45t-117.5 -16.5q-102 0 -185 43t-141 118.5t-89.5 178t-31.5 222.5zM159 544q0 -92 27 -177.5t75.5 -151t115 -105t145.5 -39.5q75 0 149 28t133.5 84t97 139.5t38.5 194.5v6q0 105 -33 191q-34 88 -92 150.5t-134.5 96t-160.5 33.5 q-77 0 -143 -35.5t-114.5 -97t-76 -143.5t-27.5 -174z" />
<glyph unicode="e" horiz-adv-x="1067" d="M57 546q0 120 41 216t108 163.5t153 103.5t176 36q75 0 138.5 -21t115 -57t91 -83.5t67 -100t42.5 -108t17 -106.5q1 -16 -8.5 -22t-16.5 -6h-827q-19 -1 -19 -22v-10q-1 -51 9 -101q10 -56 32 -107.5t55 -97t77.5 -79t100.5 -53.5t124 -20q70 0 124.5 17.5t96 46 t72 63.5t51.5 69q6 8 11 11.5t14 3.5h40q13 0 16.5 -9t-1.5 -18q-33 -66 -77.5 -115.5t-98 -82.5t-114.5 -49t-128 -16q-112 0 -201 43t-151.5 117.5t-96 175.5t-33.5 218zM145 647q-1 -7 1.5 -12t10.5 -5h747q18 0 14 18q-9 57 -38.5 118t-78 112t-115 83.5t-150.5 32.5 q-73 0 -139.5 -28.5t-119 -76t-87.5 -110.5t-45 -132z" />
<glyph unicode="f" horiz-adv-x="556" d="M50 995l1 28q0 8 5.5 12t12.5 4h140q8 0 14 6.5t6 15.5l1 154q1 58 18 101t44 71t60 41.5t65 13.5h41q10 0 14.5 -5.5t4.5 -12.5l1 -25q0 -8 -4 -13t-14 -5h-40q-22 0 -43.5 -9.5t-39 -29.5t-28.5 -52t-12 -78l1 -151q0 -9 6 -15.5t15 -6.5h158q8 0 13 -4.5t5 -11.5 l1 -28q0 -7 -4.5 -12t-11.5 -5h-162q-8 0 -14 -6t-6 -14l5 -936q0 -22 -21 -22h-34q-10 0 -17 6t-7 16l5 936q0 8 -6 14t-14 6h-140q-19 0 -19 17z" />
<glyph unicode="g" horiz-adv-x="1126" d="M90 528q0 96 29.5 191.5t88 172.5t145.5 125t202 48q71 0 129 -19t104 -47t79 -61t54 -61q8 -11 17.5 -8.5t9.5 18.5l1 128q0 13 4.5 18.5t18.5 5.5h22q14 0 19 -5.5t5 -18.5l5 -996q0 -106 -35 -192.5t-95 -147.5t-139.5 -94.5t-167.5 -33.5q-67 0 -126 20.5t-107 52.5 t-84 69.5t-57 72.5q-3 6 -2.5 10.5t3.5 7.5t6.5 4.5t5.5 1.5h55q10 0 14.5 -4t10.5 -12q23 -31 54 -58t67 -46.5t74.5 -31t77.5 -11.5q73 0 139 27t116.5 77t80 121.5t30.5 160.5l1 145q0 17 -10 18t-20 -11q-25 -29 -57.5 -60t-76 -56t-99.5 -41t-127 -16 q-103 0 -188.5 41.5t-147 114t-95.5 170.5t-34 210zM168 528q0 -46 10 -98t30.5 -102.5t52 -97t75 -82t100 -56.5t125.5 -21q102 0 174.5 39.5t119.5 106t69.5 154t22.5 184.5q0 71 -16.5 131t-45 109t-67.5 86t-83.5 62t-92.5 38t-95 13q-81 0 -150.5 -38t-120.5 -102.5 t-79.5 -149t-28.5 -176.5z" />
<glyph unicode="h" horiz-adv-x="974" d="M106 22l7 1399q0 8 5 14.5t16 6.5h24q11 0 15.5 -6.5t4.5 -14.5l3 -566q0 -11 7.5 -12.5t13.5 5.5q37 43 83 82t99 69t112 48t122 18q46 0 91 -16t80 -49t57.5 -82.5t23.5 -116.5l4 -779q0 -22 -21 -22h-34q-24 0 -24 22l3 745q0 55 -15.5 97.5t-45 71t-70.5 43.5t-90 15 q-44 0 -90 -15.5t-90 -41t-83 -57.5t-68.5 -65.5t-46.5 -64.5t-17 -54l3 -674q0 -22 -21 -22h-34q-10 0 -17 6t-7 16z" />
<glyph unicode="i" horiz-adv-x="351" d="M132 22l5 996q0 21 18 21h33q18 0 18 -21l5 -996q0 -9 -5 -15.5t-16 -6.5h-36q-9 0 -15.5 6.5t-6.5 15.5zM137 1307l2 118q0 17 15 17h34q7 0 10.5 -5t3.5 -13l3 -117q0 -8 -5.5 -12t-13.5 -4h-30q-8 0 -13.5 4t-5.5 12z" />
<glyph unicode="j" horiz-adv-x="400" d="M30 -389q0 15 5.5 20.5t20.5 5.5q35 0 59 4.5t39 16t22 31.5t7 51l6 1278q0 9 4.5 15t17.5 6h25q13 0 17.5 -5.5t4.5 -16.5l6 -1295q0 -45 -14 -76t-37.5 -50t-52.5 -27.5t-59 -8.5h-45q-15 0 -20.5 5.5t-5.5 20.5v25zM192 1307l2 118q0 17 15 17h34q7 0 10.5 -5t3.5 -13 l3 -117q0 -8 -5.5 -12t-13.5 -4h-30q-8 0 -13.5 4t-5.5 12z" />
<glyph unicode="k" horiz-adv-x="960" d="M108 22l7 1399q0 8 5 14.5t16 6.5h24q11 0 15.5 -6.5t4.5 -14.5l5 -880q0 -15 7 -18t16 4l559 503q9 9 22 9h32q14 0 18 -9t-5 -18l-401 -374q-10 -13 -1 -28l459 -577q14 -17 6.5 -25t-21.5 -8h-42q-9 0 -14.5 2.5t-11.5 10.5l-424 551q-6 8 -13.5 6.5t-14.5 -8.5 l-165 -149q-6 -6 -6 -17l2 -374q0 -22 -21 -22h-35q-23 0 -23 22z" />
<glyph unicode="l" horiz-adv-x="356" d="M136 22l7 1399q0 8 5 14.5t16 6.5h24q11 0 15.5 -6.5t4.5 -14.5l7 -1399q0 -22 -21 -22h-35q-10 0 -16.5 6t-6.5 16z" />
<glyph unicode="m" horiz-adv-x="1627" d="M98 22l5 996q0 21 18 21h33q18 0 18 -21l1 -163q0 -11 7.5 -12.5t13.5 5.5q37 43 82.5 82.5t96 69.5t105 48t110.5 18q52 0 95.5 -18t76 -48t54 -67.5t29.5 -76.5q2 -11 10.5 -13.5t15.5 8.5q28 42 68 81t90.5 69t109 47.5t124.5 17.5q44 0 88.5 -17.5t80.5 -52t59 -85.5 t23 -118l4 -771q0 -22 -21 -22h-36q-22 0 -22 22l4 737q0 55 -15.5 98.5t-45 74t-70.5 46.5t-90 16q-34 0 -73 -11t-78.5 -30.5t-76.5 -47.5t-65.5 -62t-45.5 -74t-17 -83l3 -664q0 -22 -21 -22h-35q-23 0 -23 22l3 712q0 59 -16.5 107t-47 82t-74 52.5t-97.5 18.5 q-41 0 -85.5 -15.5t-87 -41t-80.5 -57.5t-66.5 -65.5t-45.5 -64.5t-17 -54l3 -674q0 -9 -5.5 -15.5t-15.5 -6.5h-36q-22 0 -22 22z" />
<glyph unicode="n" horiz-adv-x="974" d="M96 22l5 996q0 21 18 21h33q18 0 18 -21l1 -163q0 -11 7.5 -12.5t13.5 5.5q37 43 83 82t99 69t112 48t122 18q46 0 91 -17.5t80 -52t57.5 -85t23.5 -117.5l3 -771q0 -22 -21 -22h-36q-22 0 -22 22l4 737q0 55 -15.5 98.5t-45 74t-70.5 46.5t-90 16q-44 0 -90 -15.5 t-90 -41t-83.5 -57.5t-68.5 -65.5t-46 -64.5t-17 -54l3 -674q0 -22 -21 -22h-36q-22 0 -22 22z" />
<glyph unicode="o" horiz-adv-x="1101" d="M65 528q0 111 34.5 209t97.5 171t152.5 115t199.5 42q109 0 198 -42t152 -115t97.5 -171t34.5 -209q0 -103 -31.5 -199.5t-92.5 -171.5t-151 -120t-207 -45q-119 0 -209.5 45t-151.5 120t-92 171.5t-31 199.5zM143 537q0 -101 28.5 -186.5t81.5 -147.5t128 -97t168 -35 t167 33.5t126 94t80.5 144.5t30.5 185q0 81 -25 163.5t-75 150t-126 110t-178 42.5q-67 0 -123.5 -19t-101.5 -52t-79 -77t-56.5 -95t-34 -105.5t-11.5 -108.5z" />
<glyph unicode="p" horiz-adv-x="1120" d="M95 -411l7 1425q0 14 5.5 19.5t21.5 5.5h19q15 0 19 -5.5t4 -19.5l1 -125q0 -16 9.5 -20.5t17.5 6.5q23 30 56.5 63.5t78.5 61.5t103 46.5t129 18.5q115 0 202 -48t145 -125t87.5 -172.5t29.5 -191.5q0 -112 -32.5 -210t-92 -170.5t-143.5 -114t-187 -41.5 q-71 0 -128.5 16t-103 41t-79.5 56t-59 60q-10 12 -20 11t-10 -18l5 -569q0 -29 -26 -29h-35q-24 0 -24 29zM173 557q0 -93 20 -180.5t66.5 -155.5t122.5 -109t188 -41q67 0 121 21t96.5 56.5t73.5 82t51 97t30 102.5t10 98q0 92 -28.5 176.5t-79 149t-120 102.5t-150.5 38 q-74 0 -146 -30t-128.5 -86t-91.5 -137t-35 -184z" />
<glyph unicode="q" horiz-adv-x="1120" d="M90 528q0 103 31 200t90 172t146 120t198 45q67 0 124 -19t103.5 -47.5t81 -62t57.5 -61.5q8 -11 17.5 -6.5t9.5 20.5l1 125q0 14 5 19.5t20 5.5h21q16 0 20.5 -5.5t4.5 -19.5l4 -1425q0 -29 -24 -29h-34q-26 0 -26 29l5 569q0 17 -10 18t-20 -11q-25 -29 -57.5 -60 t-76 -56t-99.5 -41t-127 -16q-103 0 -188.5 41.5t-147 114t-95.5 170.5t-34 210zM168 528q0 -46 10 -98t30.5 -102.5t52 -97t75 -82t99.5 -56.5t125 -21q108 0 182 41t119 109t65 155.5t20 180.5q0 103 -34.5 184t-91 137t-128 86t-145.5 30q-78 0 -146.5 -35.5t-120.5 -98 t-82 -147.5t-30 -185z" />
<glyph unicode="r" horiz-adv-x="655" d="M108 22l5 996q0 21 18 21h33q18 0 18 -21l1 -164q0 -12 6.5 -14t11.5 3q30 40 71 80t86.5 71.5t93 51t91.5 19.5q12 0 17 -4.5t5 -17.5v-37q0 -9 -4 -16t-14 -7q-44 0 -88 -15.5t-84.5 -40.5t-75 -56.5t-60.5 -63.5t-40.5 -61.5t-14.5 -49.5l3 -674q0 -22 -21 -22h-35 q-10 0 -16.5 6t-6.5 16z" />
<glyph unicode="s" horiz-adv-x="956" d="M82 261q-8 21 13 21h46q10 0 14.5 -3.5t8.5 -10.5q15 -30 40.5 -64.5t64.5 -64t94 -49t130 -19.5q61 0 113.5 16t91 45.5t60 72t21.5 95.5q0 52 -28 86t-73.5 57t-103.5 39t-119 32t-119 36t-103.5 51t-73.5 77.5t-28 114.5t29.5 119t76.5 85t106 51t118 17 q129 0 221 -52t140 -170q3 -8 -1 -14.5t-13 -6.5h-41q-11 0 -15 2.5t-9 12.5q-41 76 -106 116.5t-170 40.5q-60 0 -108 -16t-81 -43t-51 -62.5t-18 -74.5q0 -57 28 -94t73.5 -61t103.5 -40t119 -31t119 -33.5t103.5 -49t73.5 -76.5t28 -116q0 -82 -33.5 -140t-85 -94.5 t-114.5 -53.5t-122 -17q-71 0 -134.5 16.5t-117.5 50t-97 84t-71 118.5z" />
<glyph unicode="t" horiz-adv-x="556" d="M50 995l1 28q0 8 5.5 12t12.5 4h140q8 0 14 6.5t6 15.5l2 360q0 8 5 14.5t16 6.5h24q11 0 15.5 -6.5t4.5 -14.5l2 -360q0 -9 6 -15.5t15 -6.5h158q8 0 13 -4.5t5 -11.5l1 -28q0 -7 -5 -12t-11 -5h-162q-8 0 -14 -6t-6 -14l5 -936q0 -22 -21 -22h-35q-10 0 -16.5 6 t-6.5 16l5 936q0 8 -6 14t-14 6h-140q-19 0 -19 17z" />
<glyph unicode="u" horiz-adv-x="993" d="M112 387l3 631q0 21 18 21h33q18 0 18 -21l3 -636q0 -56 12.5 -111.5t43 -99.5t81.5 -72t128 -28q62 0 123.5 24t110.5 62.5t79.5 86.5t30.5 95l4 675q0 14 4 19.5t18 5.5h26q14 0 17.5 -5.5t3.5 -20.5l5 -991q0 -22 -21 -22h-35q-10 0 -16.5 6t-6.5 16l1 134 q0 7 -5.5 9.5t-10.5 -3.5q-26 -34 -63 -64.5t-81 -54t-93.5 -37t-100.5 -13.5q-89 0 -152 31t-102.5 84.5t-57.5 125.5t-18 153z" />
<glyph unicode="v" horiz-adv-x="958" d="M51 1018q-2 8 1.5 14.5t11.5 6.5h40q9 0 13 -4t8 -13l335 -905q5 -11 12 -11t12 11l344 905q4 9 7.5 13t12.5 4h39q8 0 13 -6t1 -15l-373 -1005q-5 -13 -16 -13h-81q-13 0 -18 13z" />
<glyph unicode="w" horiz-adv-x="1462" d="M51 1018q-2 8 2 14.5t12 6.5h36q11 0 16.5 -4.5t7.5 -12.5l277 -906q3 -10 11 -10t11 10l261 904q4 12 11.5 15.5t19.5 3.5h26q13 0 20.5 -3t11.5 -15l269 -905q4 -10 12 -10t11 10l267 906q4 10 7.5 13.5t12.5 3.5h38q8 0 12.5 -6t2.5 -15l-293 -995q-3 -11 -7.5 -17 t-15.5 -6h-66q-14 0 -17.5 6t-8.5 17l-254 875q-5 16 -13 15t-12 -15l-247 -875q-4 -11 -7 -17t-16 -6h-66q-14 0 -17.5 6t-8.5 17z" />
<glyph unicode="x" horiz-adv-x="994" d="M70.5 11q-0.5 11 6.5 19l363 499q6 7 1 15l-312 471q-3 5 -2 14.5t15 9.5h40q9 0 14 -3.5t7 -7.5l281 -426q8 -9 12 -8.5t11 8.5l283 426q5 6 9 8.5t13 2.5h43q8 0 12.5 -7.5t-1.5 -16.5l-315 -470q-5 -8 0 -15l361 -500q7 -9 6 -19.5t-12 -10.5h-59q-8 0 -12 2t-9 10 l-320 450q-7 10 -11.5 9t-10.5 -9l-320 -450q-6 -8 -10.5 -10t-12.5 -2h-59q-11 0 -11.5 11z" />
<glyph unicode="y" horiz-adv-x="958" d="M51 1018q-2 8 1.5 14.5t11.5 6.5h40q9 0 13 -4t8 -13l335 -905q5 -11 12 -11t12 11l344 905q4 9 7.5 13t12.5 4h39q8 0 13 -6t1 -15l-530 -1441q-4 -11 -10 -14t-13 -3h-57q-6 0 -11 6.5t0 17.5l146 381q3 8 1 16z" />
<glyph unicode="z" horiz-adv-x="857" d="M50 26l1 51q0 13 9 24l627 849q8 11 4.5 17t-14.5 6h-589q-11 0 -15 6t-4 14l1 30q0 7 4 11.5t15 4.5h676q11 0 15.5 -6.5t4.5 -14.5l1 -40q0 -11 -8 -22l-616 -859q-7 -11 -4 -17.5t14 -6.5h611q8 0 13 -4.5t5 -14.5l1 -33q0 -21 -16 -21h-710q-26 0 -26 26z" />
<glyph unicode="{" horiz-adv-x="663" d="M100 524v52q0 10 4 13.5t15 5.5q25 5 45.5 18.5t35.5 33t23 44t8 51.5v454q0 56 17 101.5t47.5 77.5t72.5 49.5t92 17.5h119q14 0 19 -4t5 -18v-22q0 -15 -4.5 -19t-19.5 -4h-107q-51 0 -84 -18.5t-52.5 -48t-27 -66t-7.5 -73.5v-449q0 -54 -28.5 -96t-73.5 -62 q-11 -5 -11 -13t11 -13q47 -20 74.5 -66t27.5 -99v-539q0 -35 7.5 -71t26.5 -66t52 -49t85 -19h107q15 0 19.5 -4t4.5 -19v-22q0 -14 -5 -18t-19 -4h-119q-50 0 -91.5 17t-71.5 49.5t-47 80.5t-17 110l-2 529q0 68 -34 107t-82 52q-15 3 -15 19z" />
<glyph unicode="|" horiz-adv-x="326" d="M130 -425v1984q0 16 15 16h26q15 0 15 -16v-1984q0 -15 -13 -15h-29q-14 0 -14 15z" />
<glyph unicode="}" horiz-adv-x="663" d="M60 -396v-22q0 -14 5 -18t19 -4h119q50 0 91.5 17t71.5 49.5t47 80.5t17 110l2 529q0 68 34 107t82 52q15 3 15 19v52q0 10 -4 13.5t-15 5.5q-25 5 -45.5 18.5t-35.5 33t-23 44t-8 51.5v454q0 56 -17 101.5t-47.5 77.5t-72.5 49.5t-92 17.5h-119q-14 0 -19 -4t-5 -18v-22 q0 -15 4.5 -19t19.5 -4h107q51 0 84 -18.5t52.5 -48t27 -66t7.5 -73.5v-449q0 -54 28.5 -96t73.5 -62q11 -5 11 -13t-11 -13q-47 -20 -74.5 -66t-27.5 -99v-539q0 -35 -7.5 -71t-26.5 -66t-52 -49t-85 -19h-107q-15 0 -19.5 -4t-4.5 -19z" />
<glyph unicode="&#xa1;" horiz-adv-x="382" d="M141 1013q0 13 4 19.5t18 6.5h52q14 0 18.5 -6.5t4.5 -19.5l-3 -117q0 -26 -23 -26h-46q-23 0 -23 26zM148 634q0 15 5.5 18.5t18.5 3.5h36q13 0 18 -3.5t5 -18.5l-10 -996q0 -8 -4.5 -14.5t-15.5 -6.5h-22q-11 0 -16 6.5t-5 14.5z" />
<glyph unicode="&#xa3;" horiz-adv-x="1079" d="M90 25l2 79q0 16 7 21.5t15 11.5q44 31 84 83t66 119t35 146.5t-9 166.5q-3 15 -20 15h-148q-21 0 -21 22l1 34q0 10 4 14t18 4h99q12 0 17.5 7.5t-2.5 15.5q-17 25 -37.5 58.5t-38.5 73.5t-30 84.5t-12 92.5q0 66 19 119t51.5 94t75 70.5t89.5 48.5t94.5 28t90.5 9 q75 0 142.5 -20t121.5 -60t92 -99.5t55 -137.5q2 -11 -1.5 -18.5t-16.5 -7.5h-40q-15 0 -19 7t-6 18q-12 52 -37.5 98t-67.5 80t-101.5 53t-138.5 17q-51 -1 -108 -19t-105 -54t-79.5 -92t-31.5 -133q0 -49 13 -93t33.5 -84.5t44.5 -77t45 -69.5q6 -7 17 -9h256 q10 0 16 -3.5t6 -15.5l1 -35q1 -12 -4.5 -16t-14.5 -4h-213q-9 0 -16 -7t-4 -19q14 -102 1 -189t-40.5 -155.5t-63.5 -117t-69 -72.5q-9 -9 -7 -16t16 -7h747q14 0 19 -4.5t6 -16.5l1 -37q0 -12 -4 -19t-20 -7h-844q-15 0 -23 5.5t-8 19.5z" />
<glyph unicode="&#xa5;" horiz-adv-x="1118" d="M57 1420q-5 8 1 15t23 7h33q15 0 24 -14l400 -602q3 -4 7.5 -7t9.5 -3t9.5 3t6.5 7l401 600q5 8 11 12t18 4h35q14 0 19 -7.5t-1 -16.5l-453 -684q-2 -5 -4 -9.5t-2 -9.5v-28h197q21 0 21 -19v-29q-1 -19 -19 -20h-198l1 -122h195q21 0 21 -19v-29q-1 -19 -19 -20h-197 l5 -403q0 -8 -5.5 -17t-20.5 -9h-41q-15 0 -20.5 9t-5.5 17l2 403h-194q-21 0 -21 20v27q0 21 21 21h195v122h-195q-21 0 -21 20v27q0 21 21 21h196v28q0 11 -5 19z" />
<glyph unicode="&#xa8;" horiz-adv-x="424" d="M51 1307l2 118q0 17 15 17h34q7 0 10.5 -5t3.5 -13l3 -117q0 -8 -5.5 -12t-13.5 -4h-30q-8 0 -13.5 4t-5.5 12zM301 1307l2 118q0 17 15 17h34q7 0 10.5 -5t3.5 -13l3 -117q0 -8 -5.5 -12t-13.5 -4h-30q-8 0 -13.5 4t-5.5 12z" />
<glyph unicode="&#xa9;" horiz-adv-x="1608" d="M60 732q0 102 26.5 196.5t74.5 176.5t115.5 149.5t149.5 115.5t176.5 74.5t196.5 26.5t196.5 -26.5t176.5 -74.5t149.5 -115.5t115.5 -149.5t74.5 -176.5t26.5 -196.5t-26.5 -196.5t-74.5 -176.5t-115.5 -149.5t-149.5 -115.5t-176.5 -74.5t-196.5 -26.5t-196.5 26.5 t-176.5 74.5t-149.5 115.5t-115.5 149.5t-74.5 176.5t-26.5 196.5zM128 732q0 -139 52.5 -261.5t143.5 -213.5t213.5 -143.5t261.5 -52.5t261.5 52.5t213.5 143.5t143.5 213.5t52.5 261.5t-52.5 261.5t-143.5 213.5t-213.5 143.5t-261.5 52.5t-261.5 -52.5t-213.5 -143.5 t-143.5 -213.5t-52.5 -261.5zM428 731q0 95 31 173t83.5 133t122 85t146.5 30q51 0 99 -12.5t90 -37.5t76.5 -61t57.5 -82q7 -14 1 -21.5t-20 -7.5h-27q-17 0 -25 15q-34 66 -99 105t-153 39q-72 0 -130.5 -30t-99.5 -79t-63.5 -112t-22.5 -130q0 -77 24 -142.5t66 -113.5 t100 -75.5t126 -27.5q42 0 82.5 12t76 35t64.5 58t47 80q7 18 24 18h26q17 0 20 -8t0 -22q-12 -39 -40 -82t-71 -78t-100.5 -58t-128.5 -23q-78 0 -147.5 30t-122 85.5t-83 132.5t-30.5 172z" />
<glyph unicode="&#xab;" horiz-adv-x="794" d="M110 547v37q0 7 3 12.5t12 10.5l248 157q9 5 15.5 0t6.5 -15v-24q0 -11 -3 -15.5t-12 -10.5l-193 -123q-14 -11 0 -20l193 -137q10 -8 12.5 -13.5t2.5 -16.5v-22q0 -11 -6.5 -16.5t-15.5 -0.5l-248 175q-9 5 -12 9.5t-3 12.5zM394 547v37q0 7 3 12.5t12 10.5l248 157 q9 5 15.5 0t6.5 -15v-24q0 -11 -3 -15.5t-12 -10.5l-193 -123q-14 -11 0 -20l193 -137q10 -8 12.5 -13.5t2.5 -16.5v-22q0 -11 -6.5 -16.5t-15.5 -0.5l-248 175q-9 5 -12 9.5t-3 12.5z" />
<glyph unicode="&#xad;" horiz-adv-x="722" d="M100 571v27q0 21 21 21h475q21 0 21 -19v-29q-1 -19 -19 -20h-477q-21 0 -21 20z" />
<glyph unicode="&#xae;" horiz-adv-x="660" d="M90 1206q0 49 18.5 92.5t50.5 75t75 50t92 18.5t91.5 -18.5t74 -50t50 -75t18.5 -92.5t-18.5 -91.5t-50 -74t-74 -49.5t-91.5 -18t-92 18t-75 49.5t-50.5 74t-18.5 91.5zM147 1206q0 -36 14 -68.5t38.5 -56.5t57 -38t69.5 -14q36 0 68.5 14t57 38t38.5 56.5t14 68.5 q0 37 -14 70t-38.5 57t-57 38t-68.5 14q-37 0 -69.5 -14t-57 -38t-38.5 -57t-14 -70zM243 1107l3 207q0 4 2 4h84q26 0 48 -17t22 -49q0 -23 -14.5 -38t-33.5 -17q-5 0 -2 -3l72 -85q2 -5 -2 -5h-32q-3 0 -5 1l-65 81q0 2 -2 2h-39q-3 0 -3 -5v-76q0 -3 -2 -3h-28q-3 0 -3 3 zM276 1219q0 -4 3 -4h49q42 0 42 38q0 17 -13 26.5t-30 9.5h-48q-3 0 -3 -2v-68z" />
<glyph unicode="&#xb0;" horiz-adv-x="660" d="M90 1206q0 49 18.5 92.5t50.5 75t75 50t92 18.5t91.5 -18.5t74 -50t50 -75t18.5 -92.5t-18.5 -91.5t-50 -74t-74 -49.5t-91.5 -18t-92 18t-75 49.5t-50.5 74t-18.5 91.5zM147 1206q0 -36 14 -68.5t38.5 -56.5t57 -38t69.5 -14q36 0 68.5 14t57 38t38.5 56.5t14 68.5 q0 37 -14 70t-38.5 57t-57 38t-68.5 14q-37 0 -69.5 -14t-57 -38t-38.5 -57t-14 -70z" />
<glyph unicode="&#xb4;" horiz-adv-x="314" d="M50 1245q-1 6 3 12l111 171q8 14 24 14h51q13 0 18 -9.5t-3 -17.5l-178 -179q-6 -5 -11.5 -5t-9.5 4t-5 10z" />
<glyph unicode="&#xb6;" horiz-adv-x="1081" d="M100 932q0 67 12 131t40 120.5t75 104t117.5 82t166 53.5t221.5 19h239v-1882h-121v1740h-154v-1740h-115v931q-50 0 -104.5 12t-108 36.5t-102 61.5t-85.5 86t-59 110t-22 135z" />
<glyph unicode="&#xb8;" horiz-adv-x="496" d="M101 -326q-2 14 1.5 17t14.5 3h15q16 0 19 -12q8 -37 34 -53.5t55 -16.5q30 0 48.5 13t29 32t14.5 40.5t4 37.5q0 17 -4 34t-14 31t-25.5 23t-37.5 11q-14 1 -19.5 -5t-15.5 -6q-8 0 -10.5 5.5t-2.5 13.5l4 132q1 16 -9.5 18.5t-17.5 4.5l14 27h79l14 -25 q-12 -1 -19.5 -6.5t-7.5 -19.5l1 -78q0 -16 14 -19q28 -5 48.5 -19.5t33.5 -34.5t19 -42.5t6 -44.5q0 -31 -8.5 -61.5t-26 -55t-45 -40t-66.5 -15.5q-29 0 -53 9.5t-42 25.5t-29.5 35.5t-14.5 40.5z" />
<glyph unicode="&#xbb;" horiz-adv-x="794" d="M110 367q0 -11 6.5 -16.5t15.5 -0.5l248 175q9 5 12 9.5t3 12.5v37q0 7 -3 12.5t-12 10.5l-248 157q-9 5 -15.5 0t-6.5 -15v-24q0 -11 3 -15.5t12 -10.5l193 -123q14 -11 0 -20l-193 -137q-10 -8 -12.5 -13.5t-2.5 -16.5v-22zM394 367q0 -11 6.5 -16.5t15.5 -0.5l248 175 q9 5 12 9.5t3 12.5v37q0 7 -3 12.5t-12 10.5l-248 157q-9 5 -15.5 0t-6.5 -15v-24q0 -11 3 -15.5t12 -10.5l193 -123q14 -11 0 -20l-193 -137q-10 -8 -12.5 -13.5t-2.5 -16.5v-22z" />
<glyph unicode="&#xbf;" horiz-adv-x="1050" d="M80 -39q0 71 17.5 127t47.5 101t70 81t85 67t93 59.5t93 58.5q10 7 10 17l-2 170q0 14 5 18.5t17 5.5h35q15 0 20.5 -5t5.5 -19l-2 -198q0 -21 -18 -31q-83 -51 -156 -97t-127.5 -97t-86 -113t-31.5 -144q0 -61 23.5 -118t67.5 -100.5t107 -69.5t142 -26q70 0 131 21 t110.5 59t85.5 91t55 116q5 15 11.5 20t20.5 5h25q17 0 22.5 -5t-1.5 -27q-27 -94 -77 -160.5t-112.5 -108.5t-133.5 -61.5t-141 -19.5q-92 0 -168 30.5t-130 83t-84 122t-30 147.5zM486 1013q0 13 4 19.5t18 6.5h52q14 0 18.5 -6.5t4.5 -19.5l-3 -117q0 -26 -23 -26h-46 q-23 0 -23 26z" />
<glyph unicode="&#xc0;" d="M63 11.5q-1 11.5 2 19.5l567 1400q2 4 6 7.5t11 3.5h40q7 0 11 -3.5t6 -7.5l561 -1400q5 -11 2 -21.5t-15 -9.5h-44q-11 0 -16 6t-10 17l-175 446q-5 13 -12.5 18t-21.5 5h-616q-11 0 -19.5 -4.5t-13.5 -16.5l-177 -448q-8 -23 -25 -23h-46q-14 0 -15 11.5zM377 605 q-13 -36 19 -36h544q18 0 20.5 11t-1.5 25l-274 701q-5 14 -16.5 12.5t-15.5 -12.5zM501 1818.5q5 9.5 18 9.5h51q16 0 24 -14l111 -171q4 -6 3 -12t-5 -10t-9.5 -4t-11.5 5l-178 179q-8 8 -3 17.5z" />
<glyph unicode="&#xc1;" d="M63 11.5q-1 11.5 2 19.5l567 1400q2 4 6 7.5t11 3.5h40q7 0 11 -3.5t6 -7.5l561 -1400q5 -11 2 -21.5t-15 -9.5h-44q-11 0 -16 6t-10 17l-175 446q-5 13 -12.5 18t-21.5 5h-616q-11 0 -19.5 -4.5t-13.5 -16.5l-177 -448q-8 -23 -25 -23h-46q-14 0 -15 11.5zM377 605 q-13 -36 19 -36h544q18 0 20.5 11t-1.5 25l-274 701q-5 14 -16.5 12.5t-15.5 -12.5zM640 1631q-1 6 3 12l111 171q8 14 24 14h51q13 0 18 -9.5t-3 -17.5l-178 -179q-6 -5 -11.5 -5t-9.5 4t-5 10z" />
<glyph unicode="&#xc2;" d="M63 11.5q-1 11.5 2 19.5l567 1400q2 4 6 7.5t11 3.5h40q7 0 11 -3.5t6 -7.5l561 -1400q5 -11 2 -21.5t-15 -9.5h-44q-11 0 -16 6t-10 17l-175 446q-5 13 -12.5 18t-21.5 5h-616q-11 0 -19.5 -4.5t-13.5 -16.5l-177 -448q-8 -23 -25 -23h-46q-14 0 -15 11.5zM377 605 q-13 -36 19 -36h544q18 0 20.5 11t-1.5 25l-274 701q-5 14 -16.5 12.5t-15.5 -12.5zM464 1629.5q-1 11.5 12 24.5l157 163q10 11 26 11h24q14 0 25 -11l161 -163q13 -13 12 -24.5t-18 -11.5h-46q-17 0 -29 16l-109 153q-7 8 -14 0l-108 -153q-12 -16 -29 -16h-46 q-17 0 -18 11.5z" />
<glyph unicode="&#xc3;" d="M63 11.5q-1 11.5 2 19.5l567 1400q2 4 6 7.5t11 3.5h40q7 0 11 -3.5t6 -7.5l561 -1400q5 -11 2 -21.5t-15 -9.5h-44q-11 0 -16 6t-10 17l-175 446q-5 13 -12.5 18t-21.5 5h-616q-11 0 -19.5 -4.5t-13.5 -16.5l-177 -448q-8 -23 -25 -23h-46q-14 0 -15 11.5zM377 605 q-13 -36 19 -36h544q18 0 20.5 11t-1.5 25l-274 701q-5 14 -16.5 12.5t-15.5 -12.5zM430 1598q1 21 10 45t25.5 43.5t41 32.5t57.5 13q36 0 61 -15.5t47 -33.5t45.5 -33.5t58.5 -15.5q22 0 39.5 7.5t31 18t22.5 22.5t15 21q5 10 14 6.5t7 -14.5q-8 -59 -41 -92t-90 -33 q-32 0 -57.5 15t-49 33.5t-48 33.5t-54.5 15q-35 0 -59.5 -16.5t-52.5 -56.5q-5 -8 -14.5 -7.5t-8.5 11.5z" />
<glyph unicode="&#xc4;" d="M63 11.5q-1 11.5 2 19.5l567 1400q2 4 6 7.5t11 3.5h40q7 0 11 -3.5t6 -7.5l561 -1400q5 -11 2 -21.5t-15 -9.5h-44q-11 0 -16 6t-10 17l-175 446q-5 13 -12.5 18t-21.5 5h-616q-11 0 -19.5 -4.5t-13.5 -16.5l-177 -448q-8 -23 -25 -23h-46q-14 0 -15 11.5zM377 605 q-13 -36 19 -36h544q18 0 20.5 11t-1.5 25l-274 701q-5 14 -16.5 12.5t-15.5 -12.5zM513 1621l2 118q0 17 15 17h34q7 0 10.5 -5t3.5 -13l3 -117q0 -8 -5.5 -12t-13.5 -4h-30q-8 0 -13.5 4t-5.5 12zM764 1621l2 118q0 17 15 17h34q7 0 10.5 -5t3.5 -13l3 -117q0 -8 -5.5 -12 t-13.5 -4h-30q-8 0 -13.5 4t-5.5 12z" />
<glyph unicode="&#xc5;" d="M63 11.5q-1 11.5 2 19.5l567 1400q2 4 6 7.5t11 3.5h40q7 0 11 -3.5t6 -7.5l561 -1400q5 -11 2 -21.5t-15 -9.5h-44q-11 0 -16 6t-10 17l-175 446q-5 13 -12.5 18t-21.5 5h-616q-11 0 -19.5 -4.5t-13.5 -16.5l-177 -448q-8 -23 -25 -23h-46q-14 0 -15 11.5zM377 605 q-13 -36 19 -36h544q18 0 20.5 11t-1.5 25l-274 701q-5 14 -16.5 12.5t-15.5 -12.5zM517 1666q0 32 12 60t33 49t48.5 33t59.5 12q33 0 61 -12t48.5 -33t32.5 -49t12 -60t-12 -59.5t-32.5 -48t-48.5 -32.5t-61 -12q-32 0 -59.5 12t-48.5 32.5t-33 48t-12 59.5zM574 1666 q0 -44 26 -70t70 -26q45 0 71.5 26t26.5 70q0 45 -26.5 71t-71.5 26q-44 0 -70 -26t-26 -71z" />
<glyph unicode="&#xc6;" horiz-adv-x="1561" d="M61.5 6q-3.5 6 0.5 15l584 1410q2 4 6 7.5t11 3.5h768q11 0 14 -4.5t3 -14.5v-37q0 -5 -2 -11.5t-13 -6.5h-695q-19 -1 -17 -15l98 -520q6 -13 19 -13h540q18 0 18 -19l1 -37q0 -11 -4.5 -14.5t-14.5 -3.5h-520q-9 0 -14 -4.5t-5 -10.5l122 -634q5 -11 18 -11h490 q15 0 20 -6t5 -12l2 -45q0 -15 -6.5 -19t-16.5 -4h-560q-22 0 -26 23l-83 451q-3 18 -23 18h-429q-17 0 -23 -15l-183 -461q-5 -16 -19 -16h-48q-14 0 -17.5 6zM374 595q-12 -26 15 -26h384q11 0 13 7t0 20l-118 693q-2 11 -10 9t-11 -11z" />
<glyph unicode="&#xc7;" horiz-adv-x="1397" d="M60 728q0 156 45 290.5t129 233.5t205 155t273 56q114 0 206.5 -27.5t165 -77.5t125 -120.5t87.5 -157.5q7 -17 5.5 -30.5t-18.5 -13.5h-33q-14 0 -20 5t-12 18q-29 63 -70 122.5t-100.5 106t-141.5 75t-194 28.5q-121 0 -225 -46.5t-180.5 -131.5t-120 -204t-43.5 -264 q0 -140 40 -262.5t114 -214t179 -144.5t236 -53q105 0 191 34t153 90t114 128.5t74 150.5q5 11 9 17.5t17 6.5h42q19 0 19.5 -13t-3.5 -24q-42 -121 -103 -205t-133 -138.5t-153 -83.5t-164 -39q-18 -3 -19 -14q-2 -15 -3 -42.5t0 -48.5q0 -11 15 -14q28 -5 48.5 -20 t33.5 -35.5t19 -43.5t6 -45q0 -31 -8.5 -61.5t-26 -55t-45 -40t-66.5 -15.5q-29 0 -53 9.5t-42 25.5t-29.5 35.5t-14.5 40.5q-2 14 1.5 17t14.5 3h15q16 0 19 -12q8 -37 34 -53.5t55 -16.5q30 0 48.5 13t29 32t14.5 40t4 38t-4 34.5t-14 32t-25.5 24t-37.5 11.5 q-14 1 -19.5 -5t-15.5 -6q-8 0 -10.5 5.5t-2.5 13.5l3 133q0 9 -4.5 13.5t-10.5 5.5q-101 3 -186.5 33t-155 81t-122.5 119.5t-88.5 148.5t-53.5 169.5t-18 182.5z" />
<glyph unicode="&#xc8;" horiz-adv-x="1085" d="M103 26l7 1394q0 22 17 22h821q13 0 16 -6t4 -16v-31q0 -5 -2 -13t-16 -8h-748q-11 -1 -15 -5t-4 -14l3 -515q0 -21 20 -21h679q9 0 15 -4.5t6 -17.5l1 -32q0 -13 -6 -17.5t-16 -4.5h-680q-11 0 -15 -5.5t-4 -12.5l4 -614q0 -19 20 -19h755q15 0 21.5 -7.5t6.5 -13.5 l2 -39q0 -15 -8 -20.5t-18 -5.5h-840q-15 0 -20.5 9t-5.5 17zM379 1818.5q5 9.5 18 9.5h51q16 0 24 -14l111 -171q4 -6 3 -12t-5 -10t-9.5 -4t-11.5 5l-178 179q-8 8 -3 17.5z" />
<glyph unicode="&#xc9;" horiz-adv-x="1085" d="M103 26l7 1394q0 22 17 22h821q13 0 16 -6t4 -16v-31q0 -5 -2 -13t-16 -8h-748q-11 -1 -15 -5t-4 -14l3 -515q0 -21 20 -21h679q9 0 15 -4.5t6 -17.5l1 -32q0 -13 -6 -17.5t-16 -4.5h-680q-11 0 -15 -5.5t-4 -12.5l4 -614q0 -19 20 -19h755q15 0 21.5 -7.5t6.5 -13.5 l2 -39q0 -15 -8 -20.5t-18 -5.5h-840q-15 0 -20.5 9t-5.5 17zM534 1631q-1 6 3 12l111 171q8 14 24 14h51q13 0 18 -9.5t-3 -17.5l-178 -179q-6 -5 -11.5 -5t-9.5 4t-5 10z" />
<glyph unicode="&#xca;" horiz-adv-x="1085" d="M103 26l7 1394q0 22 17 22h821q13 0 16 -6t4 -16v-31q0 -5 -2 -13t-16 -8h-748q-11 -1 -15 -5t-4 -14l3 -515q0 -21 20 -21h679q9 0 15 -4.5t6 -17.5l1 -32q0 -13 -6 -17.5t-16 -4.5h-680q-11 0 -15 -5.5t-4 -12.5l4 -614q0 -19 20 -19h755q15 0 21.5 -7.5t6.5 -13.5 l2 -39q0 -15 -8 -20.5t-18 -5.5h-840q-15 0 -20.5 9t-5.5 17zM343 1629.5q-1 11.5 12 24.5l157 163q10 11 26 11h24q14 0 25 -11l161 -163q13 -13 12 -24.5t-18 -11.5h-46q-17 0 -29 16l-109 153q-7 8 -14 0l-108 -153q-12 -16 -29 -16h-46q-17 0 -18 11.5z" />
<glyph unicode="&#xcb;" horiz-adv-x="1085" d="M103 26l7 1394q0 22 17 22h821q13 0 16 -6t4 -16v-31q0 -5 -2 -13t-16 -8h-748q-11 -1 -15 -5t-4 -14l3 -515q0 -21 20 -21h679q9 0 15 -4.5t6 -17.5l1 -32q0 -13 -6 -17.5t-16 -4.5h-680q-11 0 -15 -5.5t-4 -12.5l4 -614q0 -19 20 -19h755q15 0 21.5 -7.5t6.5 -13.5 l2 -39q0 -15 -8 -20.5t-18 -5.5h-840q-15 0 -20.5 9t-5.5 17zM376 1621l2 118q0 17 15 17h34q7 0 10.5 -5t3.5 -13l3 -117q0 -8 -5.5 -12t-13.5 -4h-30q-8 0 -13.5 4t-5.5 12zM627 1621l2 118q0 17 15 17h34q7 0 10.5 -5t3.5 -13l3 -117q0 -8 -5.5 -12t-13.5 -4h-30 q-8 0 -13.5 4t-5.5 12z" />
<glyph unicode="&#xcc;" horiz-adv-x="514" d="M152 1818.5q5 9.5 18 9.5h51q16 0 24 -14l111 -171q4 -6 3 -12t-5 -10t-9.5 -4t-11.5 5l-178 179q-8 8 -3 17.5zM250 26l7 1394q0 22 17 22h40q16 0 16 -22l7 -1394q0 -8 -5.5 -17t-20.5 -9h-35q-15 0 -20.5 9t-5.5 17z" />
<glyph unicode="&#xcd;" horiz-adv-x="530" d="M153 26l7 1394q0 22 17 22h40q16 0 16 -22l7 -1394q0 -8 -5.5 -17t-20.5 -9h-35q-15 0 -20.5 9t-5.5 17zM166 1631q-1 6 3 12l111 171q8 14 24 14h51q13 0 18 -9.5t-3 -17.5l-178 -179q-6 -5 -11.5 -5t-9.5 4t-5 10z" />
<glyph unicode="&#xce;" horiz-adv-x="722" d="M151 1629.5q-1 11.5 12 24.5l157 163q10 11 26 11h24q14 0 25 -11l161 -163q13 -13 12 -24.5t-18 -11.5h-46q-17 0 -29 16l-109 153q-7 8 -14 0l-108 -153q-12 -16 -29 -16h-46q-17 0 -18 11.5zM314 26l7 1394q0 22 17 22h40q16 0 16 -22l7 -1394q0 -8 -5.5 -17t-20.5 -9 h-35q-15 0 -20.5 9t-5.5 17z" />
<glyph unicode="&#xcf;" horiz-adv-x="624" d="M150 1621l2 118q0 17 15 17h34q7 0 10.5 -5t3.5 -13l3 -117q0 -8 -5.5 -12t-13.5 -4h-30q-8 0 -13.5 4t-5.5 12zM257 26l7 1394q0 22 17 22h40q16 0 16 -22l7 -1394q0 -8 -5.5 -17t-20.5 -9h-35q-15 0 -20.5 9t-5.5 17zM401 1621l2 118q0 17 15 17h34q7 0 10.5 -5 t3.5 -13l3 -117q0 -8 -5.5 -12t-13.5 -4h-30q-8 0 -13.5 4t-5.5 12z" />
<glyph unicode="&#xd1;" horiz-adv-x="1273" d="M103 26l7 1394q0 22 17 22h59q16 0 26 -13l845 -1275q5 -7 12 -4.5t7 11.5l7 1259q0 22 17 22h40q16 0 16 -22l7 -1394q0 -8 -5.5 -17t-20.5 -9h-59q-11 0 -16.5 4t-9.5 9l-850 1302q-4 6 -11 4.5t-7 -9.5l6 -1284q0 -8 -5.5 -17t-20.5 -9h-35q-15 0 -20.5 9t-5.5 17z M432 1598q1 21 10 45t25.5 43.5t41 32.5t57.5 13q36 0 61 -15.5t47 -33.5t45.5 -33.5t58.5 -15.5q22 0 39.5 7.5t31 18t22.5 22.5t15 21q5 10 14 6.5t7 -14.5q-8 -59 -41 -92t-90 -33q-32 0 -57.5 15t-49 33.5t-48 33.5t-54.5 15q-35 0 -59.5 -16.5t-52.5 -56.5 q-5 -8 -14.5 -7.5t-8.5 11.5z" />
<glyph unicode="&#xd2;" horiz-adv-x="1471" d="M61 745q0 156 47.5 288t135 227.5t212 149t277.5 53.5q151 0 274.5 -54t211 -149.5t135 -227t47.5 -285.5q0 -161 -46 -299t-132.5 -239t-211.5 -158.5t-283 -57.5q-103 0 -192.5 26t-163.5 74t-132 115.5t-97.5 151t-60.5 181t-21 204.5zM148 745q0 -157 44 -282 t122 -212t185 -133.5t232 -46.5q123 0 229.5 45.5t185 132t123.5 212t45 284.5q0 153 -46.5 273.5t-126 203t-185.5 126t-225 43.5q-116 0 -221.5 -42t-186 -124t-128 -202.5t-47.5 -277.5zM646 1818.5q5 9.5 18 9.5h51q16 0 24 -14l111 -171q4 -6 3 -12t-5 -10t-9.5 -4 t-11.5 5l-178 179q-8 8 -3 17.5z" />
<glyph unicode="&#xd3;" horiz-adv-x="1471" d="M61 745q0 156 47.5 288t135 227.5t212 149t277.5 53.5q151 0 274.5 -54t211 -149.5t135 -227t47.5 -285.5q0 -161 -46 -299t-132.5 -239t-211.5 -158.5t-283 -57.5q-103 0 -192.5 26t-163.5 74t-132 115.5t-97.5 151t-60.5 181t-21 204.5zM148 745q0 -157 44 -282 t122 -212t185 -133.5t232 -46.5q123 0 229.5 45.5t185 132t123.5 212t45 284.5q0 153 -46.5 273.5t-126 203t-185.5 126t-225 43.5q-116 0 -221.5 -42t-186 -124t-128 -202.5t-47.5 -277.5zM632 1631q-1 6 3 12l111 171q8 14 24 14h51q13 0 18 -9.5t-3 -17.5l-178 -179 q-6 -5 -11.5 -5t-9.5 4t-5 10z" />
<glyph unicode="&#xd4;" horiz-adv-x="1471" d="M61 745q0 156 47.5 288t135 227.5t212 149t277.5 53.5q151 0 274.5 -54t211 -149.5t135 -227t47.5 -285.5q0 -161 -46 -299t-132.5 -239t-211.5 -158.5t-283 -57.5q-103 0 -192.5 26t-163.5 74t-132 115.5t-97.5 151t-60.5 181t-21 204.5zM148 745q0 -157 44 -282 t122 -212t185 -133.5t232 -46.5q123 0 229.5 45.5t185 132t123.5 212t45 284.5q0 153 -46.5 273.5t-126 203t-185.5 126t-225 43.5q-116 0 -221.5 -42t-186 -124t-128 -202.5t-47.5 -277.5zM519 1629.5q-1 11.5 12 24.5l157 163q10 11 26 11h24q14 0 25 -11l161 -163 q13 -13 12 -24.5t-18 -11.5h-46q-17 0 -29 16l-109 153q-7 8 -14 0l-108 -153q-12 -16 -29 -16h-46q-17 0 -18 11.5z" />
<glyph unicode="&#xd5;" horiz-adv-x="1471" d="M61 745q0 156 47.5 288t135 227.5t212 149t277.5 53.5q151 0 274.5 -54t211 -149.5t135 -227t47.5 -285.5q0 -161 -46 -299t-132.5 -239t-211.5 -158.5t-283 -57.5q-103 0 -192.5 26t-163.5 74t-132 115.5t-97.5 151t-60.5 181t-21 204.5zM148 745q0 -157 44 -282 t122 -212t185 -133.5t232 -46.5q123 0 229.5 45.5t185 132t123.5 212t45 284.5q0 153 -46.5 273.5t-126 203t-185.5 126t-225 43.5q-116 0 -221.5 -42t-186 -124t-128 -202.5t-47.5 -277.5zM497 1599q1 21 10 45t25.5 43.5t41 32.5t57.5 13q36 0 61 -15.5t47 -33.5 t45.5 -33.5t58.5 -15.5q22 0 39.5 7.5t31 18t22.5 22.5t15 21q5 10 14 6.5t7 -14.5q-8 -59 -41 -92t-90 -33q-32 0 -57.5 15t-49 33.5t-48 33.5t-54.5 15q-35 0 -59.5 -16.5t-52.5 -56.5q-5 -8 -14.5 -7.5t-8.5 11.5z" />
<glyph unicode="&#xd6;" horiz-adv-x="1471" d="M61 745q0 156 47.5 288t135 227.5t212 149t277.5 53.5q151 0 274.5 -54t211 -149.5t135 -227t47.5 -285.5q0 -161 -46 -299t-132.5 -239t-211.5 -158.5t-283 -57.5q-103 0 -192.5 26t-163.5 74t-132 115.5t-97.5 151t-60.5 181t-21 204.5zM148 745q0 -157 44 -282 t122 -212t185 -133.5t232 -46.5q123 0 229.5 45.5t185 132t123.5 212t45 284.5q0 153 -46.5 273.5t-126 203t-185.5 126t-225 43.5q-116 0 -221.5 -42t-186 -124t-128 -202.5t-47.5 -277.5zM569 1621l2 118q0 17 15 17h34q7 0 10.5 -5t3.5 -13l3 -117q0 -8 -5.5 -12 t-13.5 -4h-30q-8 0 -13.5 4t-5.5 12zM820 1621l2 118q0 17 15 17h34q7 0 10.5 -5t3.5 -13l3 -117q0 -8 -5.5 -12t-13.5 -4h-30q-8 0 -13.5 4t-5.5 12z" />
<glyph unicode="&#xd8;" horiz-adv-x="1471" d="M65 745q0 156 47 288t134 227.5t210.5 149t276.5 53.5q132 0 240.5 -40.5t193.5 -114.5l107 128q9 11 21 1l30 -26q11 -10 2 -21l-110 -132q86 -96 132.5 -226t46.5 -285q0 -161 -45 -299t-131 -239t-210 -158t-282 -57q-134 0 -243 42.5t-193 120.5l-127 -152 q-9 -10 -18 -1l-33 28q-11 9 -2 19l131 156q-87 102 -132.5 239t-45.5 299zM148 745q0 -149 39 -268t110 -206l818 976q-78 71 -176 107.5t-208 36.5q-116 0 -221.5 -42t-186 -124t-128 -202.5t-47.5 -277.5zM345 219q76 -72 174 -110t212 -38q123 0 229.5 45.5t185 132 t123.5 212t45 284.5q0 143 -40 256t-110 195z" />
<glyph unicode="&#xd9;" horiz-adv-x="1277" d="M103 614l4 806q0 22 17 22h40q16 0 16 -22l4 -780q1 -141 37.5 -247.5t98.5 -178t143.5 -107.5t172.5 -36q93 0 175 36.5t143.5 108.5t97 180.5t36.5 252.5l4 771q0 22 17 22h40q16 0 16 -22l4 -795q1 -138 -36.5 -254t-107 -200t-168 -131t-221.5 -47 q-122 0 -220.5 45.5t-168.5 127.5t-107.5 196t-36.5 252zM521 1818.5q5 9.5 18 9.5h51q16 0 24 -14l111 -171q4 -6 3 -12t-5 -10t-9.5 -4t-11.5 5l-178 179q-8 8 -3 17.5z" />
<glyph unicode="&#xda;" horiz-adv-x="1277" d="M103 614l4 806q0 22 17 22h40q16 0 16 -22l4 -780q1 -141 37.5 -247.5t98.5 -178t143.5 -107.5t172.5 -36q93 0 175 36.5t143.5 108.5t97 180.5t36.5 252.5l4 771q0 22 17 22h40q16 0 16 -22l4 -795q1 -138 -36.5 -254t-107 -200t-168 -131t-221.5 -47 q-122 0 -220.5 45.5t-168.5 127.5t-107.5 196t-36.5 252zM554 1631q-1 6 3 12l111 171q8 14 24 14h51q13 0 18 -9.5t-3 -17.5l-178 -179q-6 -5 -11.5 -5t-9.5 4t-5 10z" />
<glyph unicode="&#xdb;" horiz-adv-x="1277" d="M103 614l4 806q0 22 17 22h40q16 0 16 -22l4 -780q1 -141 37.5 -247.5t98.5 -178t143.5 -107.5t172.5 -36q93 0 175 36.5t143.5 108.5t97 180.5t36.5 252.5l4 771q0 22 17 22h40q16 0 16 -22l4 -795q1 -138 -36.5 -254t-107 -200t-168 -131t-221.5 -47 q-122 0 -220.5 45.5t-168.5 127.5t-107.5 196t-36.5 252zM428 1629.5q-1 11.5 12 24.5l157 163q10 11 26 11h24q14 0 25 -11l161 -163q13 -13 12 -24.5t-18 -11.5h-46q-17 0 -29 16l-109 153q-7 8 -14 0l-108 -153q-12 -16 -29 -16h-46q-17 0 -18 11.5z" />
<glyph unicode="&#xdc;" horiz-adv-x="1277" d="M103 614l4 806q0 22 17 22h40q16 0 16 -22l4 -780q1 -141 37.5 -247.5t98.5 -178t143.5 -107.5t172.5 -36q93 0 175 36.5t143.5 108.5t97 180.5t36.5 252.5l4 771q0 22 17 22h40q16 0 16 -22l4 -795q1 -138 -36.5 -254t-107 -200t-168 -131t-221.5 -47 q-122 0 -220.5 45.5t-168.5 127.5t-107.5 196t-36.5 252zM475 1621l2 118q0 17 15 17h34q7 0 10.5 -5t3.5 -13l3 -117q0 -8 -5.5 -12t-13.5 -4h-30q-8 0 -13.5 4t-5.5 12zM726 1621l2 118q0 17 15 17h34q7 0 10.5 -5t3.5 -13l3 -117q0 -8 -5.5 -12t-13.5 -4h-30 q-8 0 -13.5 4t-5.5 12z" />
<glyph unicode="&#xdd;" horiz-adv-x="1118" d="M67 1420q-5 8 1 15t23 7h33q15 0 24 -14l390 -602q7 -9 17 -10t16 10l391 600q5 8 11 12t18 4h35q14 0 19 -7.5t-1 -16.5l-444 -684q-2 -5 -4 -9.5t-2 -9.5l4 -689q0 -8 -5.5 -17t-20.5 -9h-35q-15 0 -20.5 9t-5.5 17l3 689q0 11 -5 19zM530 1619q-1 6 3 12l111 171 q8 14 24 14h51q13 0 18 -9.5t-3 -17.5l-178 -179q-6 -5 -11.5 -5t-9.5 4t-5 10z" />
<glyph unicode="&#xdf;" horiz-adv-x="964" d="M98 26l5 1060q0 81 26 146.5t71.5 112t108 72t134.5 25.5q80 0 146.5 -23t114 -65.5t73.5 -102.5t26 -133q0 -55 -19 -104t-53.5 -89.5t-83 -70t-108.5 -44.5q-13 -3 -11.5 -10.5t14.5 -11.5q67 -18 125.5 -57.5t102 -92.5t68.5 -115.5t25 -125.5q-1 -98 -38 -173.5 t-99.5 -126.5t-145.5 -77.5t-174 -26.5q-15 0 -15 14v51q0 8 4 10.5t11 2.5q80 0 148 24.5t117.5 69t77.5 107t28 137.5q0 66 -33 129t-86 111.5t-119.5 78t-133.5 29.5q-5 0 -9.5 3t-4.5 10v56q0 14 14 14q62 0 120.5 19t104 55t72.5 88.5t27 120.5q0 49 -18 94.5t-55 80.5 t-94 55.5t-135 19.5q-59 -1 -105 -23.5t-77.5 -59t-48 -84.5t-16.5 -99l5 -1081q0 -8 -6 -17t-20 -9h-36q-13 0 -19 9t-6 17z" />
<glyph unicode="&#xe0;" horiz-adv-x="931" d="M66 263q-2 43 10 86.5t38.5 80.5t67 65t94.5 40q70 15 136 27.5t125.5 27.5t111 36t93.5 54q24 18 30 42t6 59q-2 42 -19.5 81.5t-52 70t-87 49t-124.5 19.5q-37 0 -82.5 -11.5t-88 -38t-78 -68.5t-52.5 -102q-5 -17 -9.5 -21.5t-16.5 -4.5l-36 1q-9 0 -13 9.5t-2 17.5 q12 67 51.5 119.5t93.5 88.5t116 55t118 19q66 0 129 -16t112 -51.5t79.5 -93.5t32.5 -142l4 -740q0 -22 -21 -22h-34q-10 0 -17 6t-7 16l1 126q0 8 -5.5 10t-10.5 -4q-42 -49 -89 -80.5t-95.5 -50t-95.5 -25t-87 -6.5q-69 1 -127 21.5t-101.5 56.5t-69 85.5t-28.5 107.5z M145 299q-1 -63 21.5 -108t60.5 -73.5t88.5 -41t105 -10.5t109.5 16.5t103.5 41t85.5 63t56 82.5v41t0.5 58.5t0.5 67.5t0.5 67.5t0.5 59v42.5q0 5 -2.5 10.5t-13.5 0.5q-29 -15 -54 -27t-51.5 -23.5t-57.5 -22t-71.5 -21.5t-93.5 -22.5t-123 -24.5q-46 -9 -77.5 -31 t-51 -48.5t-28 -52.5t-8.5 -44zM407 1432.5q5 9.5 18 9.5h51q16 0 24 -14l111 -171q4 -6 3 -12t-5 -10t-9.5 -4t-11.5 5l-178 179q-8 8 -3 17.5z" />
<glyph unicode="&#xe1;" horiz-adv-x="931" d="M66 263q-2 43 10 86.5t38.5 80.5t67 65t94.5 40q70 15 136 27.5t125.5 27.5t111 36t93.5 54q24 18 30 42t6 59q-2 42 -19.5 81.5t-52 70t-87 49t-124.5 19.5q-37 0 -82.5 -11.5t-88 -38t-78 -68.5t-52.5 -102q-5 -17 -9.5 -21.5t-16.5 -4.5l-36 1q-9 0 -13 9.5t-2 17.5 q12 67 51.5 119.5t93.5 88.5t116 55t118 19q66 0 129 -16t112 -51.5t79.5 -93.5t32.5 -142l4 -740q0 -22 -21 -22h-34q-10 0 -17 6t-7 16l1 126q0 8 -5.5 10t-10.5 -4q-42 -49 -89 -80.5t-95.5 -50t-95.5 -25t-87 -6.5q-69 1 -127 21.5t-101.5 56.5t-69 85.5t-28.5 107.5z M145 299q-1 -63 21.5 -108t60.5 -73.5t88.5 -41t105 -10.5t109.5 16.5t103.5 41t85.5 63t56 82.5v41t0.5 58.5t0.5 67.5t0.5 67.5t0.5 59v42.5q0 5 -2.5 10.5t-13.5 0.5q-29 -15 -54 -27t-51.5 -23.5t-57.5 -22t-71.5 -21.5t-93.5 -22.5t-123 -24.5q-46 -9 -77.5 -31 t-51 -48.5t-28 -52.5t-8.5 -44zM456 1245q-1 6 3 12l111 171q8 14 24 14h51q13 0 18 -9.5t-3 -17.5l-178 -179q-6 -5 -11.5 -5t-9.5 4t-5 10z" />
<glyph unicode="&#xe2;" horiz-adv-x="931" d="M66 263q-2 43 10 86.5t38.5 80.5t67 65t94.5 40q70 15 136 27.5t125.5 27.5t111 36t93.5 54q24 18 30 42t6 59q-2 42 -19.5 81.5t-52 70t-87 49t-124.5 19.5q-37 0 -82.5 -11.5t-88 -38t-78 -68.5t-52.5 -102q-5 -17 -9.5 -21.5t-16.5 -4.5l-36 1q-9 0 -13 9.5t-2 17.5 q12 67 51.5 119.5t93.5 88.5t116 55t118 19q66 0 129 -16t112 -51.5t79.5 -93.5t32.5 -142l4 -740q0 -22 -21 -22h-34q-10 0 -17 6t-7 16l1 126q0 8 -5.5 10t-10.5 -4q-42 -49 -89 -80.5t-95.5 -50t-95.5 -25t-87 -6.5q-69 1 -127 21.5t-101.5 56.5t-69 85.5t-28.5 107.5z M145 299q-1 -63 21.5 -108t60.5 -73.5t88.5 -41t105 -10.5t109.5 16.5t103.5 41t85.5 63t56 82.5v41t0.5 58.5t0.5 67.5t0.5 67.5t0.5 59v42.5q0 5 -2.5 10.5t-13.5 0.5q-29 -15 -54 -27t-51.5 -23.5t-57.5 -22t-71.5 -21.5t-93.5 -22.5t-123 -24.5q-46 -9 -77.5 -31 t-51 -48.5t-28 -52.5t-8.5 -44zM305 1244.5q-1 11.5 12 24.5l157 163q10 11 26 11h24q14 0 25 -11l161 -163q13 -13 12 -24.5t-18 -11.5h-46q-17 0 -29 16l-109 153q-7 8 -14 0l-108 -153q-12 -16 -29 -16h-46q-17 0 -18 11.5z" />
<glyph unicode="&#xe3;" horiz-adv-x="931" d="M66 263q-2 43 10 86.5t38.5 80.5t67 65t94.5 40q70 15 136 27.5t125.5 27.5t111 36t93.5 54q24 18 30 42t6 59q-2 42 -19.5 81.5t-52 70t-87 49t-124.5 19.5q-37 0 -82.5 -11.5t-88 -38t-78 -68.5t-52.5 -102q-5 -17 -9.5 -21.5t-16.5 -4.5l-36 1q-9 0 -13 9.5t-2 17.5 q12 67 51.5 119.5t93.5 88.5t116 55t118 19q66 0 129 -16t112 -51.5t79.5 -93.5t32.5 -142l4 -740q0 -22 -21 -22h-34q-10 0 -17 6t-7 16l1 126q0 8 -5.5 10t-10.5 -4q-42 -49 -89 -80.5t-95.5 -50t-95.5 -25t-87 -6.5q-69 1 -127 21.5t-101.5 56.5t-69 85.5t-28.5 107.5z M145 299q-1 -63 21.5 -108t60.5 -73.5t88.5 -41t105 -10.5t109.5 16.5t103.5 41t85.5 63t56 82.5v41t0.5 58.5t0.5 67.5t0.5 67.5t0.5 59v42.5q0 5 -2.5 10.5t-13.5 0.5q-29 -15 -54 -27t-51.5 -23.5t-57.5 -22t-71.5 -21.5t-93.5 -22.5t-123 -24.5q-46 -9 -77.5 -31 t-51 -48.5t-28 -52.5t-8.5 -44zM252 1330q1 21 10 45t25.5 43.5t41 32.5t57.5 13q36 0 61 -15.5t47 -33.5t45.5 -33.5t58.5 -15.5q22 0 39.5 7.5t31 18t22.5 22.5t15 21q5 10 14 6.5t7 -14.5q-8 -59 -41 -92t-90 -33q-32 0 -57.5 15t-49 33.5t-48 33.5t-54.5 15 q-35 0 -59.5 -16.5t-52.5 -56.5q-5 -8 -14.5 -7.5t-8.5 11.5z" />
<glyph unicode="&#xe4;" horiz-adv-x="931" d="M66 263q-2 43 10 86.5t38.5 80.5t67 65t94.5 40q70 15 136 27.5t125.5 27.5t111 36t93.5 54q24 18 30 42t6 59q-2 42 -19.5 81.5t-52 70t-87 49t-124.5 19.5q-37 0 -82.5 -11.5t-88 -38t-78 -68.5t-52.5 -102q-5 -17 -9.5 -21.5t-16.5 -4.5l-36 1q-9 0 -13 9.5t-2 17.5 q12 67 51.5 119.5t93.5 88.5t116 55t118 19q66 0 129 -16t112 -51.5t79.5 -93.5t32.5 -142l4 -740q0 -22 -21 -22h-34q-10 0 -17 6t-7 16l1 126q0 8 -5.5 10t-10.5 -4q-42 -49 -89 -80.5t-95.5 -50t-95.5 -25t-87 -6.5q-69 1 -127 21.5t-101.5 56.5t-69 85.5t-28.5 107.5z M145 299q-1 -63 21.5 -108t60.5 -73.5t88.5 -41t105 -10.5t109.5 16.5t103.5 41t85.5 63t56 82.5v41t0.5 58.5t0.5 67.5t0.5 67.5t0.5 59v42.5q0 5 -2.5 10.5t-13.5 0.5q-29 -15 -54 -27t-51.5 -23.5t-57.5 -22t-71.5 -21.5t-93.5 -22.5t-123 -24.5q-46 -9 -77.5 -31 t-51 -48.5t-28 -52.5t-8.5 -44zM355 1307l2 118q0 17 15 17h34q7 0 10.5 -5t3.5 -13l3 -117q0 -8 -5.5 -12t-13.5 -4h-30q-8 0 -13.5 4t-5.5 12zM606 1307l2 118q0 17 15 17h34q7 0 10.5 -5t3.5 -13l3 -117q0 -8 -5.5 -12t-13.5 -4h-30q-8 0 -13.5 4t-5.5 12z" />
<glyph unicode="&#xe5;" horiz-adv-x="931" d="M66 263q-2 43 10 86.5t38.5 80.5t67 65t94.5 40q70 15 136 27.5t125.5 27.5t111 36t93.5 54q24 18 30 42t6 59q-2 42 -19.5 81.5t-52 70t-87 49t-124.5 19.5q-37 0 -82.5 -11.5t-88 -38t-78 -68.5t-52.5 -102q-5 -17 -9.5 -21.5t-16.5 -4.5l-36 1q-9 0 -13 9.5t-2 17.5 q12 67 51.5 119.5t93.5 88.5t116 55t118 19q66 0 129 -16t112 -51.5t79.5 -93.5t32.5 -142l4 -740q0 -22 -21 -22h-34q-10 0 -17 6t-7 16l1 126q0 8 -5.5 10t-10.5 -4q-42 -49 -89 -80.5t-95.5 -50t-95.5 -25t-87 -6.5q-69 1 -127 21.5t-101.5 56.5t-69 85.5t-28.5 107.5z M145 299q-1 -63 21.5 -108t60.5 -73.5t88.5 -41t105 -10.5t109.5 16.5t103.5 41t85.5 63t56 82.5v41t0.5 58.5t0.5 67.5t0.5 67.5t0.5 59v42.5q0 5 -2.5 10.5t-13.5 0.5q-29 -15 -54 -27t-51.5 -23.5t-57.5 -22t-71.5 -21.5t-93.5 -22.5t-123 -24.5q-46 -9 -77.5 -31 t-51 -48.5t-28 -52.5t-8.5 -44zM340 1307q0 32 12 60t33 49t48.5 33t59.5 12q33 0 61 -12t48.5 -33t32.5 -49t12 -60t-12 -59.5t-32.5 -48t-48.5 -32.5t-61 -12q-32 0 -59.5 12t-48.5 32.5t-33 48t-12 59.5zM397 1307q0 -44 26 -70t70 -26q45 0 71.5 26t26.5 70 q0 45 -26.5 71t-71.5 26q-44 0 -70 -26t-26 -71z" />
<glyph unicode="&#xe6;" horiz-adv-x="1791" d="M66 272q-2 43 10 86t38.5 80t67 65t94.5 41q78 18 144 24t123.5 12t107.5 18.5t97 44.5q24 17 33 42.5t10 60.5t-13 80.5t-48 86t-91.5 68.5t-143.5 29q-37 0 -82.5 -11.5t-88 -38t-77.5 -68t-52 -101.5q-5 -16 -9.5 -21t-18.5 -6h-35q-7 0 -12.5 6t-2.5 21 q14 67 54 119.5t93.5 89t114.5 55.5t117 19q60 0 118 -15.5t106.5 -48.5t82 -84.5t43.5 -123.5q1 -7 6.5 -8t9.5 6q32 54 75.5 100.5t94.5 80.5t107.5 53.5t115.5 19.5q75 0 137.5 -21t113 -57t89 -83.5t64.5 -100t40.5 -108t16.5 -106.5q0 -17 -5.5 -22.5t-19.5 -5.5h-806 q-19 -1 -19 -22q-2 -82 20.5 -164t70 -148t121.5 -108t175 -42q70 0 123 18t92.5 46.5t68.5 64t50 69.5q5 9 10.5 12t14.5 3h40q13 0 16.5 -9t-1.5 -18q-66 -134 -170 -198.5t-238 -64.5q-74 0 -137.5 23.5t-116 63t-93 93t-67.5 113.5q-3 7 -8 7.5t-9 -7.5 q-18 -46 -49 -95.5t-82 -90.5t-126 -68t-180 -28q-68 -1 -126 19.5t-101.5 57t-69 87t-28.5 108.5zM145 308q0 -84 38 -136.5t97.5 -76.5t131.5 -21.5t139.5 27.5t122.5 70.5t81 107.5q13 32 19.5 75.5t8.5 85.5t1 75.5t-2 45.5q-1 13 -14 13q-45 -22 -90 -33.5t-98 -19.5 t-118.5 -15.5t-151.5 -22.5q-46 -8 -77.5 -29.5t-51 -48t-28 -53t-8.5 -44.5zM876 638q-2 -14 2.5 -16.5t16.5 -2.5h719q12 0 14 2.5t0 15.5q-9 57 -37 118.5t-74.5 112.5t-111.5 84t-149 33q-73 0 -137.5 -28.5t-115 -76.5t-84 -110.5t-43.5 -131.5z" />
<glyph unicode="&#xe7;" horiz-adv-x="1075" d="M80 528q0 131 42.5 231.5t111 168.5t153.5 102.5t171 34.5q60 0 119 -13.5t113.5 -44t103.5 -79.5t88 -121q5 -10 2 -20t-17 -10h-39q-11 0 -15.5 3t-10.5 12q-24 39 -54.5 75.5t-71 64.5t-94 45t-124.5 17q-86 0 -159.5 -37t-126.5 -99.5t-83 -145.5t-30 -175 q0 -94 28 -178.5t80 -148.5t125.5 -101.5t165.5 -37.5q75 0 134 20t104.5 54t78 80t54.5 97q4 10 8 14.5t15 4.5h38q24 0 18 -25q-18 -71 -60 -129t-97.5 -99.5t-119.5 -65.5t-127 -28q-10 -1 -14 -6t-4 -12q0 -10 -0.5 -26t0 -31.5t3 -27.5t8.5 -13q28 -5 49.5 -20t35 -36 t20.5 -44.5t7 -45.5q0 -31 -8.5 -61.5t-26 -55t-45 -40t-66.5 -15.5q-29 0 -53 9.5t-42 25.5t-29.5 35.5t-14.5 40.5q-2 14 1.5 17t14.5 3h15q16 0 19 -12q8 -37 34 -53.5t55 -16.5q30 0 48.5 13t29 32t14.5 40t4 38t-4 34.5t-14 32t-25.5 24t-37.5 11.5q-14 1 -19.5 -5 t-15.5 -6q-8 0 -10.5 5.5t-2.5 13.5l1 132q0 19 -15 21q-101 9 -181.5 55t-137 118t-87 164.5t-30.5 195.5z" />
<glyph unicode="&#xe8;" horiz-adv-x="1067" d="M57 546q0 120 41 216t108 163.5t153 103.5t176 36q75 0 138.5 -21t115 -57t91 -83.5t67 -100t42.5 -108t17 -106.5q1 -16 -8.5 -22t-16.5 -6h-827q-19 -1 -19 -22q-1 -55 9.5 -110.5t32 -107.5t54.5 -97.5t77.5 -79t100.5 -53.5t124 -20q70 0 124.5 17.5t96 46t72 63.5 t51.5 69q6 8 11 11.5t14 3.5h40q13 0 16.5 -9t-1.5 -18q-33 -66 -77.5 -115.5t-98 -82.5t-114.5 -49t-128 -16q-112 0 -201 43t-151.5 117.5t-96 175.5t-33.5 218zM145 647q-1 -7 1.5 -12t10.5 -5h747q18 0 14 18q-9 57 -38.5 118t-78 112t-115 83.5t-150.5 32.5 q-73 0 -139.5 -28.5t-119 -76t-87.5 -110.5t-45 -132zM406 1432.5q5 9.5 18 9.5h51q16 0 24 -14l111 -171q4 -6 3 -12t-5 -10t-9.5 -4t-11.5 5l-178 179q-8 8 -3 17.5z" />
<glyph unicode="&#xe9;" horiz-adv-x="1067" d="M57 546q0 120 41 216t108 163.5t153 103.5t176 36q75 0 138.5 -21t115 -57t91 -83.5t67 -100t42.5 -108t17 -106.5q1 -16 -8.5 -22t-16.5 -6h-827q-19 -1 -19 -22q-1 -55 9.5 -110.5t32 -107.5t54.5 -97.5t77.5 -79t100.5 -53.5t124 -20q70 0 124.5 17.5t96 46t72 63.5 t51.5 69q6 8 11 11.5t14 3.5h40q13 0 16.5 -9t-1.5 -18q-33 -66 -77.5 -115.5t-98 -82.5t-114.5 -49t-128 -16q-112 0 -201 43t-151.5 117.5t-96 175.5t-33.5 218zM145 647q-1 -7 1.5 -12t10.5 -5h747q18 0 14 18q-9 57 -38.5 118t-78 112t-115 83.5t-150.5 32.5 q-73 0 -139.5 -28.5t-119 -76t-87.5 -110.5t-45 -132zM455 1245q-1 6 3 12l111 171q8 14 24 14h51q13 0 18 -9.5t-3 -17.5l-178 -179q-6 -5 -11.5 -5t-9.5 4t-5 10z" />
<glyph unicode="&#xea;" horiz-adv-x="1067" d="M57 546q0 120 41 216t108 163.5t153 103.5t176 36q75 0 138.5 -21t115 -57t91 -83.5t67 -100t42.5 -108t17 -106.5q1 -16 -8.5 -22t-16.5 -6h-827q-19 -1 -19 -22q-1 -55 9.5 -110.5t32 -107.5t54.5 -97.5t77.5 -79t100.5 -53.5t124 -20q70 0 124.5 17.5t96 46t72 63.5 t51.5 69q6 8 11 11.5t14 3.5h40q13 0 16.5 -9t-1.5 -18q-33 -66 -77.5 -115.5t-98 -82.5t-114.5 -49t-128 -16q-112 0 -201 43t-151.5 117.5t-96 175.5t-33.5 218zM145 647q-1 -7 1.5 -12t10.5 -5h747q18 0 14 18q-9 57 -38.5 118t-78 112t-115 83.5t-150.5 32.5 q-73 0 -139.5 -28.5t-119 -76t-87.5 -110.5t-45 -132zM336 1244.5q-1 11.5 12 24.5l157 163q10 11 26 11h24q14 0 25 -11l161 -163q13 -13 12 -24.5t-18 -11.5h-46q-17 0 -29 16l-109 153q-7 8 -14 0l-108 -153q-12 -16 -29 -16h-46q-17 0 -18 11.5z" />
<glyph unicode="&#xeb;" horiz-adv-x="1067" d="M57 546q0 120 41 216t108 163.5t153 103.5t176 36q75 0 138.5 -21t115 -57t91 -83.5t67 -100t42.5 -108t17 -106.5q1 -16 -8.5 -22t-16.5 -6h-827q-19 -1 -19 -22q-1 -55 9.5 -110.5t32 -107.5t54.5 -97.5t77.5 -79t100.5 -53.5t124 -20q70 0 124.5 17.5t96 46t72 63.5 t51.5 69q6 8 11 11.5t14 3.5h40q13 0 16.5 -9t-1.5 -18q-33 -66 -77.5 -115.5t-98 -82.5t-114.5 -49t-128 -16q-112 0 -201 43t-151.5 117.5t-96 175.5t-33.5 218zM145 647q-1 -7 1.5 -12t10.5 -5h747q18 0 14 18q-9 57 -38.5 118t-78 112t-115 83.5t-150.5 32.5 q-73 0 -139.5 -28.5t-119 -76t-87.5 -110.5t-45 -132zM379 1307l2 118q0 17 15 17h34q7 0 10.5 -5t3.5 -13l3 -117q0 -8 -5.5 -12t-13.5 -4h-30q-8 0 -13.5 4t-5.5 12zM630 1307l2 118q0 17 15 17h34q7 0 10.5 -5t3.5 -13l3 -117q0 -8 -5.5 -12t-13.5 -4h-30q-8 0 -13.5 4 t-5.5 12z" />
<glyph unicode="&#xec;" horiz-adv-x="405" d="M63 1432.5q5 9.5 18 9.5h51q16 0 24 -14l111 -171q4 -6 3 -12t-5 -10t-9.5 -4t-11.5 5l-178 179q-8 8 -3 17.5zM167 24l10 994q0 21 18 21h36q18 0 18 -21l9 -994q0 -24 -21 -24h-48q-9 0 -15.5 4.5t-6.5 19.5z" />
<glyph unicode="&#xed;" horiz-adv-x="384" d="M125 24l10 994q0 21 18 21h36q18 0 18 -21l9 -994q0 -24 -21 -24h-48q-9 0 -15.5 4.5t-6.5 19.5zM135 1245q-1 6 3 12l111 171q8 14 24 14h51q13 0 18 -9.5t-3 -17.5l-178 -179q-6 -5 -11.5 -5t-9.5 4t-5 10z" />
<glyph unicode="&#xee;" horiz-adv-x="517" d="M50 1243.5q-1 11.5 12 24.5l157 163q10 11 26 11h24q14 0 25 -11l161 -163q13 -13 12 -24.5t-18 -11.5h-46q-17 0 -29 16l-109 153q-7 8 -14 0l-108 -153q-12 -16 -29 -16h-46q-17 0 -18 11.5zM215 24l10 994q0 21 18 21h36q18 0 18 -21l9 -994q0 -24 -21 -24h-48 q-9 0 -15.5 4.5t-6.5 19.5z" />
<glyph unicode="&#xef;" horiz-adv-x="619" d="M125 1307l2 118q0 17 15 17h34q7 0 10.5 -5t3.5 -13l3 -117q0 -8 -5.5 -12t-13.5 -4h-30q-8 0 -13.5 4t-5.5 12zM266 24l10 994q0 21 18 21h36q18 0 18 -21l9 -994q0 -24 -21 -24h-48q-9 0 -15.5 4.5t-6.5 19.5zM416 1307l2 118q0 17 15 17h34q7 0 10.5 -5t3.5 -13 l3 -117q0 -8 -5.5 -12t-13.5 -4h-30q-8 0 -13.5 4t-5.5 12z" />
<glyph unicode="&#xf1;" horiz-adv-x="979" d="M101 22l5 996q0 21 18 21h33q18 0 18 -21l1 -163q0 -11 7.5 -12.5t13.5 5.5q37 43 83 82t99 69t112 48t122 18q46 0 91 -17.5t80 -52t57.5 -85t23.5 -117.5l3 -771q0 -22 -21 -22h-36q-22 0 -22 22l4 737q0 55 -15.5 98.5t-45 74t-70.5 46.5t-90 16q-44 0 -90 -15.5 t-90 -41t-83.5 -57.5t-68.5 -65.5t-46 -64.5t-17 -54l3 -674q0 -22 -21 -22h-36q-22 0 -22 22zM241 1330q1 21 10 45t25.5 43.5t41 32.5t57.5 13q36 0 61 -15.5t47 -33.5t45.5 -33.5t58.5 -15.5q22 0 39.5 7.5t31 18t22.5 22.5t15 21q5 10 14 6.5t7 -14.5q-8 -59 -41 -92 t-90 -33q-32 0 -57.5 15t-49 33.5t-48 33.5t-54.5 15q-35 0 -59.5 -16.5t-52.5 -56.5q-5 -8 -14.5 -7.5t-8.5 11.5z" />
<glyph unicode="&#xf2;" horiz-adv-x="1106" d="M65 528q0 111 34.5 209t97.5 171t152.5 115t199.5 42q109 0 198 -42t152 -115t97.5 -171t34.5 -209q0 -103 -31.5 -199.5t-92.5 -171.5t-151 -120t-207 -45q-119 0 -209.5 45t-151.5 120t-92 171.5t-31 199.5zM143 537q0 -101 28.5 -186.5t81.5 -147.5t128 -97t168 -35 t167 33.5t126 94t80.5 144.5t30.5 185q0 81 -25 163.5t-75 150t-126 110t-178 42.5q-67 0 -123.5 -19t-101.5 -52t-79 -77t-56.5 -95t-34 -105.5t-11.5 -108.5zM436 1432.5q5 9.5 18 9.5h51q16 0 24 -14l111 -171q4 -6 3 -12t-5 -10t-9.5 -4t-11.5 5l-178 179q-8 8 -3 17.5z " />
<glyph unicode="&#xf3;" horiz-adv-x="1106" d="M65 528q0 111 34.5 209t97.5 171t152.5 115t199.5 42q109 0 198 -42t152 -115t97.5 -171t34.5 -209q0 -103 -31.5 -199.5t-92.5 -171.5t-151 -120t-207 -45q-119 0 -209.5 45t-151.5 120t-92 171.5t-31 199.5zM143 537q0 -101 28.5 -186.5t81.5 -147.5t128 -97t168 -35 t167 33.5t126 94t80.5 144.5t30.5 185q0 81 -25 163.5t-75 150t-126 110t-178 42.5q-67 0 -123.5 -19t-101.5 -52t-79 -77t-56.5 -95t-34 -105.5t-11.5 -108.5zM462 1245q-1 6 3 12l111 171q8 14 24 14h51q13 0 18 -9.5t-3 -17.5l-178 -179q-6 -5 -11.5 -5t-9.5 4t-5 10z " />
<glyph unicode="&#xf4;" horiz-adv-x="1106" d="M65 528q0 111 34.5 209t97.5 171t152.5 115t199.5 42q109 0 198 -42t152 -115t97.5 -171t34.5 -209q0 -103 -31.5 -199.5t-92.5 -171.5t-151 -120t-207 -45q-119 0 -209.5 45t-151.5 120t-92 171.5t-31 199.5zM143 537q0 -101 28.5 -186.5t81.5 -147.5t128 -97t168 -35 t167 33.5t126 94t80.5 144.5t30.5 185q0 81 -25 163.5t-75 150t-126 110t-178 42.5q-67 0 -123.5 -19t-101.5 -52t-79 -77t-56.5 -95t-34 -105.5t-11.5 -108.5zM337 1244.5q-1 11.5 12 24.5l157 163q10 11 26 11h24q14 0 25 -11l161 -163q13 -13 12 -24.5t-18 -11.5h-46 q-17 0 -29 16l-109 153q-7 8 -14 0l-108 -153q-12 -16 -29 -16h-46q-17 0 -18 11.5z" />
<glyph unicode="&#xf5;" horiz-adv-x="1106" d="M65 528q0 111 34.5 209t97.5 171t152.5 115t199.5 42q109 0 198 -42t152 -115t97.5 -171t34.5 -209q0 -103 -31.5 -199.5t-92.5 -171.5t-151 -120t-207 -45q-119 0 -209.5 45t-151.5 120t-92 171.5t-31 199.5zM143 537q0 -101 28.5 -186.5t81.5 -147.5t128 -97t168 -35 t167 33.5t126 94t80.5 144.5t30.5 185q0 81 -25 163.5t-75 150t-126 110t-178 42.5q-67 0 -123.5 -19t-101.5 -52t-79 -77t-56.5 -95t-34 -105.5t-11.5 -108.5zM311 1330q1 21 10 45t25.5 43.5t41 32.5t57.5 13q36 0 61 -15.5t47 -33.5t45.5 -33.5t58.5 -15.5q22 0 39.5 7.5 t31 18t22.5 22.5t15 21q5 10 14 6.5t7 -14.5q-8 -59 -41 -92t-90 -33q-32 0 -57.5 15t-49 33.5t-48 33.5t-54.5 15q-35 0 -59.5 -16.5t-52.5 -56.5q-5 -8 -14.5 -7.5t-8.5 11.5z" />
<glyph unicode="&#xf6;" horiz-adv-x="1106" d="M65 528q0 111 34.5 209t97.5 171t152.5 115t199.5 42q109 0 198 -42t152 -115t97.5 -171t34.5 -209q0 -103 -31.5 -199.5t-92.5 -171.5t-151 -120t-207 -45q-119 0 -209.5 45t-151.5 120t-92 171.5t-31 199.5zM143 537q0 -101 28.5 -186.5t81.5 -147.5t128 -97t168 -35 t167 33.5t126 94t80.5 144.5t30.5 185q0 81 -25 163.5t-75 150t-126 110t-178 42.5q-67 0 -123.5 -19t-101.5 -52t-79 -77t-56.5 -95t-34 -105.5t-11.5 -108.5zM389 1307l2 118q0 17 15 17h34q7 0 10.5 -5t3.5 -13l3 -117q0 -8 -5.5 -12t-13.5 -4h-30q-8 0 -13.5 4t-5.5 12z M640 1307l2 118q0 17 15 17h34q7 0 10.5 -5t3.5 -13l3 -117q0 -8 -5.5 -12t-13.5 -4h-30q-8 0 -13.5 4t-5.5 12z" />
<glyph unicode="&#xf8;" horiz-adv-x="1106" d="M65 528q0 104 34.5 199.5t97.5 169t152.5 117t199.5 43.5q95 0 174.5 -34t141.5 -92l85 102q9 11 21 1l30 -26q11 -10 2 -21l-91 -108q57 -72 88 -162.5t31 -188.5q0 -103 -31.5 -199.5t-92.5 -171.5t-151 -120t-207 -45q-91 0 -165 26.5t-131 73.5l-73 -87 q-9 -10 -18 -1l-33 28q-11 9 -2 19l75 89q-69 76 -103 177.5t-34 210.5zM143 537q0 -103 28 -187.5t82 -147.5l565 673q-50 51 -116.5 81.5t-152.5 30.5q-101 0 -177 -41.5t-127 -106.5t-76.5 -145t-25.5 -157zM304 153q49 -39 110.5 -60.5t134.5 -21.5q93 0 167 33.5 t126 94t80.5 144.5t30.5 185q0 73 -22.5 149.5t-67.5 142.5z" />
<glyph unicode="&#xf9;" horiz-adv-x="993" d="M112 387l3 631q0 21 18 21h33q18 0 18 -21l3 -636q0 -56 12.5 -111.5t43 -99.5t81.5 -72t128 -28q62 0 123.5 24t110.5 62.5t79.5 86.5t30.5 95l4 675q0 14 4 19.5t18 5.5h26q14 0 17.5 -5.5t3.5 -20.5l5 -991q0 -22 -21 -22h-35q-10 0 -16.5 6t-6.5 16l1 134 q0 7 -5.5 9.5t-10.5 -3.5q-26 -34 -63 -64.5t-81 -54t-93.5 -37t-100.5 -13.5q-89 0 -152 31t-102.5 84.5t-57.5 125.5t-18 153zM397 1432.5q5 9.5 18 9.5h51q16 0 24 -14l111 -171q4 -6 3 -12t-5 -10t-9.5 -4t-11.5 5l-178 179q-8 8 -3 17.5z" />
<glyph unicode="&#xfa;" horiz-adv-x="993" d="M112 387l3 631q0 21 18 21h33q18 0 18 -21l3 -636q0 -56 12.5 -111.5t43 -99.5t81.5 -72t128 -28q62 0 123.5 24t110.5 62.5t79.5 86.5t30.5 95l4 675q0 14 4 19.5t18 5.5h26q14 0 17.5 -5.5t3.5 -20.5l5 -991q0 -22 -21 -22h-35q-10 0 -16.5 6t-6.5 16l1 134 q0 7 -5.5 9.5t-10.5 -3.5q-26 -34 -63 -64.5t-81 -54t-93.5 -37t-100.5 -13.5q-89 0 -152 31t-102.5 84.5t-57.5 125.5t-18 153zM441 1245q-1 6 3 12l111 171q8 14 24 14h51q13 0 18 -9.5t-3 -17.5l-178 -179q-6 -5 -11.5 -5t-9.5 4t-5 10z" />
<glyph unicode="&#xfb;" horiz-adv-x="993" d="M112 387l3 631q0 21 18 21h33q18 0 18 -21l3 -636q0 -56 12.5 -111.5t43 -99.5t81.5 -72t128 -28q62 0 123.5 24t110.5 62.5t79.5 86.5t30.5 95l4 675q0 14 4 19.5t18 5.5h26q14 0 17.5 -5.5t3.5 -20.5l5 -991q0 -22 -21 -22h-35q-10 0 -16.5 6t-6.5 16l1 134 q0 7 -5.5 9.5t-10.5 -3.5q-26 -34 -63 -64.5t-81 -54t-93.5 -37t-100.5 -13.5q-89 0 -152 31t-102.5 84.5t-57.5 125.5t-18 153zM284 1244.5q-1 11.5 12 24.5l157 163q10 11 26 11h24q14 0 25 -11l161 -163q13 -13 12 -24.5t-18 -11.5h-46q-17 0 -29 16l-109 153q-7 8 -14 0 l-108 -153q-12 -16 -29 -16h-46q-17 0 -18 11.5z" />
<glyph unicode="&#xfc;" horiz-adv-x="993" d="M112 387l3 631q0 21 18 21h33q18 0 18 -21l3 -636q0 -56 12.5 -111.5t43 -99.5t81.5 -72t128 -28q62 0 123.5 24t110.5 62.5t79.5 86.5t30.5 95l4 675q0 14 4 19.5t18 5.5h26q14 0 17.5 -5.5t3.5 -20.5l5 -991q0 -22 -21 -22h-35q-10 0 -16.5 6t-6.5 16l1 134 q0 7 -5.5 9.5t-10.5 -3.5q-26 -34 -63 -64.5t-81 -54t-93.5 -37t-100.5 -13.5q-89 0 -152 31t-102.5 84.5t-57.5 125.5t-18 153zM335 1307l2 118q0 17 15 17h34q7 0 10.5 -5t3.5 -13l3 -117q0 -8 -5.5 -12t-13.5 -4h-30q-8 0 -13.5 4t-5.5 12zM586 1307l2 118q0 17 15 17h34 q7 0 10.5 -5t3.5 -13l3 -117q0 -8 -5.5 -12t-13.5 -4h-30q-8 0 -13.5 4t-5.5 12z" />
<glyph unicode="&#xfd;" horiz-adv-x="958" d="M51 1018q-2 8 1.5 14.5t11.5 6.5h40q9 0 13 -4t8 -13l335 -905q5 -11 12 -11t12 11l344 905q4 9 7.5 13t12.5 4h39q8 0 13 -6t1 -15l-530 -1441q-4 -11 -10 -14t-13 -3h-57q-6 0 -11 6.5t0 17.5l146 381q3 8 1 16zM451 1245q-1 6 3 12l111 171q8 14 24 14h51 q13 0 18 -9.5t-3 -17.5l-178 -179q-6 -5 -11.5 -5t-9.5 4t-5 10z" />
<glyph unicode="&#xff;" horiz-adv-x="958" d="M51 1018q-2 8 1.5 14.5t11.5 6.5h40q9 0 13 -4t8 -13l335 -905q5 -11 12 -11t12 11l344 905q4 9 7.5 13t12.5 4h39q8 0 13 -6t1 -15l-530 -1441q-4 -11 -10 -14t-13 -3h-57q-6 0 -11 6.5t0 17.5l146 381q3 8 1 16zM318 1307l2 118q0 17 15 17h34q7 0 10.5 -5t3.5 -13 l3 -117q0 -8 -5.5 -12t-13.5 -4h-30q-8 0 -13.5 4t-5.5 12zM569 1307l2 118q0 17 15 17h34q7 0 10.5 -5t3.5 -13l3 -117q0 -8 -5.5 -12t-13.5 -4h-30q-8 0 -13.5 4t-5.5 12z" />
<glyph unicode="&#x152;" horiz-adv-x="1914" d="M60 745q0 156 47 288t134 227.5t210.5 149t276.5 53.5q106 0 168.5 -9t81.5 -12h819q19 0 19 -18l1 -36q0 -9 -3 -14.5t-14 -5.5h-749q-11 -1 -15 -5t-4 -14l5 -508q0 -21 20 -21h681q18 0 18 -18v-36q0 -13 -6 -16.5t-16 -3.5h-676q-11 0 -15 -5.5t-4 -12.5l3 -610 q0 -20 5 -26t19 -6h755q11 0 16 -5t5 -13l2 -47q0 -21 -22 -21h-847q-39 0 -98.5 -5t-153.5 -1q-155 6 -277.5 64t-208.5 157t-131.5 234t-45.5 296zM143 745q0 -157 47 -281t127 -211t185.5 -134t223.5 -48h59t60.5 1t56.5 3t47 5l10 1289q-34 8 -62 12.5t-55 6.5 t-54.5 2.5t-61.5 0.5q-116 0 -221.5 -42t-186 -124t-128 -202.5t-47.5 -277.5z" />
<glyph unicode="&#x153;" horiz-adv-x="1969" d="M81 528q0 108 34 205t97 171t152.5 117.5t199.5 43.5q75 0 140 -23t118 -65t93 -101t64 -130q7 -20 15 0q27 69 69 127.5t95.5 101t116.5 66.5t132 24q75 0 138.5 -21.5t115 -58.5t91 -85.5t67 -102t42.5 -109.5t17 -107q1 -16 -8.5 -22t-16.5 -6h-806q-19 -1 -19 -22 q-1 -27 1.5 -55t6.5 -55q11 -76 38.5 -140t73 -110.5t109.5 -73t148 -26.5q70 0 124.5 17.5t96 46t72 63.5t51.5 69q6 8 11 11.5t14 3.5h40q13 0 16.5 -9t-1.5 -18q-33 -66 -77.5 -115.5t-98 -82t-114.5 -48.5t-128 -16q-157 0 -262.5 82.5t-156.5 233.5q-2 6 -5 7.5 t-7 -7.5q-27 -70 -65 -128t-89 -100t-116 -65t-146 -23q-123 0 -213.5 45t-150.5 119.5t-89.5 171t-29.5 199.5zM158 537q0 -101 27 -186.5t79 -147.5t127.5 -97t172.5 -35q89 0 159.5 33.5t119.5 94t76 144.5t29 185q0 81 -22 163.5t-68.5 150t-119 110t-174.5 42.5 q-67 0 -123.5 -19t-101.5 -52t-79 -77t-56.5 -95t-34 -105.5t-11.5 -108.5zM1037 639q-1 -7 1.5 -12t10.5 -5h730q18 0 14 18q-9 57 -39 119.5t-79 114.5t-116 86t-151 34q-72 0 -135 -31t-112 -81.5t-81.5 -114t-42.5 -128.5z" />
<glyph unicode="&#x178;" horiz-adv-x="1118" d="M67 1420q-5 8 1 15t23 7h33q15 0 24 -14l390 -602q7 -9 17 -10t16 10l391 600q5 8 11 12t18 4h35q14 0 19 -7.5t-1 -16.5l-444 -684q-2 -5 -4 -9.5t-2 -9.5l4 -689q0 -8 -5.5 -17t-20.5 -9h-35q-15 0 -20.5 9t-5.5 17l3 689q0 11 -5 19zM394 1621l2 118q0 17 15 17h34 q7 0 10.5 -5t3.5 -13l3 -117q0 -8 -5.5 -12t-13.5 -4h-30q-8 0 -13.5 4t-5.5 12zM645 1621l2 118q0 17 15 17h34q7 0 10.5 -5t3.5 -13l3 -117q0 -8 -5.5 -12t-13.5 -4h-30q-8 0 -13.5 4t-5.5 12z" />
<glyph unicode="&#x2c6;" horiz-adv-x="684" d="M151 1629.5q-1 11.5 12 24.5l157 163q10 11 26 11h24q14 0 25 -11l161 -163q13 -13 12 -24.5t-18 -11.5h-46q-17 0 -29 16l-109 153q-7 8 -14 0l-108 -153q-12 -16 -29 -16h-46q-17 0 -18 11.5z" />
<glyph unicode="&#x2dc;" horiz-adv-x="761" d="M142 1330q1 21 10 45t25.5 43.5t41 32.5t57.5 13q36 0 61 -15.5t47 -33.5t45.5 -33.5t58.5 -15.5q22 0 39.5 7.5t31 18t22.5 22.5t15 21q5 10 14 6.5t7 -14.5q-8 -59 -41 -92t-90 -33q-32 0 -57.5 15t-49 33.5t-48 33.5t-54.5 15q-35 0 -59.5 -16.5t-52.5 -56.5 q-5 -8 -14.5 -7.5t-8.5 11.5z" />
<glyph unicode="&#x2000;" horiz-adv-x="914" />
<glyph unicode="&#x2001;" horiz-adv-x="1828" />
<glyph unicode="&#x2002;" horiz-adv-x="914" />
<glyph unicode="&#x2003;" horiz-adv-x="1828" />
<glyph unicode="&#x2004;" horiz-adv-x="609" />
<glyph unicode="&#x2005;" horiz-adv-x="457" />
<glyph unicode="&#x2006;" horiz-adv-x="304" />
<glyph unicode="&#x2007;" horiz-adv-x="304" />
<glyph unicode="&#x2008;" horiz-adv-x="228" />
<glyph unicode="&#x2009;" horiz-adv-x="365" />
<glyph unicode="&#x200a;" horiz-adv-x="101" />
<glyph unicode="&#x2010;" horiz-adv-x="722" d="M100 571v27q0 21 21 21h475q21 0 21 -19v-29q-1 -19 -19 -20h-477q-21 0 -21 20z" />
<glyph unicode="&#x2011;" horiz-adv-x="722" d="M100 571v27q0 21 21 21h475q21 0 21 -19v-29q-1 -19 -19 -20h-477q-21 0 -21 20z" />
<glyph unicode="&#x2012;" horiz-adv-x="722" d="M100 571v27q0 21 21 21h475q21 0 21 -19v-29q-1 -19 -19 -20h-477q-21 0 -21 20z" />
<glyph unicode="&#x2013;" horiz-adv-x="1057" d="M140 545v41q0 8 4.5 13t12.5 5h738q8 0 12.5 -5t4.5 -13v-41q0 -7 -4.5 -12t-12.5 -5h-738q-8 0 -12.5 5t-4.5 12z" />
<glyph unicode="&#x2014;" horiz-adv-x="1438" d="M150 545v41q0 8 4.5 13t12.5 5h1099q8 0 12.5 -5t4.5 -13v-41q0 -7 -4.5 -12t-12.5 -5h-1099q-8 0 -12.5 5t-4.5 12z" />
<glyph unicode="&#x2018;" horiz-adv-x="387" d="M130 1246q1 41 8 71.5t19 54t29 41.5t38 35q6 5 12.5 5t10.5 -4t4 -10.5t-6 -14.5q-15 -15 -24 -33.5t-11.5 -37.5t2.5 -38t17 -34q7 -8 12.5 -14.5t5.5 -17.5l-2 -120q0 -26 -23 -26h-66q-23 0 -23 26z" />
<glyph unicode="&#x2019;" horiz-adv-x="387" d="M131 1106.5q0 6.5 6 14.5q15 15 24 33.5t11.5 37.5t-2.5 38t-17 34q-7 8 -12.5 14.5t-5.5 17.5l2 120q0 26 23 26h66q23 0 23 -26l3 -117q-1 -41 -8 -71.5t-19 -54t-29 -42t-38 -34.5q-6 -5 -12.5 -5t-10.5 4t-4 10.5z" />
<glyph unicode="&#x201c;" horiz-adv-x="661" d="M130 1246q1 41 8 71.5t19 54t29 41.5t38 35q6 5 12.5 5t10.5 -4t4 -10.5t-6 -14.5q-15 -15 -24 -33.5t-11.5 -37.5t2.5 -38t17 -34q7 -8 12.5 -14.5t5.5 -17.5l-2 -120q0 -26 -23 -26h-66q-23 0 -23 26zM404 1246q1 41 8 71.5t19 54t29 41.5t38 35q6 5 12.5 5t10.5 -4 t4 -10.5t-6 -14.5q-15 -15 -24 -33.5t-11.5 -37.5t2.5 -38t17 -34q7 -8 12.5 -14.5t5.5 -17.5l-2 -120q0 -26 -23 -26h-66q-23 0 -23 26z" />
<glyph unicode="&#x201d;" horiz-adv-x="661" d="M131 1106.5q0 6.5 6 14.5q15 15 24 33.5t11.5 37.5t-2.5 38t-17 34q-7 8 -12.5 14.5t-5.5 17.5l2 120q0 26 23 26h66q23 0 23 -26l3 -117q-1 -41 -8 -71.5t-19 -54t-29 -42t-38 -34.5q-6 -5 -12.5 -5t-10.5 4t-4 10.5zM405 1106.5q0 6.5 6 14.5q15 15 24 33.5t11.5 37.5 t-2.5 38t-17 34q-7 8 -12.5 14.5t-5.5 17.5l2 120q0 26 23 26h66q23 0 23 -26l3 -117q-1 -41 -8 -71.5t-19 -54t-29 -42t-38 -34.5q-6 -5 -12.5 -5t-10.5 4t-4 10.5z" />
<glyph unicode="&#x2022;" horiz-adv-x="906" d="M140 748q0 64 24 120.5t66 98.5t98 66t121 24q64 0 120 -24t97.5 -66t65.5 -98.5t24 -120.5t-24 -120t-65.5 -97.5t-97.5 -65.5t-120 -24q-65 0 -121 24t-98 65.5t-66 97.5t-24 120z" />
<glyph unicode="&#x2026;" horiz-adv-x="1695" d="M202 26l2 117q0 26 23 26h46q23 0 23 -26l3 -117q0 -13 -4.5 -19.5t-18.5 -6.5h-52q-14 0 -18 6.5t-4 19.5zM789 26l2 117q0 26 23 26h46q23 0 23 -26l3 -117q0 -13 -4.5 -19.5t-18.5 -6.5h-52q-14 0 -18 6.5t-4 19.5zM1439 26l2 117q0 26 23 26h46q23 0 23 -26l3 -117 q0 -13 -4.5 -19.5t-18.5 -6.5h-52q-14 0 -18 6.5t-4 19.5z" />
<glyph unicode="&#x202f;" horiz-adv-x="365" />
<glyph unicode="&#x205f;" horiz-adv-x="457" />
<glyph unicode="&#x20ac;" horiz-adv-x="1180" d="M70 585v34q0 10 4.5 15t16.5 5h110q17 0 17 22q-1 13 -2 30.5t-1 35.5t0.5 35t1.5 31q0 10 -2.5 14t-13.5 6h-112q-19 0 -19 20v34q0 19 19 20h129q8 0 10.5 4.5t4.5 12.5q20 102 63.5 191t105 158.5t139 118.5t166 72t185 18.5t196.5 -42.5q21 -8 12 -28l-14 -30 q-5 -8 -10.5 -10.5t-17.5 2.5q-94 34 -180.5 36.5t-163 -20t-141.5 -67t-116.5 -105.5t-88 -134.5t-55.5 -154.5q-2 -11 0.5 -16.5t14.5 -5.5h300q21 0 21 -19v-34q0 -21 -23 -21h-310q-13 -1 -15 -18q-3 -34 -3.5 -57.5t0.5 -39t2.5 -25.5t2.5 -17q3 -17 19 -17h305 q13 0 17.5 -5.5t4.5 -17.5v-31q0 -11 -4 -15t-17 -5h-294q-18 0 -15 -19q21 -85 62 -160t97 -135.5t125 -103t145.5 -62t158 -12.5t162.5 46q8 4 14.5 3t10.5 -10l13 -31q4 -9 1 -15t-12 -12q-49 -32 -117 -46.5t-141 -14.5q-92 0 -187 38t-178 109.5t-146.5 174.5 t-92.5 234q-3 16 -19 16h-125q-20 0 -20 20z" />
<glyph unicode="&#x2122;" horiz-adv-x="756" d="M80 1418v20q0 4 5 4h229q5 0 5 -4v-20q0 -5 -5 -5h-95q-4 0 -4 -5l3 -298q0 -2 -1 -4t-5 -2h-26q-4 0 -5 2t-1 4l2 298q0 5 -4 5h-94q-4 0 -4 5zM342 1110l4 327q0 5 5 5h40q4 0 6 -6l103 -279q4 -10 8 0l103 280q2 5 6 5h41q3 0 4.5 -2t1.5 -4l2 -326q0 -2 -1 -4t-5 -2 h-25q-7 0 -7 6l1 286q0 3 -1.5 4t-3.5 -3l-96 -288q-3 -5 -8 -5h-31q-6 0 -8 5l-98 288q-2 3 -3.5 2t-1.5 -3l3 -285q0 -7 -6 -7h-27q-3 0 -4.5 2t-1.5 4z" />
<glyph unicode="&#x25fc;" horiz-adv-x="1040" d="M0 0v1040h1040v-1040h-1040z" />
</font>
</defs>
</svg>
