<?xml version="1.0" standalone="no"?>
<!DOCTYPE svg PUBLIC "-//W3C//DTD SVG 1.1//EN" "http://www.w3.org/Graphics/SVG/1.1/DTD/svg11.dtd" >
<svg xmlns="http://www.w3.org/2000/svg" xmlns:xlink="http://www.w3.org/1999/xlink" version="1.1">
<metadata></metadata>
<defs>
<font id="gravityultralight" horiz-adv-x="1353" >
<font-face units-per-em="2048" ascent="1638" descent="-410" />
<missing-glyph horiz-adv-x="470" />
<glyph horiz-adv-x="0" />
<glyph horiz-adv-x="682" />
<glyph unicode=" "  horiz-adv-x="470" />
<glyph unicode="&#x09;" horiz-adv-x="470" />
<glyph unicode="&#xa0;" horiz-adv-x="470" />
<glyph unicode="!" horiz-adv-x="316" d="M130 21l2 111q0 14 10 14h21q10 0 10 -14l3 -111q0 -12 -2 -16.5t-11 -4.5h-21q-8 0 -10 4.5t-2 16.5zM134 388l1 1036q0 8 9 8h17q8 0 8 -8l2 -1036q0 -9 -2.5 -12t-9.5 -3h-13q-7 0 -9.5 3t-2.5 12z" />
<glyph unicode="&#x22;" horiz-adv-x="423" d="M84 1129v288q0 11 4.5 13t16.5 2h-7q15 0 19 -2t4 -14v-286q0 -13 -3.5 -15t-17.5 -2h4q-12 0 -16 2t-4 14zM302 1129v288q0 11 5 13t16 2h-6q14 0 18 -2t4 -14v-286q0 -13 -3.5 -15t-17.5 -2h5q-13 0 -17 2t-4 14z" />
<glyph unicode="#" horiz-adv-x="1160" d="M81 566l1 10q1 8 12 8h211q16 0 19 19l59 354q3 14 -13 14h-207q-6 0 -9 1.5t-2 9.5l1 10q1 6 3.5 7t7.5 1h217q9 0 11 5.5t3 10.5l68 406q2 8 3.5 9t6.5 1h8q5 0 7 -1t0 -9l-65 -406q-3 -16 13 -16h347q8 0 11 3.5t5 11.5l70 407q2 8 4 9t7 1h7q6 0 8 -1t0 -9l-66 -407 q-3 -15 14 -15h214q8 0 11 -1.5t1 -8.5l-2 -7q-2 -9 -5.5 -10.5t-12.5 -1.5h-211q-8 0 -12.5 -2.5t-6.5 -10.5l-57 -359q-2 -10 2.5 -12.5t12.5 -2.5h210q8 0 10.5 -1.5t1.5 -7.5l-2 -9q-2 -8 -5.5 -9.5t-11.5 -1.5h-213q-8 0 -11 -3.5t-5 -11.5l-87 -526q-1 -6 -3 -10 t-10 -4h-12q-9 0 -9.5 4.5t0.5 9.5l88 526q2 8 0 11.5t-13 3.5h-339q-8 -1 -13 -3.5t-7 -10.5l-88 -527q-2 -6 -3.5 -10t-8.5 -4h-13q-11 0 -9 14l88 527q2 9 -1.5 11.5t-11.5 2.5h-209q-10 0 -9 11zM357 602q-3 -18 13 -18h344q9 0 10.5 3t3.5 13l62 359q2 8 -2.5 10 t-12.5 2h-345q-9 0 -12 -2.5t-5 -11.5z" />
<glyph unicode="$" horiz-adv-x="1194" d="M90 357.5q0 5.5 16 5.5h3q11 0 14 -5t8 -16q28 -83 72.5 -143t102.5 -99t128.5 -58t151.5 -19q39 0 91 7.5t106.5 25.5t106 47.5t90.5 74t59.5 105t12.5 139.5q-7 60 -31.5 104t-60.5 75.5t-81 52.5t-92 35t-94 22.5t-87 15.5q-105 19 -190 44.5t-145.5 66t-93 100 t-32.5 147.5t37.5 155t96.5 112t131.5 68t143.5 23q15 0 15 17v142q0 8 3 10t12 2h14q8 0 10.5 -2t2.5 -10v-145q0 -11 12 -14q66 0 125.5 -18t107.5 -54.5t83 -92.5t53 -131q4 -9 0 -11.5t-12 -2.5h-2q-11 0 -16 1t-9 14q-20 72 -55 122.5t-82 82t-104.5 46t-122.5 14.5 q-62 0 -133 -18t-132.5 -56.5t-102 -99t-40.5 -146.5q0 -57 15.5 -107t64.5 -92.5t141 -77t245 -59.5q102 -15 179.5 -40t132.5 -64t87.5 -93.5t43.5 -127.5q9 -72 -5 -132t-45 -108t-76.5 -84t-100 -61.5t-115 -39.5t-121.5 -18q-16 0 -16 -16v-137q0 -6 -2.5 -9t-10.5 -3 h-15q-14 0 -14 12v138q0 15 -14 15q-81 2 -153.5 25t-132.5 67.5t-104.5 109.5t-70.5 150q-4 11 -4 16.5z" />
<glyph unicode="%" horiz-adv-x="1149" d="M100 1208q0 49 18.5 92t50.5 74.5t74.5 50t91.5 18.5q48 0 91 -18.5t74.5 -50t50 -74.5t18.5 -92q0 -48 -18.5 -91t-50 -74.5t-74.5 -50t-91 -18.5q-49 0 -91.5 18.5t-74.5 50t-50.5 74.5t-18.5 91zM128 1208q0 -45 15.5 -82.5t43 -65t65.5 -42.5t83 -15t83 15t65.5 42.5 t42.5 65t15 82.5q0 46 -15 84t-42.5 65.5t-65.5 42.5t-83 15t-83 -15t-65.5 -42.5t-43 -65.5t-15.5 -84zM259 7l563 1412q3 8 6 10.5t8 2.5h13q9 0 6 -8l-566 -1417q-3 -7 -11 -7h-11q-5 0 -7.5 1t-0.5 6zM568 221q0 50 18.5 93.5t51 75.5t75.5 50.5t92 18.5t91.5 -18.5 t74 -50.5t50 -75.5t18.5 -93.5q0 -49 -18.5 -91t-50 -73t-74 -49t-91.5 -18t-92 18t-75.5 49t-51 73t-18.5 91zM597 219q0 -45 15.5 -82.5t43 -63.5t66 -40.5t83.5 -14.5t83.5 14.5t66.5 40.5t43.5 63.5t15.5 82.5q0 47 -15.5 86.5t-43.5 67.5t-66.5 43.5t-83.5 15.5 t-83.5 -15.5t-66 -43.5t-43 -67.5t-15.5 -86.5z" />
<glyph unicode="&#x26;" horiz-adv-x="1170" d="M115 439.5q9 51.5 31 97t55 84t70 69.5t76 54t74 38q8 4 7 10t-6 12q-19 23 -43 55t-46 71.5t-37.5 86t-16.5 98.5q0 75 26.5 135.5t68.5 103t94.5 66t105.5 23.5q71 0 128 -27.5t95.5 -70.5t56.5 -97t12 -106q-8 -81 -39 -137.5t-80.5 -97t-115 -69.5t-141.5 -56 q-9 -5 -11 -7.5t3 -9.5l421 -538q7 -11 15 -9t13 14q5 10 9 22t7 28.5t4.5 39.5t0.5 56q-1 15 1 18t7 3h9q5 0 7 -2t4 -15q1 -20 2 -41t-1.5 -44t-9.5 -48.5t-22 -55.5q-5 -8 -5.5 -12t4.5 -11l128 -158q9 -12 -6 -12h-14q-12 0 -20 11l-101 123q-5 7 -9.5 11t-9.5 -1 q-38 -39 -77.5 -68t-83.5 -48t-95.5 -28.5t-114.5 -9.5q-90 0 -163.5 26.5t-128.5 72.5t-90 108t-47 134q-10 57 -1 108.5zM150 455.5q-18 -68.5 2 -140.5q27 -97 82 -160t125 -96t148 -39t150.5 9.5t134 50.5t97.5 85q5 6 7 9.5t2 5.5t-2 5l-6 9l-428 556q-11 14 -29 7 q-62 -26 -121.5 -71t-101.5 -103.5t-60 -127zM310 1131q0 -56 11.5 -99.5t31 -81t45 -71.5t52.5 -71q5 -7 11.5 -7.5t13.5 1.5q52 19 110.5 41t110.5 58.5t90 93t49 143.5q3 21 -0.5 50t-15 59.5t-31.5 60t-49.5 53t-70 38t-92.5 14.5q-63 0 -112.5 -28t-83.5 -70t-52 -91.5 t-18 -92.5z" />
<glyph unicode="'" horiz-adv-x="202" d="M84 1129v288q0 11 4.5 13t16.5 2h-7q15 0 19 -2t4 -14v-286q0 -13 -3.5 -15t-17.5 -2h4q-12 0 -16 2t-4 14z" />
<glyph unicode="(" horiz-adv-x="527" d="M100 545q0 133 22.5 254t61.5 232t91 213t112 197q6 9 11 11t8 -1t3 -9t-4 -12q-57 -101 -106.5 -198.5t-85.5 -202t-57 -219.5t-21 -251q0 -129 21.5 -249t59 -233t88 -220t108.5 -210q10 -19 2 -22t-12 7q-57 94 -111.5 200t-97 221t-68 238.5t-25.5 253.5z" />
<glyph unicode=")" horiz-adv-x="527" d="M103 -375q8 -3 12 7q57 94 111.5 200t97 221t68 238.5t25.5 253.5q0 133 -22.5 254t-61.5 232t-91 213t-112 197q-6 9 -11 11t-8 -1t-3 -9t4 -12q57 -101 106.5 -198.5t85.5 -202t57 -219.5t21 -251q0 -129 -21.5 -249t-59 -233t-88 -220t-108.5 -210q-10 -19 -2 -22z " />
<glyph unicode="*" horiz-adv-x="504" d="M71 1282l9 24q1 6 7 4l137 -57q7 -3 7 5l-3 166q0 8 6 8h25q6 0 6 -8l-4 -166q0 -7 7 -5l135 56q2 2 5.5 1.5t4.5 -3.5l9 -20q1 -8 -3 -9l-142 -55q-6 -2 -2 -7l112 -137q5 -5 0 -9l-18 -14q-5 -5 -9 0l-109 142q-6 7 -11 0l-109 -142q-5 -5 -9 -2l-18 15q-7 4 -2 9 l117 139q3 3 -4 6l-140 53q-5 1 -4 6z" />
<glyph unicode="+" horiz-adv-x="1097" d="M80 510v11q0 10 3 13t11 3h412q17 0 17 18v413q0 5 2 8.5t12 3.5h12q9 0 12 -3.5t3 -8.5v-414q0 -17 16 -17h413q8 0 11 -2t3 -10v-15q0 -10 -2 -11.5t-10 -2.5h-415q-16 0 -16 -18v-411q0 -7 -2.5 -10t-11.5 -3h-14q-8 0 -10.5 3t-2.5 9v410q0 20 -17 20h-412 q-8 0 -11 2t-3 12z" />
<glyph unicode="," horiz-adv-x="265" d="M90.5 -130.5q-2.5 5.5 4.5 13.5q17 20 24.5 49.5t1.5 60.5q-3 10 -7.5 14.5t-4.5 13.5l2 111q0 14 10 14h21q10 0 10 -14l3 -104q-1 -38 -5 -63.5t-11.5 -43t-17.5 -29.5t-23 -23q-5 -5 -7.5 0.5z" />
<glyph unicode="-" horiz-adv-x="635" d="M84 593q0 9 3 12.5t13 3.5h435q16 0 16 -14q-1 -9 -3.5 -11.5t-10.5 -3.5h-437q-10 0 -13 3t-3 12v-2z" />
<glyph unicode="." horiz-adv-x="246" d="M90 21l2 111q0 14 10 14h21q10 0 10 -14l3 -111q0 -12 -2 -16.5t-11 -4.5h-21q-8 0 -10 4.5t-2 16.5z" />
<glyph unicode="/" horiz-adv-x="724" d="M65 7l563 1412q4 10 4.5 11.5t5.5 1.5h22q3 0 3.5 0.5t-0.5 -3.5l-569 -1425l-3 -3t-10 -1h-9q-3 0 -6.5 1t-0.5 6z" />
<glyph unicode="0" horiz-adv-x="1074" d="M79 703q0 149 32 281.5t91.5 232t143 157.5t186.5 58q116 0 203 -58t144.5 -157.5t86.5 -232t29 -281.5q0 -89 -13.5 -175.5t-40.5 -165t-66 -144.5t-90.5 -114.5t-114 -76t-136.5 -27.5q-72 0 -133.5 27.5t-112.5 76t-89.5 114.5t-65.5 144.5t-40.5 165t-13.5 175.5z M116 682q0 -74 13 -151t38 -149t61.5 -135.5t82.5 -111t102 -75t121 -27.5q66 0 123 27.5t104 75t83.5 111t61.5 135.5t38 149t13 151q0 159 -28 289.5t-82 224.5t-132.5 145.5t-178.5 51.5q-98 0 -175.5 -54t-132 -149t-83.5 -225t-29 -283z" />
<glyph unicode="1" horiz-adv-x="566" d="M130 1101v12q0 7 9 7h172q24 0 41 10t17 38l1 256q0 8 9 8h17q8 0 8 -8l2 -1413q0 -11 -11 -11h-16q-11 0 -11 11l1 1058q0 25 -23 25h-207q-9 0 -9 7z" />
<glyph unicode="2" horiz-adv-x="1061" d="M109 13.5q-3 13.5 7 24.5l663 806q56 66 78.5 131.5t18.5 125.5t-31 111.5t-71 90.5t-100.5 63t-119.5 28q-54 3 -110.5 -10.5t-108 -44.5t-93.5 -79t-67 -112q-5 -13 -9 -21t-12 -8h-15q-9 0 -10 3t4 18q24 76 68 131.5t100 91t119 52.5t125 17q66 0 131 -24.5 t116.5 -68.5t84.5 -104.5t37 -132.5t-27 -152.5t-108 -164.5l-602 -731q-4 -4 -2.5 -8t9.5 -4h750q16 0 16 -14v-15q0 -13 -14 -13h-804q-20 0 -23 13.5z" />
<glyph unicode="3" horiz-adv-x="1003" d="M82 321q3 4 8 4h13q14 0 20 -21q6 -16 18.5 -42.5t33 -56.5t50 -61t70 -55.5t92.5 -39.5t118 -14q68 -2 136 23t122.5 73t88.5 117t34 156q0 75 -38 142t-95 117t-123 79.5t-123 29.5h-109q-10 0 -10 9v11q0 10 10 10h118q51 0 109 21.5t107.5 61t82 94.5t32.5 122 q0 52 -21 104.5t-63 95t-105 69t-147 26.5q-53 0 -104.5 -14.5t-97.5 -45.5t-85.5 -79.5t-68.5 -115.5q-5 -14 -8 -18t-10 -4h-10q-8 0 -11.5 5.5t4.5 22.5q33 81 80 135.5t100 88t108 47.5t105 14q73 -1 140 -24.5t118 -66.5t81 -105.5t30 -141.5q0 -55 -22.5 -104t-60 -89 t-86.5 -68t-102 -41q-13 -3 -11 -7t13 -8q54 -14 109 -47.5t99.5 -82.5t73 -112t29.5 -136q0 -83 -33 -156t-91 -127.5t-137 -85.5t-172 -30q-72 1 -135.5 23t-115.5 61t-91.5 94t-63.5 123q-6 16 -3 20z" />
<glyph unicode="4" horiz-adv-x="1006" d="M62 460l1 32q0 11 7 21l624 911q4 6 7 7t8 1h13q8 0 8 -9l1 -932q0 -10 1.5 -11.5t12.5 -1.5h173q15 0 15 -11v-13q0 -11 -14 -11h-174q-11 0 -12.5 -2t-1.5 -13l1 -417q0 -11 -11 -11h-16q-11 0 -11 11v417q0 11 -1.5 13t-12.5 2h-599q-11 0 -15 3.5t-4 13.5zM99 495 q-11 -17 7 -17h574q11 0 12.5 1.5t1.5 11.5l3 854q0 23 -10 10z" />
<glyph unicode="5" horiz-adv-x="1004" d="M83 312q2 3 10 3h13q8 0 11 -4t6 -12q30 -81 74 -134t95.5 -84t106.5 -44t106 -14q94 3 167.5 38t124 93.5t77 136t26.5 164.5q0 79 -26.5 150.5t-75.5 125t-117.5 85t-152.5 31.5q-80 0 -171.5 -24.5t-175.5 -84.5q-5 -4 -12.5 -10.5t-15.5 -6.5h-9q-13 0 -11 23l65 672 q1 10 4.5 13t14.5 3h633q11 0 11 -8v-14q0 -9 -11 -9h-610q-8 0 -10.5 -1.5t-3.5 -9.5l-58 -597q-2 -11 5 -13t15 3q48 25 88.5 43.5t80.5 30.5t83 17.5t96 5.5q76 0 148 -31t128 -87t89.5 -135.5t33.5 -176.5q0 -99 -32.5 -183.5t-89.5 -146t-134.5 -96t-168.5 -34.5 q-78 0 -146 21t-122.5 60.5t-94 95.5t-61.5 125q-5 17 -3 20z" />
<glyph unicode="6" horiz-adv-x="1098" d="M79 672q0 77 12.5 163.5t38.5 171t66 161.5t95 135.5t125 93.5t157 35q55 0 108.5 -13t99.5 -46t82.5 -88.5t56.5 -140.5q3 -14 3.5 -19.5t-6.5 -5.5h-18q-9 0 -13 17q-12 43 -32.5 90t-56.5 86t-91.5 64.5t-139.5 25.5q-78 0 -142.5 -34.5t-114.5 -92.5t-87 -134.5 t-61 -160t-36 -168.5t-12 -161q0 -9 6.5 -12t13.5 3q35 32 81 69.5t104.5 70t129.5 54t156 21.5q99 -2 176 -35t130.5 -88.5t81.5 -128.5t28 -155q0 -87 -27.5 -169.5t-81 -146.5t-132 -103.5t-181.5 -40.5q-99 0 -176.5 28t-135 77.5t-97 115.5t-64 141.5t-35.5 157.5 t-11 162zM126 569q5 -147 48 -251t108.5 -170t144.5 -96t156 -29q94 0 169 34t126.5 93.5t79 138.5t27.5 169q0 73 -27 139.5t-78 116.5t-124 80t-164 30q-61 0 -119 -16.5t-109.5 -41.5t-94.5 -55.5t-74.5 -59t-49.5 -51t-19 -31.5z" />
<glyph unicode="7" horiz-adv-x="901" d="M57 1412v11q0 9 12 9h752q14 0 14 -11v-20q0 -13 -4 -20q-58 -109 -114 -227t-107.5 -239t-97.5 -242t-84.5 -237t-68.5 -224t-49 -202q-1 -10 -13 -10h-20q-5 0 -6.5 4.5t0.5 10.5q40 160 95 330.5t122 344.5t145.5 349.5t165.5 346.5q5 9 4.5 12.5t-13.5 3.5h-721 q-12 0 -12 10z" />
<glyph unicode="8" horiz-adv-x="1033" d="M78 398q0 60 22 118t61 108t92.5 89t116.5 62q17 6 16.5 11.5t-11.5 10.5q-106 48 -163.5 122.5t-57.5 171.5q0 77 33.5 140t86.5 107.5t119 69t132 24.5q74 0 141.5 -23t119.5 -67t82.5 -107.5t30.5 -144.5q0 -45 -16.5 -88.5t-47.5 -82t-74 -70t-95 -52.5 q-12 -5 -10.5 -11.5t13.5 -11.5q69 -26 122 -65.5t89 -89t55 -106t19 -116.5q0 -94 -35 -169.5t-94.5 -128t-137 -81t-161.5 -28.5q-95 0 -177 31.5t-142 86.5t-94.5 129.5t-34.5 160.5zM113 410q0 -89 32.5 -160.5t89 -121.5t131.5 -77.5t160 -27.5q87 0 159.5 29.5 t124.5 81t81 122.5t29 154q0 72 -35 137.5t-91.5 115.5t-127 79.5t-142.5 29.5q-83 0 -158 -32.5t-131 -84.5t-89 -116.5t-33 -128.5zM186 1105q0 -71 28 -127t74.5 -95t107.5 -60t128 -21q65 0 126 21.5t108.5 61.5t77 95.5t32.5 123.5q-2 48 -23 101t-63 96.5t-106 72 t-151 28.5q-64 0 -122.5 -23t-104.5 -63t-76 -94.5t-36 -116.5z" />
<glyph unicode="9" horiz-adv-x="1065" d="M78 984q0 100 35 183t93.5 142.5t134 91.5t155.5 31q121 -2 212 -48t151.5 -146.5t89 -260.5t23.5 -390q-2 -69 -11.5 -140t-29.5 -137.5t-53 -124.5t-82.5 -101.5t-117 -68.5t-157.5 -25q-56 0 -111.5 17.5t-105 54t-91 93.5t-70.5 137q-6 16 -3.5 19.5t9.5 3.5h14 q5 0 8 -2.5t7 -13.5q30 -86 71.5 -138.5t87.5 -82.5t93 -41t89 -13q112 0 197 48t139 144.5t75 241.5t5 339q-5 47 -24 23q-28 -35 -67.5 -76.5t-92 -77.5t-119 -60t-148.5 -24q-77 0 -150 25.5t-130 76.5t-91.5 126t-34.5 174zM110 982q1 -65 23 -130.5t68 -118 t116.5 -85.5t168.5 -33q66 0 125 19.5t108.5 50t88.5 67.5t65.5 70.5t39.5 60t11 36.5q-12 100 -38.5 188.5t-76.5 153.5t-128 103t-192 38q-83 0 -152.5 -35t-120.5 -93.5t-79 -134.5t-27 -157z" />
<glyph unicode=":" horiz-adv-x="276" d="M100 21l2 111q0 14 10 14h21q10 0 10 -14l3 -111q0 -12 -2 -16.5t-11 -4.5h-21q-8 0 -10 4.5t-2 16.5zM100 882l2 111q0 14 10 14h21q10 0 10 -14l3 -111q0 -12 -2 -16.5t-11 -4.5h-21q-8 0 -10 4.5t-2 16.5z" />
<glyph unicode=";" horiz-adv-x="295" d="M100.5 -130.5q-2.5 5.5 4.5 13.5q17 20 24.5 49.5t1.5 60.5q-3 10 -7.5 14.5t-4.5 13.5l2 111q0 14 10 14h21q10 0 10 -14l3 -104q-1 -38 -5 -63.5t-11.5 -43t-17.5 -29.5t-23 -23q-5 -5 -7.5 0.5zM117 869l2 111q0 14 10 14h21q10 0 10 -14l3 -111q0 -12 -2 -16.5 t-11 -4.5h-21q-8 0 -10 4.5t-2 16.5z" />
<glyph unicode="&#x3c;" horiz-adv-x="1077" d="M100 558v19q0 8 2 10.5t8 5.5l827 358q5 2 10 2.5t5 -7.5v-11q0 -6 -2 -9.5t-12 -7.5l-804 -349q-2 -2 -2 -4t2 -3l822 -414q5 -3 8 -5.5t3 -13.5v-10q0 -7 -3 -9t-13 3l-843 429q-5 3 -6.5 5.5t-1.5 10.5z" />
<glyph unicode="=" horiz-adv-x="1077" d="M100 312v19q0 11 10 11h847q10 0 10 -12v-18q0 -11 -11 -11h-846q-10 0 -10 11zM100 699v19q0 11 10 11h847q10 0 10 -12v-18q0 -11 -11 -11h-846q-10 0 -10 11z" />
<glyph unicode="&#x3e;" horiz-adv-x="1077" d="M100 119v10q0 11 3 13.5t8 5.5l822 414q2 1 2 3t-2 4l-804 349q-10 4 -12 7.5t-2 9.5v11q0 8 5 7.5t10 -2.5l827 -358q6 -3 8 -5.5t2 -10.5v-19q0 -8 -1.5 -10.5t-6.5 -5.5l-843 -429q-10 -5 -13 -3t-3 9z" />
<glyph unicode="?" horiz-adv-x="1025" d="M91 1084.5q-2 3.5 5 22.5q29 91 78.5 155t109 104t125 58.5t127.5 18.5q91 0 163 -31t122 -82t77 -116t27 -132q0 -73 -17.5 -129.5t-47.5 -100.5t-70 -78.5t-85.5 -65t-93.5 -58.5t-93 -59q-10 -9 -10 -17l1 -219q0 -5 -1.5 -8.5t-8.5 -3.5h-16q-7 0 -8.5 3.5t-1.5 8.5 l1 232q0 20 18 31q83 51 156 95t127 94.5t85.5 115t31.5 156.5q0 58 -22.5 117.5t-66.5 107.5t-110 78.5t-154 30.5q-79 0 -145.5 -23.5t-118.5 -65.5t-90 -99.5t-60 -124.5q-5 -15 -7.5 -17t-7.5 -2h-12q-5 0 -7 3.5zM469 21l2 111q0 14 10 14h21q10 0 10 -14l3 -111 q0 -12 -2 -16.5t-11 -4.5h-21q-8 0 -10 4.5t-2 16.5z" />
<glyph unicode="@" horiz-adv-x="1487" d="M90 728q0 103 24.5 196t68 172.5t104.5 143.5t134 109t155.5 69.5t170.5 24.5q139 0 256.5 -50t203 -138t133 -208t47.5 -260q0 -71 -16.5 -137t-46.5 -117t-71 -81.5t-89 -30.5q-20 0 -45.5 6t-49.5 25t-43 53.5t-24 91.5q-1 12 -6.5 15t-10.5 -10q-18 -50 -45 -86.5 t-60 -59.5t-70.5 -34t-75.5 -10q-65 1 -118.5 26t-91.5 67t-58.5 98.5t-20.5 121.5q0 64 21 121t58.5 100t89 68t113.5 25q28 0 60.5 -7.5t65.5 -27t65 -52t59 -82.5q5 -11 10 -8.5t5 16.5v108q0 8 6 8h17q3 0 4.5 -1.5t1.5 -7.5l5 -345q0 -62 17 -101.5t44 -60t59.5 -23.5 t63.5 8q34 15 61 49t45.5 79.5t27.5 98.5t8 107q-2 128 -48.5 240t-127.5 195.5t-191 131.5t-239 48q-83 0 -161.5 -24.5t-147.5 -69.5t-126.5 -107.5t-98.5 -138t-64 -162t-23 -178.5q0 -146 46 -274.5t128 -225.5t195.5 -153t248.5 -56q43 0 84 4.5t82.5 15.5t82.5 30 t84 49q8 8 13 -1l7 -13q4 -5 -1 -10q-60 -48 -147.5 -78t-202.5 -30q-103 0 -191.5 28t-161 77.5t-129 118.5t-95 151t-58.5 174t-20 189zM476 723q0 -78 26 -131.5t65 -86t84 -47t83 -14.5q67 0 114.5 30t77.5 73.5t44 92.5t14 86q0 55 -19 106t-52.5 90t-80 62t-101.5 23 q-50 0 -96 -19t-81 -55.5t-56.5 -89.5t-21.5 -120z" />
<glyph unicode="A" d="M80.5 3q-0.5 3 1.5 8l576 1413q3 8 9 8h18q5 0 8 -8l568 -1413q4 -11 -6 -11h-15q-8 0 -11 3t-5 8l-200 493q-5 10 -7.5 11.5t-14.5 1.5h-657q-14 0 -17 -1.5t-8 -12.5l-200 -492q-5 -11 -13 -11h-18q-8 0 -8.5 3zM340.5 549q1.5 -2 14.5 -2h637q13 0 14.5 2t-3.5 13 l-318 802q-4 9 -9.5 9t-9.5 -9l-322 -802q-5 -11 -3.5 -13z" />
<glyph unicode="B" horiz-adv-x="1223" d="M100 11l2 1413q0 8 9 8h521q88 0 162.5 -24.5t129.5 -68.5t87.5 -106t36.5 -138v-9q0 -40 -15 -82q-17 -46 -51.5 -88t-85 -75.5t-115.5 -51.5q74 -17 132.5 -50.5t100 -76.5t66 -93t30.5 -99q4 -31 4 -60q0 -71 -24 -133q-34 -87 -104 -148.5t-171 -95t-221 -33.5h-483 q-11 0 -11 11zM136 1390l1 -572q0 -12 2 -14t13 -2h557q31 0 66.5 11.5t70.5 31.5t66.5 48t55.5 61t38 69q12 31 11 64v10q-4 85 -44 143t-96.5 94t-119 51.5t-112.5 15.5h-499q-8 0 -9 -1.5t-1 -9.5zM137 760l1 -701q0 -14 2 -16.5t16 -2.5h423q111 0 205 27.5t161 81 t102 132.5q28 64 28 145q0 18 -1 37q-7 64 -42.5 119.5t-87 97.5t-112.5 66.5t-118 25.5h-565q-9 0 -10.5 -1.5t-1.5 -10.5z" />
<glyph unicode="C" horiz-adv-x="1410" d="M90 720q0 156 42.5 288t122.5 229t196.5 151.5t264.5 54.5q114 0 202 -25t155 -72t115 -115t83 -155q6 -14 9.5 -27t-7.5 -13h-11q-8 0 -11 4t-9 18q-25 61 -62 124t-97 114.5t-149 84t-218 32.5q-125 0 -233 -47.5t-187.5 -135.5t-125 -213.5t-45.5 -281.5 q0 -146 39 -275t114.5 -226.5t185.5 -154t252 -56.5q117 0 208.5 37.5t159.5 98t114.5 137.5t72.5 155q4 13 7 17.5t11 4.5h12q11 0 9 -9t-4 -17q-36 -106 -91 -190.5t-129 -144t-166.5 -91t-203.5 -31.5q-105 0 -192 28t-156.5 78t-121.5 118.5t-86.5 150t-52 171.5 t-17.5 184z" />
<glyph unicode="D" horiz-adv-x="1257" d="M90 11l2 1413q0 8 9 8h359q168 0 298 -55.5t218.5 -151.5t134.5 -226t46 -280q0 -95 -22.5 -185t-64.5 -170t-101.5 -147t-134 -115t-161.5 -75t-183 -27h-389q-11 0 -11 11zM126 1384l2 -1329q0 -11 2 -13t14 -2h361q78 0 154 23.5t144 66.5t126.5 104t100.5 136.5 t66 163.5t24 186q0 117 -27 213.5t-73.5 172t-109.5 131t-135 92t-149.5 54.5t-153.5 18h-332q-11 0 -12.5 -2t-1.5 -15z" />
<glyph unicode="E" horiz-adv-x="1035" d="M90 11l2 1413q0 8 9 8h798q11 0 11 -9v-13q0 -9 -10 -9h-760q-11 0 -12.5 -1.5t-1.5 -11.5l1 -570q0 -12 2 -14t13 -2h695q10 0 10 -7v-14q0 -9 -10 -9h-698q-9 0 -10.5 -1.5t-1.5 -9.5l4 -707q0 -11 2 -12.5t13 -1.5h778q11 0 11 -11v-18q0 -11 -11 -11h-823 q-11 0 -11 11z" />
<glyph unicode="F" horiz-adv-x="1010" d="M90 11l2 1413q0 8 9 8h798q11 0 11 -9v-13q0 -6 -2 -7.5t-8 -1.5h-761q-10 0 -11.5 -1.5t-1.5 -11.5l1 -570q0 -12 2 -14t13 -2h695q10 0 10 -7v-14q0 -9 -10 -9h-698q-9 0 -10.5 -1.5t-1.5 -9.5l4 -750q0 -4 1.5 -7.5t-13.5 -3.5h-18q-11 0 -11 11z" />
<glyph unicode="G" horiz-adv-x="1454" d="M80 735q0 154 50.5 284t138 224t204.5 147t249 53q89 0 179 -32t169.5 -87.5t143.5 -132t101 -164.5q3 -7 2 -11t-3 -6.5t-3.5 -3t0.5 -0.5h-13q-1 0 -5.5 1t-7.5 9q-36 85 -95.5 157.5t-134 126t-159 83.5t-169.5 30q-79 0 -155 -21t-144 -61t-125 -98t-98.5 -131.5 t-65.5 -161.5t-25 -189v-7q0 -147 44 -276q44 -133 124.5 -232t193 -156t246.5 -57q117 0 217.5 46.5t178.5 122.5t130.5 172.5t73.5 197.5q4 15 -6 18.5t-32 3.5h-406q-13 0 -15.5 5.5t-2.5 10.5v-1q0 5 2.5 11t15.5 6h465q11 0 16 -3t5 -18q-6 -62 -30 -131t-64.5 -136 t-96 -128.5t-125 -108t-151.5 -74t-175 -27.5q-132 0 -249 55.5t-204.5 154.5t-138 235.5t-50.5 299.5z" />
<glyph unicode="H" horiz-adv-x="1212" d="M90 11l2 1413q0 8 9 8h17q8 0 8 -8l1 -607q0 -11 1.5 -13t11.5 -2h921q11 0 12.5 2t1.5 13l1 607q0 8 9 8h17q8 0 8 -8l2 -1413q0 -11 -11 -11h-16q-11 0 -11 11l1 745q0 12 -2 14t-14 2h-916q-12 0 -14 -2t-2 -14l1 -745q0 -11 -11 -11h-16q-11 0 -11 11z" />
<glyph unicode="I" horiz-adv-x="268" d="M110 11l2 1413q0 8 9 8h17q8 0 8 -8l2 -1413q0 -11 -11 -11h-16q-11 0 -11 11z" />
<glyph unicode="J" horiz-adv-x="948" d="M80 447q0 8 9 8h17q8 0 8 -8q0 -68 17.5 -143.5t58.5 -140t108.5 -106.5t167.5 -42q63 0 112.5 18t87 47.5t63 68.5t41.5 81.5t23 85t7 80.5l2 1028q0 8 9 8h17q8 0 8 -8l2 -1019q0 -94 -25 -173t-72.5 -136t-116.5 -88.5t-158 -31.5q-92 0 -163.5 35t-121 97 t-75.5 148.5t-26 190.5z" />
<glyph unicode="K" horiz-adv-x="1257" d="M100 11l2 1413q0 8 9 8h17q8 0 8 -8l1 -829q0 -9 4.5 -9t11.5 6l915 830q6 6 10.5 8t12.5 2h14q15 0 5 -8l-620 -573q-9 -9 -8 -13.5t6 -9.5l676 -817q9 -11 -8 -11h-20q-8 0 -12 1.5t-12 9.5l-647 790q-6 8 -9 11t-5.5 2.5t-5.5 -4.5t-10 -10l-290 -259q-8 -8 -8 -21 l1 -509q0 -11 -11 -11h-16q-11 0 -11 11z" />
<glyph unicode="L" horiz-adv-x="1112" d="M100 11l2 1413q0 8 9 8h17q8 0 8 -8l2 -1370q0 -11 2 -13t13 -2h835q14 0 14 -10v-18q0 -6 -3 -8.5t-12 -2.5h-876q-11 0 -11 11z" />
<glyph unicode="M" horiz-adv-x="1420" d="M90 11l2 1413q0 8 9 8h47q12 0 15.5 -7t7.5 -17l521 -1343q10 -27 21 0l535 1346q4 9 7.5 15t14.5 6h40q8 0 8 -8l2 -1413q0 -11 -11 -11h-16q-11 0 -11 11l2 1376q0 10 -4 11t-7 -7l-537 -1380q-4 -11 -18 -11h-29q-12 0 -16 11l-533 1379q-4 10 -9 7.5t-5 -10.5 l2 -1376q0 -11 -11 -11h-16q-11 0 -11 11z" />
<glyph unicode="N" horiz-adv-x="1196" d="M90 11l2 1413q0 8 9 8h32q8 0 9.5 -1t5.5 -7l901 -1354q3 -3 6 -1t3 7l2 1348q0 8 9 8h17q8 0 8 -8l2 -1413q0 -11 -14 -11h-20q-8 0 -11.5 1.5t-9.5 9.5l-907 1379q-2 3 -5 2t-3 -5l2 -1376q0 -11 -11 -11h-16q-11 0 -11 11z" />
<glyph unicode="O" horiz-adv-x="1460" d="M80 735q0 156 43.5 286.5t126.5 224t203.5 145.5t273.5 52q151 0 270.5 -52.5t202 -146t126 -223.5t44.5 -284q-1 -161 -43 -298t-123.5 -237t-202.5 -156t-279 -56q-155 0 -274.5 56t-201 156t-124 236t-42.5 297zM115 735q0 -177 47 -311.5t129.5 -224t194.5 -133.5 q107 -43 228 -43h11h11q119 1 225 41q111 42 194 130.5t131.5 223.5t48.5 317q0 174 -50.5 301.5t-135 211.5t-194.5 124.5t-230 40.5q-77 0 -151.5 -17t-142.5 -52.5t-126 -90t-100 -130t-66 -172t-24 -216.5z" />
<glyph unicode="P" horiz-adv-x="1120" d="M100 11l2 1413q0 8 9 8h552q105 0 175 -35.5t113 -91t61 -125t18 -136.5q0 -47 -6.5 -93.5t-25 -88.5t-51.5 -78t-87 -62t-130 -40q-67 -12 -155 -12h-26h-402q-8 0 -9 -1t-1 -9l1 -649q0 -11 -11 -11h-16q-11 0 -11 11zM136 1392l1 -675q0 -8 1.5 -9.5t9.5 -1.5h462 q86 0 147.5 15t104.5 40.5t69 59t40.5 71t19 77t4.5 76.5q0 34 -6 74t-20.5 79.5t-38.5 76t-60.5 64.5t-87 45t-117.5 17h-521q-6 0 -7 -1t-1 -8z" />
<glyph unicode="Q" horiz-adv-x="1460" d="M80 735q0 152 43.5 282t126.5 224.5t203.5 148t274.5 53.5q155 0 274.5 -53.5t201.5 -148.5t124 -224.5t42 -280.5q0 -86 -15 -173.5t-47.5 -170.5t-83.5 -157.5t-123 -134.5q-9 -8 -7 -9t4 -6l91 -113l12 -15t-4 -11l-8 -12q-12 -8 -17 -3.5t-13 12.5l-87 112 q-6 6 -12 10t-14 -1q-31 -18 -71 -32t-83.5 -23t-86 -14t-78.5 -5q-111 0 -202.5 28t-163 78t-124.5 119.5t-88 152t-52 176t-17 191.5zM115 735v-7q0 -170 48 -302q49 -134 133 -224.5t194 -135.5q104 -43 218 -43h15q36 0 69 3t66.5 10t68.5 18.5t73 28.5q18 9 24.5 16 t-2.5 20l-106 129q-5 6 -3.5 12t6.5 10l-3 3q10 6 15.5 4.5t11.5 -8.5l103 -124q11 -11 15.5 -15t18.5 6q68 54 116.5 125t79 150.5t45 162.5t14.5 161q0 123 -25.5 221.5t-69.5 174t-103 129.5t-127 88.5t-141 49.5q-69 15 -135 15h-9q-75 -1 -149 -18.5t-141.5 -52.5 t-126 -89.5t-101.5 -129.5t-67.5 -171.5t-24.5 -216.5z" />
<glyph unicode="R" horiz-adv-x="1269" d="M100 11l2 1413q0 8 9 8h539q81 0 152 -32t124 -86.5t83.5 -127t30.5 -152.5q0 -76 -30 -141t-83.5 -113t-128 -75.5t-163.5 -27.5q-11 1 -15 -3.5t-1 -7.5l557 -655q8 -11 -9 -11h-21q-7 0 -10 1t-9 8l-549 652q-11 12 -24 12h-402q-11 0 -13 -1.5t-2 -12.5l1 -648 q0 -11 -11 -11h-16q-11 0 -11 11zM136 1390l1 -666q0 -12 2 -14t14 -2h476q82 0 151.5 26.5t119.5 71.5t78 104t28 124q0 66 -27 132t-77 118t-121.5 84.5t-159.5 32.5h-475q-8 0 -9 -1.5t-1 -9.5z" />
<glyph unicode="S" horiz-adv-x="1209" d="M92.5 393q4.5 2 10.5 2h13q8 0 11.5 -4t6.5 -15q19 -63 59.5 -127.5t100.5 -116.5t140 -82q70 -27 154 -26h22q98 3 181 31.5t143.5 77t95 116t36.5 148.5v7q0 61 -17 107q-18 49 -48.5 85t-70.5 60t-83.5 39t-87 21.5t-81.5 7.5q-141 9 -238.5 40t-158 79.5t-87.5 111.5 t-27 136q0 75 35 139.5t93 112t132.5 74t154.5 26.5q79 0 155 -20t140.5 -60t113.5 -100.5t75 -141.5q5 -16 2.5 -19t-19.5 -3h-3q-11 0 -11.5 3t-5.5 18q-14 51 -50.5 103.5t-93 94.5t-131 68.5t-164.5 26.5q-79 0 -148 -24t-121 -65.5t-84 -97t-36 -119.5q-1 -11 -1 -22 q0 -53 16 -95q20 -50 55.5 -88t83.5 -64t101.5 -43t108.5 -25t105 -10q98 -4 168.5 -25t118.5 -52.5t77 -69t45 -75.5t22 -72.5t8 -58.5q-2 -94 -41.5 -171t-106.5 -131.5t-156 -84.5t-189 -30h-8q-78 0 -154 18q-80 20 -149 65.5t-124 119.5t-87 182q-6 16 -1.5 18z" />
<glyph unicode="T" horiz-adv-x="1122" d="M70 1410v14q0 8 10 8h953q9 0 9 -8v-14q0 -8 -9 -8h-449q-8 0 -9 -1t-1 -9l2 -1381q0 -11 -11 -11h-16q-11 0 -11 11l2 1380q0 8 -1 9.5t-9 1.5h-450q-10 0 -10 8z" />
<glyph unicode="U" horiz-adv-x="1222" d="M90 1417q0 7 1 11t6 4h20q5 0 5.5 -4t0.5 -11l6 -744q2 -182 43.5 -306t108 -200.5t151.5 -110t174 -33.5q93 0 180.5 38t154.5 119q67 80 107 206q37 117 36 277v24l5 730q0 7 0.5 11t6.5 4h19q5 0 5.5 -4t0.5 -11l-2 -816q-3 -131 -37.5 -242.5t-99.5 -193.5 t-159 -128.5t-217 -46.5q-122 0 -215 45.5t-157.5 127.5t-99.5 194.5t-40 247.5z" />
<glyph unicode="V" horiz-adv-x="1324" d="M81 1424q-3 8 9 8h23q7 0 8 -2.5t3 -5.5l530 -1371q5 -12 14 -12t14 12l508 1371q2 4 3.5 6t7.5 2h23q12 0 9 -8l-529 -1413q-5 -11 -14 -11h-45q-8 0 -13 11z" />
<glyph unicode="W" horiz-adv-x="1918" d="M80.5 1427.5q0.5 4.5 12.5 4.5h8q11 0 13 -5.5l6 -16.5l372 -1365q3 -15 11.5 -14t13.5 15l394 1354q3 11 10.5 21.5t20.5 10.5h24q12 0 19 -10.5t10 -21.5l356 -1355q5 -15 12.5 -14t12.5 15l410 1364q4 10 7 16t14 6h8q13 0 13 -4.5t-3 -12.5l-417 -1389 q-5 -11 -13.5 -18.5t-20.5 -7.5h-20q-12 0 -21.5 7t-12.5 18l-353 1358q-6 12 -15.5 11t-11.5 -11l-392 -1357q-3 -11 -12.5 -18.5t-22.5 -7.5h-17q-28 0 -35 25l-379 1388q-2 10 -1.5 14.5z" />
<glyph unicode="X" horiz-adv-x="1242" d="M101 4.5q-1 4.5 2 7.5l481 716q5 6 5 9.5t-5 11.5l-434 669q-4 5 -4 9.5t9 4.5h14q10 0 13.5 -2t8.5 -8l417 -649q8 -9 15 1l419 646q5 6 9 9t15 3h13q16 0 8 -11l-439 -672q-5 -8 -4 -11.5t5 -9.5l481 -716q7 -12 -12 -12h-13q-12 0 -17 4t-10 12l-455 683q-7 12 -15 0 l-451 -683q-5 -7 -10 -11.5t-12 -4.5h-29q-4 0 -5 4.5z" />
<glyph unicode="Y" horiz-adv-x="1119" d="M82 1424q-6 8 9 8h18q9 0 14 -8l419 -645q12 -15 23 0l421 645q5 8 17 8h15q14 0 9 -8l-449 -690q-2 -5 -4 -8t-2 -8l1 -707q0 -11 -11 -11h-16q-11 0 -11 11l1 707q0 8 -5 16z" />
<glyph unicode="Z" horiz-adv-x="1230" d="M100 21v29q0 12 8 23l940 1310q4 5 2.5 11.5t-13.5 6.5h-889q-5 0 -8 1.5t-3 8.5v13q0 8 10 8h938q14 0 13 -13v-10q0 -11 -7 -22l-943 -1337q-2 -2 -2 -6t8 -4h949q8 0 12.5 -2t4.5 -11v-14q0 -6 -3 -9.5t-14 -3.5h-977q-12 0 -19 3.5t-7 17.5z" />
<glyph unicode="[" horiz-adv-x="467" d="M90 -428v1847q0 9 3.5 11t11.5 2h254q8 0 8 -8v-12q0 -8 -8 -8h-225q-6 0 -9 -0.5t-3 -8.5v-1798q0 -8 3 -8.5t9 -0.5h224q9 0 9 -7v-12q0 -4 -1 -6.5t-8 -2.5h-253q-8 0 -11.5 2t-3.5 10z" />
<glyph unicode="\" horiz-adv-x="579" d="M-9 1426q-3 6 3 6h11q5 0 8 -7l564 -1418q2 -5 1.5 -6t-3.5 -1h-10q-5 0 -6 4z" />
<glyph unicode="]" horiz-adv-x="469" d="M92 -418q0 6 6 6h226q6 0 9 0.5t3 8.5v1798q0 8 -3 8.5t-9 0.5h-226q-6 0 -6 6v17q0 5 6 5h255q9 0 12.5 -2t3.5 -11v-1847q0 -8 -3.5 -10t-12.5 -2h-255q-8 -1 -6 6v16z" />
<glyph unicode="^" horiz-adv-x="1036" d="M83 588q3 8 6 17l371 817q5 8 11.5 9t15.5 1h-5h18t12 -8l424 -836q10 -16 4 -19.5t-14 -3.5h2q-11 0 -16 4.5t-10 13.5l-410 815q-1 2 -3 1.5t-4 -1.5l-367 -804q-4 -10 -10.5 -12t-14.5 -2h2q-15 0 -12 8z" />
<glyph unicode="_" horiz-adv-x="1031" d="M80 -222q0 2 1 9t9 7h835q13 0 14.5 -3t1.5 -11v-13q0 -7 -1 -10t-13 -4h-837q-9 0 -9.5 6t-0.5 8v11z" />
<glyph unicode="`" horiz-adv-x="306" d="M62.5 1428q2.5 4 11.5 4h36q12 1 20 -12l103 -148q3 -4 1.5 -10t-9.5 -1l-161 159q-4 4 -1.5 8z" />
<glyph unicode="a" horiz-adv-x="920" d="M82 246q-1 11 -1 22q-1 30 7 60q10 42 36.5 79t68.5 65t102 39q69 13 138.5 28t134.5 37t123 53.5t104 78.5l1 34q0 46 -16 93t-52.5 85t-96.5 62t-148 25q-39 0 -85.5 -10.5t-90 -37.5t-80.5 -74.5t-56 -121.5q-2 -11 -4.5 -13.5t-7.5 -2.5h-20q-9 0 -6 12 q16 74 50.5 127t82 87.5t103 50.5t113.5 16q66 0 128 -15.5t111 -51t78.5 -92t29.5 -138.5l1 -732q0 -11 -11 -11h-14q-11 0 -11 11l1 169q0 3 -1.5 4.5t-3.5 -0.5q-29 -48 -70 -84.5t-90 -61t-103.5 -36.5t-108.5 -12q-149 0 -236 64t-100 192zM118 291v-16q0 -63 22 -109 q24 -52 66 -84t98 -46q49 -12 100 -12h15q60 2 120.5 19.5t111.5 47.5t89.5 71t54.5 92v388q0 5 -3.5 12t-14.5 -2q-19 -14 -37 -28.5t-42 -28.5t-56.5 -28.5t-79.5 -29t-111.5 -29t-152.5 -29.5q-56 -11 -90.5 -38t-54.5 -57t-27.5 -56.5t-7.5 -36.5z" />
<glyph unicode="b" horiz-adv-x="1082" d="M100 11l2 1413q0 8 9 8h15q8 0 8 -8l1 -650q0 -11 4 -12.5t10 6.5q30 43 68 90.5t88 88t115 67t149 26.5q73 -1 134 -22t109 -56t83.5 -82.5t59.5 -101.5t35.5 -113t11.5 -117q0 -55 -10.5 -118t-33 -125t-56.5 -119t-81.5 -100.5t-108.5 -69.5t-137 -26q-43 0 -94 11 t-106 40t-112 79.5t-111 130.5q-8 11 -12 11t-4 -17v-234q0 -11 -11 -11h-14q-11 0 -11 11zM135 691l1 -356q6 -8 21.5 -33.5t41.5 -60.5t62 -73t82 -70t102 -53t122 -21q100 0 175 48.5t124.5 124.5t74.5 168t25 179q0 101 -31.5 186t-85.5 146.5t-126.5 96t-154.5 34.5 q-128 0 -238 -82t-195 -234z" />
<glyph unicode="c" horiz-adv-x="1066" d="M80 528q1 92 22.5 166t56.5 131t81.5 97.5t97.5 67t103 38.5t100 12q50 0 103.5 -6.5t106.5 -29.5t103.5 -67.5t95.5 -120.5q3 -5 5.5 -12t-5.5 -7h-15q-6 0 -9 2t-10 11q-26 37 -56 72.5t-73 63t-102 44.5t-144 17q-87 0 -164 -36t-135 -99.5t-92 -149.5t-34 -185 q0 -64 13 -126.5t38.5 -119.5t62 -106t84 -84.5t104.5 -56t123 -20.5q84 0 149.5 25.5t114 66t81.5 90t51 97.5q4 10 5.5 14t9.5 4h14q13 0 9 -14q-15 -58 -51 -115t-90 -102t-124.5 -72.5t-153.5 -27.5q-110 0 -198 43t-149.5 116.5t-94.5 171.5t-34 207z" />
<glyph unicode="d" horiz-adv-x="1052" d="M81 548q0 -55 10 -118t32 -125t55 -119t79.5 -100.5t106.5 -69.5t134 -26q42 0 92 11t103.5 40t109.5 79.5t108 130.5q8 11 12 11t4 -17v-234q0 -11 11 -11h13q11 0 11 11l-2 1413q0 8 -9 8h-14q-8 0 -8 -8l-1 -650q0 -11 -4 -12.5t-10 6.5q-29 43 -66 90.5t-86 88 t-112.5 67t-145.5 26.5q-71 -1 -131 -22t-107 -56t-81.5 -82.5t-58 -101.5t-34.5 -113t-11 -117zM116 544q0 101 30.5 186t83.5 146.5t124 96t151 34.5q125 0 232.5 -82t190.5 -234l-1 -356q-6 -8 -21 -33.5t-40.5 -60.5t-60.5 -73t-80 -70t-100 -53t-119 -21 q-98 0 -171.5 48.5t-121.5 124.5t-72.5 168t-24.5 179z" />
<glyph unicode="e" horiz-adv-x="1085" d="M80 535q0 80 19.5 148.5t53 124.5t79 99.5t97 73t106.5 44.5t108 15q75 0 137.5 -22t112 -58.5t86.5 -84t62 -98t38 -100t15 -90.5q1 -15 -7.5 -19t-12.5 -4h-839q-19 -1 -19 -22q0 -98 29 -191t83.5 -166t133.5 -117t179 -44h7q78 0 137 20q61 22 105 55t73.5 71.5 t49.5 70.5q6 8 8.5 11t9.5 3h13q7 0 7 -4t-2 -9q-34 -68 -78 -115.5t-95 -78t-108.5 -44.5t-118.5 -14q-114 0 -201.5 46t-147 122t-90 174.5t-30.5 202.5zM120 611q2 -4 2 -8t6 -4h818q13 0 12 13q-3 36 -16.5 79.5t-38 87t-59 85t-79.5 73t-100.5 51t-120.5 19.5 q-81 0 -155 -34.5t-131.5 -90.5t-94.5 -127t-43 -144z" />
<glyph unicode="f" horiz-adv-x="584" d="M80 993v10q0 6 8 6h164q8 0 9 1t1 7l1 197q1 51 18 91.5t41.5 68.5t52 43t49.5 15h40q8 0 8 -7v-9q0 -7 -7 -7h-35q-24 0 -48 -14.5t-43.5 -41.5t-32 -65t-13.5 -86l1 -185q0 -6 1 -7t8 -1h183q8 0 8 -6v-10q0 -7 -7 -7h-185q-6 0 -7 -1t-1 -7l2 -967q0 -11 -11 -11h-14 q-11 0 -11 11l2 967q0 6 -1.5 7t-6.5 1h-166q-8 0 -8 7z" />
<glyph unicode="g" horiz-adv-x="1081" d="M90 538q0 55 11.5 113.5t34.5 114t58.5 105.5t82.5 87.5t107 59.5t133 22q81 0 144.5 -27t113.5 -70.5t88.5 -97t68.5 -105.5q4 -7 6.5 -8t4 1.5t2.5 6t1 6.5l1 213q0 10 8 10h15q9 0 9 -10l2 -940q0 -110 -33.5 -196t-90.5 -145t-131.5 -90.5t-155.5 -31.5 q-67 0 -124.5 22.5t-103 55t-76.5 67.5t-45 60q-5 7 1.5 8t9.5 1h16q10 0 13 -4t10 -12q23 -33 56 -63t71.5 -52t79.5 -35t80 -13q77 0 146.5 28t122.5 82t85 132.5t33 179.5v232q0 17 -4.5 17t-11.5 -11q-51 -81 -100 -132t-99.5 -79.5t-103.5 -39t-113 -10.5 q-91 0 -168.5 42t-134 115.5t-88.5 173.5t-32 217zM126 520q0 -96 29.5 -185.5t82 -158.5t124.5 -110.5t158 -41.5q40 0 88 8.5t102.5 40.5t113.5 93.5t121 168.5l1 329q-41 76 -89.5 139t-103.5 108.5t-116.5 70.5t-130.5 25q-75 0 -144 -37t-121.5 -102t-83.5 -154 t-31 -194z" />
<glyph unicode="h" horiz-adv-x="932" d="M100 11l2 1413q0 8 9 8h15q8 0 8 -8l-2 -607q0 -9 4.5 -9t9.5 6q43 45 93 86t106.5 72t118.5 49.5t129 18.5q37 0 79.5 -13t77.5 -41q36 -30 59 -76q22 -45 22 -107v-6l1 -786q0 -11 -11 -11h-14q-11 0 -11 11l1 768v7q0 56 -16 96q-17 44 -47.5 71.5t-74 40.5t-94.5 13 q-46 0 -96 -16t-98 -41t-91.5 -56t-76 -61.5t-51 -57.5t-17.5 -43l1 -721q0 -11 -11 -11h-14q-11 0 -11 11z" />
<glyph unicode="i" horiz-adv-x="308" d="M130 11q0 -11 11 -11h16q11 0 11 11l-4 1009q0 9 -9 9h-11q-9 0 -9 -9zM135 1317l2 107q0 8 5 8h14q4 0 4 -9l3 -106q0 -4 -3.5 -5t-7.5 -1h-7q-10 0 -10 6z" />
<glyph unicode="j" horiz-adv-x="368" d="M80 -401v-14q0 -10 12 -10h34q24 0 49 2.5t46 14.5t34 37.5t13 72.5l-4 1318q0 9 -9 9h-11q-9 0 -9 -9l-6 -1322q0 -32 -9 -50t-26.5 -26.5t-43 -10.5t-58.5 -2q-12 0 -12 -10zM234 1317l2 107q0 8 5 8h14q4 0 4 -9l3 -106q0 -4 -3.5 -5t-7.5 -1h-7q-10 0 -10 6z" />
<glyph unicode="k" horiz-adv-x="950" d="M100 11l2 1413q0 8 9 8h15q8 0 8 -9l1 -923q0 -29 17 -15l594 535q9 9 19 9h15q11 0 1 -10l-407 -373q-10 -13 -1 -28l479 -598q11 -13 7.5 -16.5t-8.5 -3.5h-15q-8 0 -12.5 2t-9.5 9l-464 589q-6 8 -13 5.5t-14 -9.5l-182 -164q-6 -6 -6 -18l1 -403q0 -11 -11 -11h-14 q-11 0 -11 11z" />
<glyph unicode="l" horiz-adv-x="326" d="M140 11l2 1413q0 8 9 8h15q8 0 8 -8l2 -1413q0 -11 -11 -11h-14q-11 0 -11 11z" />
<glyph unicode="m" horiz-adv-x="1584" d="M100 11l5 1009q0 9 9 9h11q9 0 9 -9l1 -203q0 -9 4.5 -9t9.5 6q44 46 92 87t100.5 72t108.5 49t116 18q56 0 102 -19t78.5 -52t50.5 -76t18 -91q0 -12 4.5 -13t9.5 10q24 52 65.5 96t96 76.5t120 50.5t137.5 18q34 0 74 -12t75 -40t59 -73.5t25 -112.5l3 -791 q0 -11 -11 -11h-16q-11 0 -11 11l4 768q0 58 -17.5 100.5t-48.5 71t-74.5 42.5t-94.5 14q-37 0 -80 -11t-86 -30.5t-83 -47t-70.5 -60.5t-48.5 -71t-18 -78l3 -698q0 -11 -11 -11h-16q-11 0 -11 11l3 730q0 64 -17 113.5t-50 83.5t-79.5 51.5t-104.5 17.5q-42 0 -89 -16 t-92.5 -41t-87 -56t-73.5 -61.5t-50.5 -57.5t-18.5 -43l3 -721q0 -11 -11 -11h-16q-11 0 -11 11z" />
<glyph unicode="n" horiz-adv-x="932" d="M100 11l5 1009q0 9 9 9h11q9 0 9 -9l1 -203q0 -9 4.5 -9t9.5 6q40 45 89.5 86t106.5 72t120.5 49.5t130.5 18.5q37 0 78.5 -12t75.5 -40q36 -28 58 -74q22 -44 21 -106v-6l3 -791q0 -11 -11 -11h-16q-11 0 -11 11l4 768v7q0 58 -16 98q-17 44 -48.5 71t-75 39.5 t-94.5 12.5q-47 0 -97 -16t-97.5 -41.5t-90.5 -57t-75 -62t-50.5 -57.5t-18.5 -43l3 -719q0 -11 -11 -11h-16q-11 0 -11 11z" />
<glyph unicode="o" horiz-adv-x="1136" d="M100 528q0 100 32.5 192.5t93.5 163.5t148 113.5t195 42.5q107 0 193.5 -42.5t147 -113.5t93.5 -163.5t33 -192.5q0 -98 -27.5 -194t-85 -172.5t-145.5 -124t-209 -47.5q-82 0 -148.5 22.5t-118.5 61.5t-90 91.5t-63 112t-37 123.5t-12 127zM134 537q0 -103 29 -196 t84.5 -163.5t136.5 -112t185 -41.5q105 0 185.5 41.5t134.5 111t82.5 160.5t30.5 191q0 51 -10.5 106.5t-33 108.5t-57.5 101t-83 84t-110 57.5t-139 21.5q-112 0 -194 -44.5t-135.5 -113.5t-79.5 -152t-26 -160z" />
<glyph unicode="p" horiz-adv-x="1092" d="M100 -427l6 1386q0 10 8 10h13q8 0 8 -10l1 -212q0 -2 0.5 -5.5t2 -6t4 -1.5t7.5 7q30 47 70 99.5t92 97t116 73.5t142 29q73 0 133.5 -23.5t108.5 -63t84 -92t59.5 -110.5t35 -118t11.5 -115q0 -98 -26 -192.5t-79 -169t-133.5 -120.5t-189.5 -46q-51 0 -105 12 t-107.5 41.5t-106 80t-101.5 127.5q-8 11 -12 11t-4 -17l2 -672q0 -13 -13 -13h-15q-12 0 -12 13zM137 664l1 -329q41 -76 85 -129t87.5 -87.5t86 -53.5t79.5 -28t67.5 -11t51.5 -2q82 0 150.5 41t117.5 108.5t76 154t27 176.5q0 103 -31.5 194.5t-84.5 160t-123 108.5 t-146 40q-70 0 -132.5 -25t-117.5 -70t-103.5 -108.5t-90.5 -139.5z" />
<glyph unicode="q" horiz-adv-x="1082" d="M90 518q0 -98 26 -192.5t78.5 -169t132 -120.5t186.5 -46q51 0 104.5 12t106 41.5t104.5 80t101 127.5q8 11 12 11t4 -17l-2 -672q0 -13 12 -13h15q12 0 12 13l-6 1385q0 10 -8 10h-13q-7 0 -7 -10l-1 -212q0 -2 -0.5 -5t-2 -5.5t-4 -1.5t-7.5 7q-30 46 -69.5 98.5 t-91 97t-114.5 73.5t-141 29q-72 0 -131.5 -23.5t-107 -63t-83 -92t-59 -110t-35 -117.5t-11.5 -115zM126 504q0 103 31 194t83.5 159.5t121.5 108.5t145 40q69 0 130.5 -25t116 -70t102.5 -108t90 -139l-1 -329q-41 -76 -84.5 -129t-86.5 -87.5t-85 -53.5t-78.5 -28 t-67 -11t-50.5 -2q-81 0 -149 41t-116.5 108.5t-75 154t-26.5 176.5z" />
<glyph unicode="r" horiz-adv-x="607" d="M100 11l5 1009q0 9 9 9h11q9 0 9 -9l1 -205q0 -12 3.5 -13t6.5 3q36 48 77.5 90.5t87.5 74.5t95.5 51t101.5 19q10 0 10 -9v-14q0 -10 -10 -10q-45 0 -90.5 -18t-86.5 -46t-77 -61.5t-62 -63.5t-41 -53.5t-15 -30.5l3 -723q0 -11 -11 -11h-16q-11 0 -11 11z" />
<glyph unicode="s" horiz-adv-x="928" d="M91 250.5q0 4.5 9 4.5h12q10 0 13 -2.5t5 -6.5q14 -28 38.5 -66t66 -72.5t102.5 -59t148 -24.5q67 0 123.5 19.5t97 54.5t63 85t22.5 110q0 58 -28 95.5t-73.5 61.5t-103.5 39.5t-118.5 30t-118.5 32.5t-103.5 48t-73.5 75.5t-28 115.5q0 66 28.5 113.5t72.5 77.5 t98.5 44t105.5 14q126 0 208.5 -47.5t130.5 -153.5q2 -4 1.5 -8t-8.5 -4h-10q-8 0 -11.5 1.5t-8.5 11.5q-23 38 -49.5 69t-61 52.5t-78.5 33.5t-102 12q-74 0 -127 -19.5t-87.5 -50t-51 -68t-16.5 -73.5q0 -65 28 -106t73.5 -67.5t104 -43t119.5 -30.5t119.5 -31t104 -45 t73.5 -71.5t28 -111.5q0 -59 -17 -104t-45 -78.5t-63.5 -56t-72.5 -36t-72.5 -19.5t-62.5 -6q-144 0 -244 61t-159 193q-1 2 -1 6.5z" />
<glyph unicode="t" horiz-adv-x="604" d="M90 993v10q0 6 8 6h166q6 0 7 1t1 7v407q0 8 9 8h15q8 0 8 -8v-407q0 -6 1 -7t7 -1h184q8 0 8 -6v-10q0 -7 -7 -7h-185q-6 0 -7 -1t-1 -7l2 -967q0 -11 -11 -11h-14q-11 0 -11 11l2 967q0 6 -1 7t-7 1h-166q-8 0 -8 7z" />
<glyph unicode="u" horiz-adv-x="931" d="M101 389l4 631q0 9 9 9h11q9 0 9 -9l2 -641q1 -36 5.5 -76t16 -79.5t32 -75.5t53 -63.5t78.5 -44t110 -16.5q45 0 89.5 13.5t85 35.5t75 50t60 57t40 56t14.5 48l3 736q0 9 9 9h11q9 0 9 -9l4 -1009q0 -11 -11 -11h-16q-11 0 -11 11l1 170q0 3 -2 4.5t-4 -1.5 q-29 -39 -68.5 -74t-86.5 -62t-99.5 -42.5t-107.5 -15.5q-89 0 -151.5 31t-101.5 84.5t-56 126.5q-16 69 -16 148v9z" />
<glyph unicode="v" horiz-adv-x="1003" d="M91 1020q-4 9 5 9h15q8 0 12 -9l360 -965q4 -10 8 -10.5t9 10.5l370 965q4 9 13 9h12q10 0 6 -9l-378 -1012q-3 -8 -7 -8h-49q-6 0 -9 8z" />
<glyph unicode="w" horiz-adv-x="1508" d="M91 1020q-3 9 5 9h15q9 0 12 -9l304 -966q2 -8 7 -8t7 8l284 966q2 5 5 7t12 2h18q14 0 17 -9l291 -966q2 -8 7.5 -8t7.5 8l291 966q3 9 13 9h13q10 0 6 -9l-301 -1009q-3 -11 -14 -11h-31q-13 0 -17 11l-285 966q-8 22 -14 0l-281 -965q-4 -12 -15 -12h-25q-12 0 -16 11 z" />
<glyph unicode="x" horiz-adv-x="1042" d="M90 3.5q0 3.5 3 7.5l395 523q3 5 3 6.5t-2 4.5l-329 475q-2 2 -2 5.5t6 3.5h19q7 0 9.5 -2.5t5.5 -6.5l310 -447q8 -11 17 0l312 447q6 9 17 9h20q11 0 4 -9l-333 -474q-2 -4 -2 -5.5t3 -6.5l392 -523q3 -4 3.5 -7.5t-6.5 -3.5h-20q-7 0 -11 2t-9 9l-371 496q-5 8 -8 8 t-8 -8l-371 -496q-5 -8 -9 -9.5t-12 -1.5h-19q-7 0 -7 3.5z" />
<glyph unicode="y" horiz-adv-x="1003" d="M91 1020q-4 9 7 9h13q6 0 7.5 -1t4.5 -8l361 -966q4 -10 9 -10.5t9 10.5l368 966q4 9 12 9h14q9 0 5 -9l-540 -1447q-4 -10 -6.5 -11.5t-8.5 -1.5h-21q-9 0 -5 11l148 401q3 7 1 16z" />
<glyph unicode="z" horiz-adv-x="891" d="M90 21v31q0 13 9 24l640 904q8 11 6 14.5t-13 3.5h-612q-10 0 -10 10v11q0 5 1.5 7.5t9.5 2.5h641q10 0 11.5 -5t1.5 -9v-27q0 -11 -8 -22l-644 -911q-7 -11 -6 -15t12 -4h652q4 0 6.5 -1.5t2.5 -9.5v-11q0 -8 -0.5 -11t-5.5 -3h-673q-12 0 -16.5 5t-4.5 16z" />
<glyph unicode="{" horiz-adv-x="673" d="M90 542v32q0 10 3.5 13.5t14.5 5.5q54 12 83.5 55t29.5 100v448q0 112 56.5 174t152.5 62h134q9 0 9 -9v-11q0 -4 -1.5 -6t-7.5 -2h-122q-62 1 -99.5 -20t-57.5 -55.5t-26.5 -76.5t-6.5 -83v-433q0 -56 -31.5 -101.5t-79.5 -65.5q-9 -4 -10 -10.5t10 -10.5 q25 -10 45.5 -28.5t35 -42t22.5 -51t8 -55.5v-520q0 -37 6 -78.5t25.5 -76.5t57.5 -57.5t101 -20.5h123q8 0 8 -7v-12q0 -9 -9 -9h-134q-44 0 -82 14t-65.5 43.5t-43.5 76t-16 112.5l-2 519q0 72 -31.5 114.5t-85.5 56.5q-14 3 -14 16z" />
<glyph unicode="|" horiz-adv-x="232" d="M100 -435v1994q0 6 5 6h13q4 0 4 -6v-1994q0 -5 -5 -5h-12q-5 0 -5 5z" />
<glyph unicode="}" horiz-adv-x="673" d="M100 -389v-12q0 -9 9 -9h134q44 0 82 14t65.5 43.5t43.5 76t16 112.5l2 519q0 72 31.5 114.5t85.5 56.5q14 3 14 16v32q0 10 -3.5 13.5t-14.5 5.5q-54 12 -83.5 55t-29.5 100v448q0 112 -56.5 174t-152.5 62h-134q-9 0 -9 -9v-11q0 -4 1.5 -6t7.5 -2h122q62 1 99.5 -20 t57.5 -55.5t26.5 -76.5t6.5 -83v-433q0 -56 31.5 -101.5t79.5 -65.5q9 -4 10 -10.5t-10 -10.5q-25 -10 -45.5 -28.5t-35 -42t-22.5 -51t-8 -55.5v-520q0 -37 -6 -78.5t-25.5 -76.5t-57.5 -57.5t-101 -20.5h-123q-8 0 -8 -7z" />
<glyph unicode="&#xa1;" horiz-adv-x="316" d="M130 1008q0 12 2 16.5t10 4.5h21q9 0 11 -4.5t2 -16.5l-3 -111q0 -14 -10 -14h-21q-10 0 -10 14zM135 -425q0 -9 2.5 -12t9.5 -3h13q7 0 9.5 3t2.5 12l-2 1074q0 8 -8 8h-17q-9 0 -9 -8z" />
<glyph unicode="&#xa3;" horiz-adv-x="1004" d="M79 21l1 30q0 16 6.5 19.5t14.5 9.5q43 34 83.5 91.5t67.5 133.5t36 169t-10 198q-3 15 -20 15h-153q-9 0 -12 2.5t-3 10.5v12q0 8 3 10.5t12 2.5h129q12 0 17.5 5t-2.5 13q-17 25 -40.5 62t-45 81t-37 93t-16.5 99q-1 67 18 120.5t51.5 94t74.5 69t86.5 46.5t88 26.5 t79.5 8.5q72 0 134.5 -19t112.5 -56t85 -91.5t52 -125.5q2 -9 2.5 -15.5t-8.5 -6.5h-13q-11 0 -13.5 5t-4.5 16q-13 51 -40 98.5t-70 84t-103.5 58.5t-141.5 22q-31 0 -69.5 -8.5t-78 -26t-77 -44.5t-66.5 -63.5t-47 -83t-18 -103.5q0 -53 15.5 -101.5t39 -93t50 -83.5 t47.5 -72q6 -7 17 -9h252q14 0 14 -14v-9q0 -9 -3 -12t-11 -3h-224q-9 0 -17 -7t-3 -19q18 -126 2.5 -228t-47.5 -178.5t-71.5 -126t-68.5 -69.5q-9 -7 -8 -12t15 -5h778q10 0 13 -3t3 -11v-14q0 -14 -14 -14h-817q-16 0 -21.5 3.5t-5.5 17.5z" />
<glyph unicode="&#xa5;" horiz-adv-x="1112" d="M71.5 1429q1.5 3 11.5 3h11q8 0 12 -2.5t10 -10.5l428 -640q7 -7 10.5 -7t10.5 7l429 641q5 7 9 9.5t14 2.5h13q14 0 8 -9l-461 -689q-2 -5 -4 -9.5t-2 -9.5v-38h200q16 0 16 -14v-10q-1 -9 -3.5 -11.5t-10.5 -3.5h-202v-137h200q16 0 16 -14v-10q-1 -9 -3.5 -11.5 t-10.5 -3.5h-204l3 -451q0 -11 -11 -11h-14q-11 0 -11 11l-1 451h-199q-10 0 -13 3t-3 12v8q0 9 3 12.5t13 3.5h199l2 137h-201q-10 0 -13 3t-3 12v8q0 9 3 12.5t13 3.5h201l-1 38q0 11 -5 19l-459 689q-2 3 -0.5 6z" />
<glyph unicode="&#xa8;" horiz-adv-x="327" d="M51 1317l2 107q0 8 5 8h14q4 0 4 -9l3 -106q0 -4 -3.5 -5t-7.5 -1h-7q-10 0 -10 6zM249 1317l2 107q0 8 5 8h14q4 0 4 -9l3 -106q0 -4 -3.5 -5t-7.5 -1h-7q-10 0 -10 6z" />
<glyph unicode="&#xa9;" horiz-adv-x="1625" d="M83 724q0 101 26 194t73 172.5t113.5 144.5t147.5 111.5t174 71.5t195 25q101 0 194.5 -25t174.5 -71.5t147.5 -111.5t114 -144.5t73.5 -172.5t26 -194t-26 -195t-73.5 -175.5t-114 -148.5t-147.5 -115t-174.5 -74t-194.5 -26q-102 0 -195.5 26t-174.5 74t-147 115 t-113.5 148.5t-73 175.5t-25.5 195zM113 724q0 -97 25 -186.5t70.5 -167.5t109 -142t141 -109.5t167 -70.5t186.5 -25t186.5 25t167 70.5t141.5 109.5t109.5 142t70.5 167.5t25 186.5t-25 185.5t-70.5 165t-109.5 139t-141.5 107t-167 68.5t-186.5 24t-186.5 -24t-167 -68.5 t-141 -107t-109 -139t-70.5 -165t-25 -185.5zM458 723q0 95 31 171t82.5 129t117.5 81t135 28q47 0 92 -11t84.5 -33t71.5 -54t53 -74q6 -14 5.5 -18.5t-8.5 -4.5h-15q-8 0 -11 3t-8 12q-34 66 -101 105.5t-163 39.5q-76 0 -137.5 -31.5t-105 -83.5t-67 -117.5t-23.5 -134.5 q0 -79 25.5 -148.5t70 -121t105.5 -81.5t132 -30q41 0 83 12t79.5 36t68 60t48.5 84q4 18 18 18h13q7 0 8.5 -5.5t-3.5 -19.5q-9 -28 -32.5 -66t-62.5 -72t-94 -58t-126 -24t-137 28.5t-117 81.5t-81.5 128.5t-30.5 170.5z" />
<glyph unicode="&#xab;" horiz-adv-x="644" d="M73 555v18q0 5 1 9t10 9l225 150q8 5 8 -7v-7q0 -11 -2 -14t-10 -10l-199 -131q-5 -5 -5 -6.5t5 -5.5l199 -145q10 -8 11 -12.5t1 -15.5v-2q0 -8 -1 -11t-7 0l-225 165q-9 5 -10 8.5t-1 7.5zM316 555v18q0 5 1 9t10 9l225 150q8 5 8 -7v-7q0 -11 -2 -14t-10 -10 l-199 -131q-5 -5 -5 -6.5t5 -5.5l199 -145q10 -8 11 -12.5t1 -15.5v-2q0 -8 -1 -11t-7 0l-225 165q-9 5 -10 8.5t-1 7.5z" />
<glyph unicode="&#xad;" horiz-adv-x="635" d="M84 593q0 9 3 12.5t13 3.5h435q16 0 16 -14q-1 -9 -3.5 -11.5t-10.5 -3.5h-437q-10 0 -13 3t-3 12v-2z" />
<glyph unicode="&#xae;" horiz-adv-x="573" d="M79 1234q0 44 16.5 82t44.5 66.5t66 44.5t81 16t81 -16t66 -44.5t44 -66.5t16 -82q0 -43 -16 -80.5t-44 -65t-66 -43.5t-81 -16t-81 16t-66 43.5t-44.5 65t-16.5 80.5zM120 1234q0 -34 13.5 -63.5t36 -52t53 -35.5t64.5 -13t64 13t52.5 35.5t36 52t13.5 63.5 q0 35 -13.5 65.5t-36 53t-52.5 35.5t-64 13t-64.5 -13t-53 -35.5t-36 -53t-13.5 -65.5zM214 1145l3 186q0 2 -1 2h69q11 0 22.5 -3t20.5 -10t15 -18t6 -27q0 -21 -13 -34t-30 -12q-4 0 -2 -2l70 -81q-1 -1 0.5 -2t-0.5 -1h-28q-2 0 -5 1l-58 74v2h-41q-3 0 -3 -1.5v-3.5 l-1 -70q0 -2 1 -2h-23q-2 0 -2 2zM240 1243q0 -4 2 -4h44q39 0 39 38q0 17 -13 24.5t-28 7.5h-41h-2z" />
<glyph unicode="&#xb0;" horiz-adv-x="573" d="M79 1234q0 44 16.5 82t44.5 66.5t66 44.5t81 16t81 -16t66 -44.5t44 -66.5t16 -82q0 -43 -16 -80.5t-44 -65t-66 -43.5t-81 -16t-81 16t-66 43.5t-44.5 65t-16.5 80.5zM105 1234q0 -37 14.5 -69.5t39 -57t57.5 -39t71 -14.5q37 0 70 14.5t57.5 39t39 57t14.5 69.5 q0 38 -14.5 71.5t-39 58t-57.5 38.5t-70 14q-38 0 -71 -14t-57.5 -38.5t-39 -58t-14.5 -71.5z" />
<glyph unicode="&#xb4;" horiz-adv-x="307" d="M72 1262.5q-2 6.5 1 9.5l103 148q8 13 21 12h35q7 0 11 -4t0 -8l-162 -159q-7 -5 -9 1.5z" />
<glyph unicode="&#xb6;" horiz-adv-x="985" d="M69 946q0 101 28 189.5t99 154.5t192.5 104t307.5 38h205v-1872h-111v1740h-144v-1740h-105v951q-44 0 -96.5 10.5t-104.5 33t-101 57.5t-87 83.5t-60.5 110.5t-22.5 140z" />
<glyph unicode="&#xb8;" horiz-adv-x="410" d="M75 -317.5q3 1.5 14 1.5h-5q17 0 18 -11q10 -44 39.5 -61.5t60.5 -17.5q34 0 55.5 15.5t33.5 37.5t16 46t4 40q0 18 -4 36t-14 33t-26.5 25.5t-41.5 12.5q-7 0 -10.5 -1.5t-6.5 -3.5l-6 -4t-8 -2q-8 0 -9 5t-1 13l4 129q1 9 -1.5 13.5t-7 6.5t-9 2.5t-8.5 1.5l13 26h49 l14 -20q-27 -2 -27 -28l1 -93q0 -7 3.5 -12.5t10.5 -6.5q33 -3 54.5 -17.5t34 -34t17.5 -41.5t5 -40q0 -26 -6 -54.5t-21.5 -53.5t-41.5 -41t-66 -16q-29 0 -51.5 9.5t-38.5 24t-25 31.5t-12 32q-3 16 0 17.5z" />
<glyph unicode="&#xbb;" horiz-adv-x="727" d="M153 385q0 -8 1 -11t7 0l225 165q9 5 10 8.5t1 7.5v18q0 5 -1 9t-10 9l-225 150q-8 5 -8 -7v-7q0 -11 2 -14t10 -10l199 -131q5 -5 5 -6.5t-5 -5.5l-199 -145q-10 -8 -11 -12.5t-1 -15.5v-2zM396 385q0 -8 1 -11t7 0l225 165q9 5 10 8.5t1 7.5v18q0 5 -1 9t-10 9 l-225 150q-8 5 -8 -7v-7q0 -11 2 -14t10 -10l199 -131q5 -5 5 -6.5t-5 -5.5l-199 -145q-10 -8 -11 -12.5t-1 -15.5v-2z" />
<glyph unicode="&#xbf;" horiz-adv-x="971" d="M67 -79q0 -68 26.5 -132.5t77 -115.5t122.5 -82t163 -31q62 0 127.5 18.5t125 58.5t109 104t78.5 155q7 19 5 22.5t-7 3.5h-12q-5 0 -7.5 -2t-7.5 -17q-22 -68 -60 -125t-90 -99t-118.5 -65.5t-145.5 -23.5q-88 0 -154 30.5t-110.5 78.5t-66.5 107.5t-22 117.5 q0 92 31.5 159.5t85.5 122t127 101.5t156 98q18 10 18 31l1 209q0 5 -1.5 8.5t-8.5 3.5h-16q-7 0 -8.5 -3.5t-1.5 -8.5l1 -196q0 -8 -10 -17q-46 -31 -93.5 -60.5t-93 -62t-85.5 -69.5t-70 -83.5t-47.5 -104.5t-17.5 -131zM478 1008q0 12 2 16.5t10 4.5h21q9 0 11 -4.5 t2 -16.5l-3 -111q0 -14 -10 -14h-21q-10 0 -10 14z" />
<glyph unicode="&#xc0;" d="M80.5 3q-0.5 3 1.5 8l576 1413q3 8 9 8h18q5 0 8 -8l568 -1413q4 -11 -6 -11h-15q-8 0 -11 3t-5 8l-200 493q-5 10 -7.5 11.5t-14.5 1.5h-657q-14 0 -17 -1.5t-8 -12.5l-200 -492q-5 -11 -13 -11h-18q-8 0 -8.5 3zM340.5 549q1.5 -2 14.5 -2h637q13 0 14.5 2t-3.5 13 l-318 802q-4 9 -9.5 9t-9.5 -9l-322 -802q-5 -11 -3.5 -13zM496.5 1814q2.5 4 11.5 4h36q12 1 20 -12l103 -148q3 -4 1.5 -10t-9.5 -1l-161 159q-4 4 -1.5 8z" />
<glyph unicode="&#xc1;" d="M80.5 3q-0.5 3 1.5 8l576 1413q3 8 9 8h18q5 0 8 -8l568 -1413q4 -11 -6 -11h-15q-8 0 -11 3t-5 8l-200 493q-5 10 -7.5 11.5t-14.5 1.5h-657q-14 0 -17 -1.5t-8 -12.5l-200 -492q-5 -11 -13 -11h-18q-8 0 -8.5 3zM340.5 549q1.5 -2 14.5 -2h637q13 0 14.5 2t-3.5 13 l-318 802q-4 9 -9.5 9t-9.5 -9l-322 -802q-5 -11 -3.5 -13zM671 1647.5q-2 6.5 1 9.5l103 148q8 13 21 12h35q7 0 11 -4t0 -8l-162 -159q-7 -5 -9 1.5z" />
<glyph unicode="&#xc2;" d="M80.5 3q-0.5 3 1.5 8l576 1413q3 8 9 8h18q5 0 8 -8l568 -1413q4 -11 -6 -11h-15q-8 0 -11 3t-5 8l-200 493q-5 10 -7.5 11.5t-14.5 1.5h-657q-14 0 -17 -1.5t-8 -12.5l-200 -492q-5 -11 -13 -11h-18q-8 0 -8.5 3zM340.5 549q1.5 -2 14.5 -2h637q13 0 14.5 2t-3.5 13 l-318 802q-4 9 -9.5 9t-9.5 -9l-322 -802q-5 -11 -3.5 -13zM500.5 1653q1.5 6 8.5 13l138 142q5 5 9 7.5t12 2.5h11q7 0 10.5 -2t9.5 -8l143 -142q7 -7 8.5 -13t-12.5 -6h-28q-10 0 -14 1t-10 9l-107 132q-4 5 -9 0l-105 -132q-6 -8 -9.5 -9t-13.5 -1h-32q-11 0 -9.5 6z" />
<glyph unicode="&#xc3;" d="M80.5 3q-0.5 3 1.5 8l576 1413q3 8 9 8h18q5 0 8 -8l568 -1413q4 -11 -6 -11h-15q-8 0 -11 3t-5 8l-200 493q-5 10 -7.5 11.5t-14.5 1.5h-657q-14 0 -17 -1.5t-8 -12.5l-200 -492q-5 -11 -13 -11h-18q-8 0 -8.5 3zM340.5 549q1.5 -2 14.5 -2h637q13 0 14.5 2t-3.5 13 l-318 802q-4 9 -9.5 9t-9.5 -9l-322 -802q-5 -11 -3.5 -13zM354 1608q2 14 9.5 33.5t21.5 37t35.5 30t51.5 12.5q34 0 59 -16t47 -35t43.5 -35t50.5 -16q24 0 41 8.5t29 20t19 23.5t10 20q5 10 11 6.5t4 -13.5q-13 -53 -38.5 -78.5t-78.5 -25.5q-28 0 -51.5 15.5t-47 33.5 t-47 33.5t-51.5 15.5q-16 0 -28 -3t-23.5 -10.5t-23 -21.5t-26.5 -36q-4 -9 -11.5 -9.5t-5.5 10.5z" />
<glyph unicode="&#xc4;" d="M80.5 3q-0.5 3 1.5 8l576 1413q3 8 9 8h18q5 0 8 -8l568 -1413q4 -11 -6 -11h-15q-8 0 -11 3t-5 8l-200 493q-5 10 -7.5 11.5t-14.5 1.5h-657q-14 0 -17 -1.5t-8 -12.5l-200 -492q-5 -11 -13 -11h-18q-8 0 -8.5 3zM340.5 549q1.5 -2 14.5 -2h637q13 0 14.5 2t-3.5 13 l-318 802q-4 9 -9.5 9t-9.5 -9l-322 -802q-5 -11 -3.5 -13zM551 1631l2 107q0 8 5 8h14q4 0 4 -9l3 -106q0 -4 -3.5 -5t-7.5 -1h-7q-10 0 -10 6zM782 1631l2 107q0 8 5 8h14q4 0 4 -9l3 -106q0 -4 -3.5 -5t-7.5 -1h-7q-10 0 -10 6z" />
<glyph unicode="&#xc5;" d="M80.5 3q-0.5 3 1.5 8l576 1413q3 8 9 8h18q5 0 8 -8l568 -1413q4 -11 -6 -11h-15q-8 0 -11 3t-5 8l-200 493q-5 10 -7.5 11.5t-14.5 1.5h-657q-14 0 -17 -1.5t-8 -12.5l-200 -492q-5 -11 -13 -11h-18q-8 0 -8.5 3zM340.5 549q1.5 -2 14.5 -2h637q13 0 14.5 2t-3.5 13 l-318 802q-4 9 -9.5 9t-9.5 -9l-322 -802q-5 -11 -3.5 -13zM540 1638q0 28 10.5 53t29 44t43 29.5t52.5 10.5q29 0 54 -10.5t43.5 -29.5t29 -44t10.5 -53t-10.5 -52.5t-29 -42.5t-43.5 -28.5t-54 -10.5q-28 0 -52.5 10.5t-43 28.5t-29 42.5t-10.5 52.5zM580 1638 q0 -42 26 -68.5t69 -26.5q45 0 71 26.5t26 68.5q0 45 -26 70.5t-71 25.5q-43 0 -69 -25.5t-26 -70.5z" />
<glyph unicode="&#xc6;" horiz-adv-x="1524" d="M74.5 2q-0.5 2 0.5 4l595 1419q0 2 2.5 4.5t7.5 2.5h722q8 0 9 -2.5t1 -10.5l-1 -7q-1 1 0 -4.5t-7 -5.5h-709q-5 -2 -8 -2.5t-3 -5.5l110 -585q4 -6 7.5 -7.5t4.5 -1.5l547 2q7 0 9 -2t2 -11l1 -6q0 -9 -2.5 -10t-10.5 -1h-537q-7 0 -8.5 -3.5t-3.5 -5.5l138 -721 q2 0 4.5 -1.5t7.5 -1.5h487q14 0 15.5 -4.5t2.5 -6.5l2 -12q0 -15 -4.5 -15.5t-12.5 -0.5h-510q-10 0 -15.5 4.5t-7.5 16.5l-87 480q-1 6 -5.5 11t-11.5 5h-479q-12 0 -17 -11l-202 -494q-2 -5 -4 -8.5t-9 -3.5h-10q-10 0 -10.5 2zM333 554.5q4 -4.5 15 -4.5h454q15 0 10 22 l-143 783q-1 5 -3 2t-3 -5l-328 -781q-6 -12 -2 -16.5z" />
<glyph unicode="&#xc7;" horiz-adv-x="1377" d="M74 730q0 156 42.5 288t122.5 229t196.5 151.5t264.5 54.5q114 0 202.5 -25t155 -72t114.5 -115t83 -155q6 -14 9.5 -27t-10.5 -13h1q-14 0 -18.5 4t-10.5 18q-25 61 -62 124t-97 114.5t-149 84t-218 32.5q-125 0 -233 -47.5t-187.5 -135.5t-125 -213.5t-45.5 -281.5 q0 -146 39 -275t114.5 -226.5t185.5 -154t252 -56.5q115 0 207.5 37.5t162 98t115.5 137.5t70 155l7.5 16.5t13.5 5.5h6q8 0 10.5 -2.5t2.5 -6.5t-2 -8.5t-3 -8.5q-40 -113 -94 -193t-120 -133.5t-143 -84t-162 -45.5q-11 -2 -13 -5t-3 -8q-1 -9 -1.5 -24t-1.5 -31t-1 -32 t1 -27q0 -5 5 -6.5t10 -1.5q33 -4 54 -18.5t34 -34t18 -41t5 -39.5q0 -26 -6.5 -54.5t-22 -53.5t-41.5 -41t-65 -16q-29 0 -51.5 9.5t-38.5 24t-25 31.5t-12 32q-4 16 -1 17.5t14 1.5h-4q16 0 18 -11q4 -22 14.5 -37t24.5 -24.5t30 -13.5t31 -4q34 0 55.5 15.5t33.5 37.5 t16 45.5t4 40.5q0 18 -4 36t-14 33t-27 25.5t-42 12.5q-7 0 -10.5 -1.5t-6.5 -3.5l-6 -4t-8 -2q-8 0 -8.5 5t-0.5 13l2 136q0 13 -8 13q-107 -2 -196 25t-161 77t-126 119t-90 151.5t-54 174.5t-18 187z" />
<glyph unicode="&#xc8;" horiz-adv-x="1035" d="M90 11l2 1413q0 8 9 8h798q11 0 11 -9v-13q0 -9 -10 -9h-760q-11 0 -12.5 -1.5t-1.5 -11.5l1 -570q0 -12 2 -14t13 -2h695q10 0 10 -7v-14q0 -9 -10 -9h-698q-9 0 -10.5 -1.5t-1.5 -9.5l4 -707q0 -11 2 -12.5t13 -1.5h778q11 0 11 -11v-18q0 -11 -11 -11h-823 q-11 0 -11 11zM365.5 1814q2.5 4 11.5 4h36q12 1 20 -12l103 -148q3 -4 1.5 -10t-9.5 -1l-161 159q-4 4 -1.5 8z" />
<glyph unicode="&#xc9;" horiz-adv-x="1035" d="M90 11l2 1413q0 8 9 8h798q11 0 11 -9v-13q0 -9 -10 -9h-760q-11 0 -12.5 -1.5t-1.5 -11.5l1 -570q0 -12 2 -14t13 -2h695q10 0 10 -7v-14q0 -9 -10 -9h-698q-9 0 -10.5 -1.5t-1.5 -9.5l4 -707q0 -11 2 -12.5t13 -1.5h778q11 0 11 -11v-18q0 -11 -11 -11h-823 q-11 0 -11 11zM429 1651.5q-2 6.5 1 9.5l103 148q8 13 21 12h35q7 0 11 -4t0 -8l-162 -159q-7 -5 -9 1.5z" />
<glyph unicode="&#xca;" horiz-adv-x="1035" d="M90 11l2 1413q0 8 9 8h798q11 0 11 -9v-13q0 -9 -10 -9h-760q-11 0 -12.5 -1.5t-1.5 -11.5l1 -570q0 -12 2 -14t13 -2h695q10 0 10 -7v-14q0 -9 -10 -9h-698q-9 0 -10.5 -1.5t-1.5 -9.5l4 -707q0 -11 2 -12.5t13 -1.5h778q11 0 11 -11v-18q0 -11 -11 -11h-823 q-11 0 -11 11zM333.5 1653q1.5 6 8.5 13l138 142q5 5 9 7.5t12 2.5h11q7 0 10.5 -2t9.5 -8l143 -142q7 -7 8.5 -13t-12.5 -6h-28q-10 0 -14 1t-10 9l-107 132q-4 5 -9 0l-105 -132q-6 -8 -9.5 -9t-13.5 -1h-32q-11 0 -9.5 6z" />
<glyph unicode="&#xcb;" horiz-adv-x="1035" d="M90 11l2 1413q0 8 9 8h798q11 0 11 -9v-13q0 -9 -10 -9h-760q-11 0 -12.5 -1.5t-1.5 -11.5l1 -570q0 -12 2 -14t13 -2h695q10 0 10 -7v-14q0 -9 -10 -9h-698q-9 0 -10.5 -1.5t-1.5 -9.5l4 -707q0 -11 2 -12.5t13 -1.5h778q11 0 11 -11v-18q0 -11 -11 -11h-823 q-11 0 -11 11zM390 1631l2 107q0 8 5 8h14q4 0 4 -9l3 -106q0 -4 -3.5 -5t-7.5 -1h-7q-10 0 -10 6zM621 1631l2 107q0 8 5 8h14q4 0 4 -9l3 -106q0 -4 -3.5 -5t-7.5 -1h-7q-10 0 -10 6z" />
<glyph unicode="&#xcc;" horiz-adv-x="306" d="M3.5 1814q2.5 4 11.5 4h36q12 1 20 -12l103 -148q3 -4 1.5 -10t-9.5 -1l-161 159q-4 4 -1.5 8zM134 11l2 1413q0 8 9 8h17q8 0 8 -8l2 -1413q0 -11 -11 -11h-16q-11 0 -11 11z" />
<glyph unicode="&#xcd;" horiz-adv-x="316" d="M130 11l2 1413q0 8 9 8h17q8 0 8 -8l2 -1413q0 -11 -11 -11h-16q-11 0 -11 11zM141 1647.5q-2 6.5 1 9.5l103 148q8 13 21 12h35q7 0 11 -4t0 -8l-162 -159q-7 -5 -9 1.5z" />
<glyph unicode="&#xce;" horiz-adv-x="431" d="M41.5 1653q1.5 6 8.5 13l138 142q5 5 9 7.5t12 2.5h11q7 0 10.5 -2t9.5 -8l143 -142q7 -7 8.5 -13t-12.5 -6h-28q-10 0 -14 1t-10 9l-107 132q-4 5 -9 0l-105 -132q-6 -8 -9.5 -9t-13.5 -1h-32q-11 0 -9.5 6zM197 11l2 1413q0 8 9 8h17q8 0 8 -8l2 -1413q0 -11 -11 -11 h-16q-11 0 -11 11z" />
<glyph unicode="&#xcf;" horiz-adv-x="339" d="M41 1631l2 107q0 8 5 8h14q4 0 4 -9l3 -106q0 -4 -3.5 -5t-7.5 -1h-7q-10 0 -10 6zM146 11l2 1413q0 8 9 8h17q8 0 8 -8l2 -1413q0 -11 -11 -11h-16q-11 0 -11 11zM271 1631l2 107q0 8 5 8h14q4 0 4 -9l3 -106q0 -4 -3.5 -5t-7.5 -1h-7q-10 0 -10 6z" />
<glyph unicode="&#xd1;" horiz-adv-x="1196" d="M90 11l2 1413q0 8 9 8h32q8 0 9.5 -1t5.5 -7l901 -1354q3 -3 6 -1t3 7l2 1348q0 8 9 8h17q8 0 8 -8l2 -1413q0 -11 -14 -11h-20q-8 0 -11.5 1.5t-9.5 9.5l-907 1379q-2 3 -5 2t-3 -5l2 -1376q0 -11 -11 -11h-16q-11 0 -11 11zM387 1608q2 14 9.5 33.5t21.5 37t35.5 30 t51.5 12.5q34 0 59 -16t47 -35t43.5 -35t50.5 -16q24 0 41 8.5t29 20t19 23.5t10 20q5 10 11 6.5t4 -13.5q-13 -53 -38.5 -78.5t-78.5 -25.5q-28 0 -51.5 15.5t-47 33.5t-47 33.5t-51.5 15.5q-16 0 -28 -3t-23.5 -10.5t-23 -21.5t-26.5 -36q-4 -9 -11.5 -9.5t-5.5 10.5z" />
<glyph unicode="&#xd2;" horiz-adv-x="1460" d="M80 735q0 156 43.5 286.5t126.5 224t203.5 145.5t273.5 52q151 0 270.5 -52.5t202 -146t126 -223.5t44.5 -284q-1 -161 -43 -298t-123.5 -237t-202.5 -156t-279 -56q-155 0 -274.5 56t-201 156t-124 236t-42.5 297zM115 735q0 -177 47 -311.5t129.5 -224t194 -134 t239.5 -42.5q125 -2 236 40.5t194 131t131.5 223.5t48.5 317q0 174 -50.5 301.5t-135 211.5t-194.5 124.5t-230 40.5q-77 0 -151.5 -17t-142.5 -52.5t-126 -90t-100 -130t-66 -172t-24 -216.5zM633.5 1814q2.5 4 11.5 4h36q12 1 20 -12l103 -148q3 -4 1.5 -10t-9.5 -1 l-161 159q-4 4 -1.5 8z" />
<glyph unicode="&#xd3;" horiz-adv-x="1460" d="M80 735q0 156 43.5 286.5t126.5 224t203.5 145.5t273.5 52q151 0 270.5 -52.5t202 -146t126 -223.5t44.5 -284q-1 -161 -43 -298t-123.5 -237t-202.5 -156t-279 -56q-155 0 -274.5 56t-201 156t-124 236t-42.5 297zM115 735q0 -177 47 -311.5t129.5 -224t194 -134 t239.5 -42.5q125 -2 236 40.5t194 131t131.5 223.5t48.5 317q0 174 -50.5 301.5t-135 211.5t-194.5 124.5t-230 40.5q-77 0 -151.5 -17t-142.5 -52.5t-126 -90t-100 -130t-66 -172t-24 -216.5zM652 1647.5q-2 6.5 1 9.5l103 148q8 13 21 12h35q7 0 11 -4t0 -8l-162 -159 q-7 -5 -9 1.5z" />
<glyph unicode="&#xd4;" horiz-adv-x="1460" d="M80 735q0 156 43.5 286.5t126.5 224t203.5 145.5t273.5 52q151 0 270.5 -52.5t202 -146t126 -223.5t44.5 -284q-1 -161 -43 -298t-123.5 -237t-202.5 -156t-279 -56q-155 0 -274.5 56t-201 156t-124 236t-42.5 297zM115 735q0 -177 47 -311.5t129.5 -224t194 -134 t239.5 -42.5q125 -2 236 40.5t194 131t131.5 223.5t48.5 317q0 174 -50.5 301.5t-135 211.5t-194.5 124.5t-230 40.5q-77 0 -151.5 -17t-142.5 -52.5t-126 -90t-100 -130t-66 -172t-24 -216.5zM425.5 1653q1.5 6 8.5 13l138 142q5 5 9 7.5t12 2.5h11q7 0 10.5 -2t9.5 -8 l143 -142q7 -7 8.5 -13t-12.5 -6h-28q-10 0 -14 1t-10 9l-107 132q-4 5 -9 0l-105 -132q-6 -8 -9.5 -9t-13.5 -1h-32q-11 0 -9.5 6z" />
<glyph unicode="&#xd5;" horiz-adv-x="1460" d="M80 735q0 156 43.5 286.5t126.5 224t203.5 145.5t273.5 52q151 0 270.5 -52.5t202 -146t126 -223.5t44.5 -284q-1 -161 -43 -298t-123.5 -237t-202.5 -156t-279 -56q-155 0 -274.5 56t-201 156t-124 236t-42.5 297zM115 735q0 -177 47 -311.5t129.5 -224t194 -134 t239.5 -42.5q125 -2 236 40.5t194 131t131.5 223.5t48.5 317q0 174 -50.5 301.5t-135 211.5t-194.5 124.5t-230 40.5q-77 0 -151.5 -17t-142.5 -52.5t-126 -90t-100 -130t-66 -172t-24 -216.5zM415 1609q2 14 9.5 33.5t21.5 37t35.5 30t51.5 12.5q34 0 59 -16t47 -35 t43.5 -35t50.5 -16q24 0 41 8.5t29 20t19 23.5t10 20q5 10 11 6.5t4 -13.5q-13 -53 -38.5 -78.5t-78.5 -25.5q-28 0 -51.5 15.5t-47 33.5t-47 33.5t-51.5 15.5q-16 0 -28 -3t-23.5 -10.5t-23 -21.5t-26.5 -36q-4 -9 -11.5 -9.5t-5.5 10.5z" />
<glyph unicode="&#xd6;" horiz-adv-x="1460" d="M80 735q0 156 43.5 286.5t126.5 224t203.5 145.5t273.5 52q151 0 270.5 -52.5t202 -146t126 -223.5t44.5 -284q-1 -161 -43 -298t-123.5 -237t-202.5 -156t-279 -56q-155 0 -274.5 56t-201 156t-124 236t-42.5 297zM115 735q0 -177 47 -311.5t129.5 -224t194 -134 t239.5 -42.5q125 -2 236 40.5t194 131t131.5 223.5t48.5 317q0 174 -50.5 301.5t-135 211.5t-194.5 124.5t-230 40.5q-77 0 -151.5 -17t-142.5 -52.5t-126 -90t-100 -130t-66 -172t-24 -216.5zM550 1631l2 107q0 8 5 8h14q4 0 4 -9l3 -106q0 -4 -3.5 -5t-7.5 -1h-7 q-10 0 -10 6zM781 1631l2 107q0 8 5 8h14q4 0 4 -9l3 -106q0 -4 -3.5 -5t-7.5 -1h-7q-10 0 -10 6z" />
<glyph unicode="&#xd8;" horiz-adv-x="1459" d="M80 745q0 156 43.5 286.5t126.5 224t203.5 145.5t273.5 52q143 0 255.5 -45.5t197.5 -126.5l116 140q5 5 7.5 5t5.5 -3l11 -11q5 -5 0 -12l-121 -146q82 -94 126 -222.5t44 -284.5q0 -161 -42 -298t-123.5 -237t-202.5 -156t-279 -56q-139 0 -247.5 43.5t-189.5 124.5 l-133 -160q-7 -7 -14 -2l-10 8q-8 7 -1 14l137 162q-91 103 -137.5 243.5t-46.5 311.5zM115 745q0 -175 44.5 -307.5t125.5 -223.5l871 1040q-87 85 -197 127t-234 42q-76 0 -151 -17t-143 -52.5t-126 -90t-100 -130t-66 -172t-24 -216.5zM307 192q82 -81 188 -121t230 -38 q125 -2 236 40.5t194 131t131.5 223.5t48.5 317q0 162 -42 280.5t-117 203.5z" />
<glyph unicode="&#xd9;" horiz-adv-x="1222" d="M90 1417q0 7 1 11t6 4h20q5 0 5.5 -4t0.5 -11l6 -744q2 -182 43.5 -306t108 -200.5t151.5 -110t174 -33.5q93 0 180.5 38t154.5 119t106.5 206.5t36.5 300.5l5 730q0 7 0.5 11t6.5 4h19q5 0 5.5 -4t0.5 -11l-2 -816q-3 -131 -37.5 -242.5t-99.5 -193.5t-159 -128.5 t-217 -46.5q-122 0 -215 45.5t-157.5 127.5t-99.5 194.5t-40 247.5zM515.5 1814q2.5 4 11.5 4h36q12 1 20 -12l103 -148q3 -4 1.5 -10t-9.5 -1l-161 159q-4 4 -1.5 8z" />
<glyph unicode="&#xda;" horiz-adv-x="1222" d="M90 1417q0 7 1 11t6 4h20q5 0 5.5 -4t0.5 -11l6 -744q2 -182 43.5 -306t108 -200.5t151.5 -110t174 -33.5q93 0 180.5 38t154.5 119t106.5 206.5t36.5 300.5l5 730q0 7 0.5 11t6.5 4h19q5 0 5.5 -4t0.5 -11l-2 -816q-3 -131 -37.5 -242.5t-99.5 -193.5t-159 -128.5 t-217 -46.5q-122 0 -215 45.5t-157.5 127.5t-99.5 194.5t-40 247.5zM572 1647.5q-2 6.5 1 9.5l103 148q8 13 21 12h35q7 0 11 -4t0 -8l-162 -159q-7 -5 -9 1.5z" />
<glyph unicode="&#xdb;" horiz-adv-x="1222" d="M90 1417q0 7 1 11t6 4h20q5 0 5.5 -4t0.5 -11l6 -744q2 -182 43.5 -306t108 -200.5t151.5 -110t174 -33.5q93 0 180.5 38t154.5 119t106.5 206.5t36.5 300.5l5 730q0 7 0.5 11t6.5 4h19q5 0 5.5 -4t0.5 -11l-2 -816q-3 -131 -37.5 -242.5t-99.5 -193.5t-159 -128.5 t-217 -46.5q-122 0 -215 45.5t-157.5 127.5t-99.5 194.5t-40 247.5zM451.5 1653q1.5 6 8.5 13l138 142q5 5 9 7.5t12 2.5h11q7 0 10.5 -2t9.5 -8l143 -142q7 -7 8.5 -13t-12.5 -6h-28q-10 0 -14 1t-10 9l-107 132q-4 5 -9 0l-105 -132q-6 -8 -9.5 -9t-13.5 -1h-32 q-11 0 -9.5 6z" />
<glyph unicode="&#xdc;" horiz-adv-x="1222" d="M90 1417q0 7 1 11t6 4h20q5 0 5.5 -4t0.5 -11l6 -744q2 -182 43.5 -306t108 -200.5t151.5 -110t174 -33.5q93 0 180.5 38t154.5 119t106.5 206.5t36.5 300.5l5 730q0 7 0.5 11t6.5 4h19q5 0 5.5 -4t0.5 -11l-2 -816q-3 -131 -37.5 -242.5t-99.5 -193.5t-159 -128.5 t-217 -46.5q-122 0 -215 45.5t-157.5 127.5t-99.5 194.5t-40 247.5zM461 1631l2 107q0 8 5 8h14q4 0 4 -9l3 -106q0 -4 -3.5 -5t-7.5 -1h-7q-10 0 -10 6zM692 1631l2 107q0 8 5 8h14q4 0 4 -9l3 -106q0 -4 -3.5 -5t-7.5 -1h-7q-10 0 -10 6z" />
<glyph unicode="&#xdd;" horiz-adv-x="1092" d="M82 1424q-6 8 9 8h18q9 0 14 -8l419 -645q12 -15 23 0l421 645q5 8 17 8h15q14 0 9 -8l-449 -690q-2 -5 -4 -8t-2 -8l1 -707q0 -11 -11 -11h-16q-11 0 -11 11l1 707q0 8 -5 16zM552 1629.5q-2 6.5 1 9.5l103 148q8 13 21 12h35q7 0 11 -4t0 -8l-162 -159q-7 -5 -9 1.5z " />
<glyph unicode="&#xdf;" horiz-adv-x="865" d="M85 11l2 1095q0 67 16.5 117t43 86t60.5 60t69.5 38t69 19.5t60.5 5.5q73 0 132.5 -23.5t102.5 -65t66.5 -99t23.5 -124.5q0 -53 -19.5 -105.5t-56 -97t-88.5 -77t-118 -45.5q-11 -1 -10 -6.5t13 -8.5q68 -14 129 -51t107 -89.5t72 -115t25 -127.5q-1 -89 -37 -163.5 t-96 -128.5t-138 -84.5t-162 -30.5q-9 0 -9 6v21q0 5 3 5.5t8 0.5q86 0 158.5 32.5t125.5 86t83 123.5t30 145q0 47 -16.5 92t-45 85t-67.5 74t-83.5 58.5t-92.5 38.5t-95 14q-4 0 -6 1t-2 6v16q0 5 2 6t6 1q65 0 128 24.5t112 68t79 104t29 132.5q0 49 -18 97.5t-56 86 t-97.5 60t-143.5 21.5q-48 -1 -95.5 -20t-84.5 -54t-60 -87t-23 -119l2 -1105q0 -11 -11 -11h-16q-11 0 -11 11z" />
<glyph unicode="&#xe0;" horiz-adv-x="920" d="M82 246q-4 39 6.5 81.5t36.5 79.5t68 65t102 39q69 13 138.5 28t134.5 37t123 53.5t104 78.5l1 34q0 46 -16 93t-52.5 85t-96.5 62t-148 25q-39 0 -85.5 -10.5t-90 -37.5t-80.5 -74.5t-56 -121.5q-2 -11 -4.5 -13.5t-7.5 -2.5h-20q-9 0 -6 12q16 74 50.5 127t82 87.5 t103 50.5t113.5 16q66 0 128 -15.5t111 -51t78.5 -92t29.5 -138.5l1 -732q0 -11 -11 -11h-14q-11 0 -11 11l1 169q0 3 -1.5 4.5t-3.5 -0.5q-29 -48 -70 -84.5t-90 -61t-103.5 -36.5t-108.5 -12q-149 0 -236 64t-100 192zM118 291q-3 -74 21.5 -125.5t66.5 -83.5t97.5 -46 t115.5 -12t120.5 19.5t111.5 47.5t89.5 71t54.5 92v388q0 5 -3.5 12t-14.5 -2q-19 -14 -37 -28.5t-42 -28.5t-56.5 -28.5t-79.5 -29t-111.5 -29t-152.5 -29.5q-56 -11 -90.5 -38t-54.5 -57t-27.5 -56.5t-7.5 -36.5zM387.5 1428q2.5 4 11.5 4h36q12 1 20 -12l103 -148 q3 -4 1.5 -10t-9.5 -1l-161 159q-4 4 -1.5 8z" />
<glyph unicode="&#xe1;" horiz-adv-x="920" d="M82 246q-4 39 6.5 81.5t36.5 79.5t68 65t102 39q69 13 138.5 28t134.5 37t123 53.5t104 78.5l1 34q0 46 -16 93t-52.5 85t-96.5 62t-148 25q-39 0 -85.5 -10.5t-90 -37.5t-80.5 -74.5t-56 -121.5q-2 -11 -4.5 -13.5t-7.5 -2.5h-20q-9 0 -6 12q16 74 50.5 127t82 87.5 t103 50.5t113.5 16q66 0 128 -15.5t111 -51t78.5 -92t29.5 -138.5l1 -732q0 -11 -11 -11h-14q-11 0 -11 11l1 169q0 3 -1.5 4.5t-3.5 -0.5q-29 -48 -70 -84.5t-90 -61t-103.5 -36.5t-108.5 -12q-149 0 -236 64t-100 192zM118 291q-3 -74 21.5 -125.5t66.5 -83.5t97.5 -46 t115.5 -12t120.5 19.5t111.5 47.5t89.5 71t54.5 92v388q0 5 -3.5 12t-14.5 -2q-19 -14 -37 -28.5t-42 -28.5t-56.5 -28.5t-79.5 -29t-111.5 -29t-152.5 -29.5q-56 -11 -90.5 -38t-54.5 -57t-27.5 -56.5t-7.5 -36.5zM474 1262.5q-2 6.5 1 9.5l103 148q8 13 21 12h35 q7 0 11 -4t0 -8l-162 -159q-7 -5 -9 1.5z" />
<glyph unicode="&#xe2;" horiz-adv-x="920" d="M82 246q-4 39 6.5 81.5t36.5 79.5t68 65t102 39q69 13 138.5 28t134.5 37t123 53.5t104 78.5l1 34q0 46 -16 93t-52.5 85t-96.5 62t-148 25q-39 0 -85.5 -10.5t-90 -37.5t-80.5 -74.5t-56 -121.5q-2 -11 -4.5 -13.5t-7.5 -2.5h-20q-9 0 -6 12q16 74 50.5 127t82 87.5 t103 50.5t113.5 16q66 0 128 -15.5t111 -51t78.5 -92t29.5 -138.5l1 -732q0 -11 -11 -11h-14q-11 0 -11 11l1 169q0 3 -1.5 4.5t-3.5 -0.5q-29 -48 -70 -84.5t-90 -61t-103.5 -36.5t-108.5 -12q-149 0 -236 64t-100 192zM118 291q-3 -74 21.5 -125.5t66.5 -83.5t97.5 -46 t115.5 -12t120.5 19.5t111.5 47.5t89.5 71t54.5 92v388q0 5 -3.5 12t-14.5 -2q-19 -14 -37 -28.5t-42 -28.5t-56.5 -28.5t-79.5 -29t-111.5 -29t-152.5 -29.5q-56 -11 -90.5 -38t-54.5 -57t-27.5 -56.5t-7.5 -36.5zM332.5 1270q1.5 6 8.5 13l138 142q5 5 9 7.5t12 2.5h11 q7 0 10.5 -2t9.5 -8l143 -142q7 -7 8.5 -13t-12.5 -6h-28q-10 0 -14 1t-10 9l-107 132q-4 5 -9 0l-105 -132q-6 -8 -9.5 -9t-13.5 -1h-32q-11 0 -9.5 6z" />
<glyph unicode="&#xe3;" horiz-adv-x="920" d="M82 246q-4 39 6.5 81.5t36.5 79.5t68 65t102 39q69 13 138.5 28t134.5 37t123 53.5t104 78.5l1 34q0 46 -16 93t-52.5 85t-96.5 62t-148 25q-39 0 -85.5 -10.5t-90 -37.5t-80.5 -74.5t-56 -121.5q-2 -11 -4.5 -13.5t-7.5 -2.5h-20q-9 0 -6 12q16 74 50.5 127t82 87.5 t103 50.5t113.5 16q66 0 128 -15.5t111 -51t78.5 -92t29.5 -138.5l1 -732q0 -11 -11 -11h-14q-11 0 -11 11l1 169q0 3 -1.5 4.5t-3.5 -0.5q-29 -48 -70 -84.5t-90 -61t-103.5 -36.5t-108.5 -12q-149 0 -236 64t-100 192zM118 291q-3 -74 21.5 -125.5t66.5 -83.5t97.5 -46 t115.5 -12t120.5 19.5t111.5 47.5t89.5 71t54.5 92v388q0 5 -3.5 12t-14.5 -2q-19 -14 -37 -28.5t-42 -28.5t-56.5 -28.5t-79.5 -29t-111.5 -29t-152.5 -29.5q-56 -11 -90.5 -38t-54.5 -57t-27.5 -56.5t-7.5 -36.5zM286 1342q2 14 9.5 33.5t21.5 37t35.5 30t51.5 12.5 q34 0 59 -16t47 -35t43.5 -35t50.5 -16q24 0 41 8.5t29 20t19 23.5t10 20q5 10 11 6.5t4 -13.5q-13 -53 -38.5 -78.5t-78.5 -25.5q-28 0 -51.5 15.5t-47 33.5t-47 33.5t-51.5 15.5q-16 0 -28 -3t-23.5 -10.5t-23 -21.5t-26.5 -36q-4 -9 -11.5 -9.5t-5.5 10.5z" />
<glyph unicode="&#xe4;" horiz-adv-x="920" d="M82 246q-4 39 6.5 81.5t36.5 79.5t68 65t102 39q69 13 138.5 28t134.5 37t123 53.5t104 78.5l1 34q0 46 -16 93t-52.5 85t-96.5 62t-148 25q-39 0 -85.5 -10.5t-90 -37.5t-80.5 -74.5t-56 -121.5q-2 -11 -4.5 -13.5t-7.5 -2.5h-20q-9 0 -6 12q16 74 50.5 127t82 87.5 t103 50.5t113.5 16q66 0 128 -15.5t111 -51t78.5 -92t29.5 -138.5l1 -732q0 -11 -11 -11h-14q-11 0 -11 11l1 169q0 3 -1.5 4.5t-3.5 -0.5q-29 -48 -70 -84.5t-90 -61t-103.5 -36.5t-108.5 -12q-149 0 -236 64t-100 192zM118 291q-3 -74 21.5 -125.5t66.5 -83.5t97.5 -46 t115.5 -12t120.5 19.5t111.5 47.5t89.5 71t54.5 92v388q0 5 -3.5 12t-14.5 -2q-19 -14 -37 -28.5t-42 -28.5t-56.5 -28.5t-79.5 -29t-111.5 -29t-152.5 -29.5q-56 -11 -90.5 -38t-54.5 -57t-27.5 -56.5t-7.5 -36.5zM363 1317l2 107q0 8 5 8h14q4 0 4 -9l3 -106q0 -4 -3.5 -5 t-7.5 -1h-7q-10 0 -10 6zM594 1317l2 107q0 8 5 8h14q4 0 4 -9l3 -106q0 -4 -3.5 -5t-7.5 -1h-7q-10 0 -10 6z" />
<glyph unicode="&#xe5;" horiz-adv-x="920" d="M82 246q-4 39 6.5 81.5t36.5 79.5t68 65t102 39q69 13 138.5 28t134.5 37t123 53.5t104 78.5l1 34q0 46 -16 93t-52.5 85t-96.5 62t-148 25q-39 0 -85.5 -10.5t-90 -37.5t-80.5 -74.5t-56 -121.5q-2 -11 -4.5 -13.5t-7.5 -2.5h-20q-9 0 -6 12q16 74 50.5 127t82 87.5 t103 50.5t113.5 16q66 0 128 -15.5t111 -51t78.5 -92t29.5 -138.5l1 -732q0 -11 -11 -11h-14q-11 0 -11 11l1 169q0 3 -1.5 4.5t-3.5 -0.5q-29 -48 -70 -84.5t-90 -61t-103.5 -36.5t-108.5 -12q-149 0 -236 64t-100 192zM118 291q-3 -74 21.5 -125.5t66.5 -83.5t97.5 -46 t115.5 -12t120.5 19.5t111.5 47.5t89.5 71t54.5 92v388q0 5 -3.5 12t-14.5 -2q-19 -14 -37 -28.5t-42 -28.5t-56.5 -28.5t-79.5 -29t-111.5 -29t-152.5 -29.5q-56 -11 -90.5 -38t-54.5 -57t-27.5 -56.5t-7.5 -36.5zM359 1281q0 28 10.5 53t29 44t43 29.5t52.5 10.5 q29 0 54 -10.5t43.5 -29.5t29 -44t10.5 -53t-10.5 -52.5t-29 -42.5t-43.5 -28.5t-54 -10.5q-28 0 -52.5 10.5t-43 28.5t-29 42.5t-10.5 52.5zM399 1281q0 -42 26 -68.5t69 -26.5q45 0 71 26.5t26 68.5q0 45 -26 70.5t-71 25.5q-43 0 -69 -25.5t-26 -70.5z" />
<glyph unicode="&#xe6;" horiz-adv-x="1777" d="M83 261q-2 43 9.5 87t39 81t73 63t111.5 34q79 9 145.5 14.5t125 16.5t111.5 32.5t105 62.5q1 11 1 25v27.5t1 33.5q-1 21 -4 49t-14 57.5t-31.5 58t-55.5 51.5t-86.5 37.5t-124.5 15.5q-35 1 -80 -7t-90 -32t-84 -68t-63 -114q-3 -13 -14 -13h-13q-6 0 -9.5 2t-1.5 10 q20 73 58 122t85.5 78.5t101 42t104.5 12.5q61 0 123 -12t112 -44.5t82.5 -88.5t35.5 -143q-1 -8 4.5 -9t8.5 6q63 149 167 220t235 71q75 0 136 -21.5t109 -58t83.5 -83t59 -97t35.5 -101t13 -93.5q1 -17 -2.5 -20t-17.5 -3h-807q-19 -1 -19 -22q-3 -55 7 -114.5t33 -117 t57.5 -109.5t81.5 -91t105 -62t127 -23q83 0 141.5 21t99 53t67.5 69.5t47 70.5q5 9 8.5 11.5t9.5 2.5h10q8 0 8.5 -4t-1.5 -9q-68 -135 -165.5 -192t-219.5 -57q-77 0 -142.5 25t-118 68.5t-91.5 101.5t-63 124q-7 14 -14 0q-4 -23 -16 -55.5t-34 -68t-55.5 -70.5 t-80 -62.5t-107.5 -45t-138 -17.5q-58 -2 -113 16.5t-98.5 54t-71.5 86.5t-31 114zM119 280q4 -87 47 -144t108 -85.5t142.5 -27.5t150.5 30.5t131.5 87.5t86.5 144q9 36 13.5 87t6 98.5t0.5 81.5t-3 36q-1 13 -14 13q-33 -20 -61 -34t-56.5 -24t-60.5 -17t-72.5 -12.5 t-93 -10.5t-121.5 -11q-56 -5 -95.5 -28t-64 -54.5t-35 -66.5t-9.5 -63zM849 613q-1 -14 3 -14.5t16 -0.5h765q9 0 13 3.5t3 14.5q-3 36 -15.5 79.5t-35 87t-54.5 84t-75 71.5t-97 50t-119 19q-81 0 -150 -32t-121.5 -86t-86.5 -125.5t-46 -150.5z" />
<glyph unicode="&#xe7;" horiz-adv-x="1067" d="M80 528q0 91 20.5 164.5t55.5 130t81.5 98t97 68t102.5 39t99 12.5q50 0 104 -6.5t108 -29.5t105.5 -67.5t96.5 -120.5q3 -5 5.5 -12t-6.5 -7h-14q-7 0 -10 2t-9 11q-26 37 -55.5 72.5t-71 63t-100 44.5t-143.5 17q-90 0 -168.5 -36t-136.5 -99.5t-91.5 -149.5 t-33.5 -185q0 -96 27.5 -188t80.5 -164t131.5 -116.5t180.5 -44.5q86 0 154 28t118 70t82 91t47 90q5 11 7.5 14.5t7.5 3.5h16q11 0 7 -14q-24 -78 -68 -137t-99.5 -98.5t-116 -59.5t-117.5 -21q-10 -1 -12 -6.5t-2 -10.5q0 -6 -0.5 -24t-0.5 -37.5t2 -35t7 -15.5 q36 -2 60 -16.5t38.5 -35.5t20 -44t5.5 -41q0 -30 -7.5 -59.5t-24 -53t-43 -38t-65.5 -14.5q-29 0 -51.5 9.5t-38.5 24t-25 31.5t-12 32q-4 16 -0.5 17.5t10.5 1.5h8q8 0 9.5 -3t2.5 -8q4 -22 14.5 -36.5t24 -23.5t29 -12.5t30.5 -3.5q31 0 51.5 14.5t32.5 34.5t17 42.5 t5 39.5q0 18 -3.5 36.5t-13 34.5t-26 27t-41.5 13q-14 0 -19.5 -5t-16.5 -5q-8 0 -8.5 5t-0.5 13l-1 131q0 6 -0.5 13t-7.5 7q-69 0 -128 20.5t-108 57.5t-87 87.5t-64.5 110.5t-40 126.5t-13.5 135.5z" />
<glyph unicode="&#xe8;" horiz-adv-x="1085" d="M80 535q0 80 19.5 148.5t53 124.5t79 99.5t97 73t106.5 44.5t108 15q75 0 137.5 -22t112 -58.5t86.5 -84t62 -98t38 -100t15 -90.5q1 -15 -7.5 -19t-12.5 -4h-839q-19 -1 -19 -22q0 -98 29 -191t83.5 -166t133.5 -117t179 -44q83 -1 144 20.5t105 54.5t73.5 71.5 t49.5 70.5q6 8 8.5 11t9.5 3h13q7 0 7 -4t-2 -9q-34 -68 -78 -115.5t-95 -78t-108.5 -44.5t-118.5 -14q-114 0 -201.5 46t-147 122t-90 174.5t-30.5 202.5zM120 611q2 -4 2 -8t6 -4h818q13 0 12 13q-3 36 -16.5 79.5t-38 87t-59 85t-79.5 73t-100.5 51t-120.5 19.5 q-81 0 -155 -34.5t-131.5 -90.5t-94.5 -127t-43 -144zM452.5 1428q2.5 4 11.5 4h36q12 1 20 -12l103 -148q3 -4 1.5 -10t-9.5 -1l-161 159q-4 4 -1.5 8z" />
<glyph unicode="&#xe9;" horiz-adv-x="1085" d="M80 535q0 80 19.5 148.5t53 124.5t79 99.5t97 73t106.5 44.5t108 15q75 0 137.5 -22t112 -58.5t86.5 -84t62 -98t38 -100t15 -90.5q1 -15 -7.5 -19t-12.5 -4h-839q-19 -1 -19 -22q0 -98 29 -191t83.5 -166t133.5 -117t179 -44q83 -1 144 20.5t105 54.5t73.5 71.5 t49.5 70.5q6 8 8.5 11t9.5 3h13q7 0 7 -4t-2 -9q-34 -68 -78 -115.5t-95 -78t-108.5 -44.5t-118.5 -14q-114 0 -201.5 46t-147 122t-90 174.5t-30.5 202.5zM120 611q2 -4 2 -8t6 -4h818q13 0 12 13q-3 36 -16.5 79.5t-38 87t-59 85t-79.5 73t-100.5 51t-120.5 19.5 q-81 0 -155 -34.5t-131.5 -90.5t-94.5 -127t-43 -144zM500 1262.5q-2 6.5 1 9.5l103 148q8 13 21 12h35q7 0 11 -4t0 -8l-162 -159q-7 -5 -9 1.5z" />
<glyph unicode="&#xea;" horiz-adv-x="1085" d="M80 535q0 80 19.5 148.5t53 124.5t79 99.5t97 73t106.5 44.5t108 15q75 0 137.5 -22t112 -58.5t86.5 -84t62 -98t38 -100t15 -90.5q1 -15 -7.5 -19t-12.5 -4h-839q-19 -1 -19 -22q0 -98 29 -191t83.5 -166t133.5 -117t179 -44q83 -1 144 20.5t105 54.5t73.5 71.5 t49.5 70.5q6 8 8.5 11t9.5 3h13q7 0 7 -4t-2 -9q-34 -68 -78 -115.5t-95 -78t-108.5 -44.5t-118.5 -14q-114 0 -201.5 46t-147 122t-90 174.5t-30.5 202.5zM120 611q2 -4 2 -8t6 -4h818q13 0 12 13q-3 36 -16.5 79.5t-38 87t-59 85t-79.5 73t-100.5 51t-120.5 19.5 q-81 0 -155 -34.5t-131.5 -90.5t-94.5 -127t-43 -144zM377.5 1270q1.5 6 8.5 13l138 142q5 5 9 7.5t12 2.5h11q7 0 10.5 -2t9.5 -8l143 -142q7 -7 8.5 -13t-12.5 -6h-28q-10 0 -14 1t-10 9l-107 132q-4 5 -9 0l-105 -132q-6 -8 -9.5 -9t-13.5 -1h-32q-11 0 -9.5 6z" />
<glyph unicode="&#xeb;" horiz-adv-x="1085" d="M80 535q0 80 19.5 148.5t53 124.5t79 99.5t97 73t106.5 44.5t108 15q75 0 137.5 -22t112 -58.5t86.5 -84t62 -98t38 -100t15 -90.5q1 -15 -7.5 -19t-12.5 -4h-839q-19 -1 -19 -22q0 -98 29 -191t83.5 -166t133.5 -117t179 -44q83 -1 144 20.5t105 54.5t73.5 71.5 t49.5 70.5q6 8 8.5 11t9.5 3h13q7 0 7 -4t-2 -9q-34 -68 -78 -115.5t-95 -78t-108.5 -44.5t-118.5 -14q-114 0 -201.5 46t-147 122t-90 174.5t-30.5 202.5zM120 611q2 -4 2 -8t6 -4h818q13 0 12 13q-3 36 -16.5 79.5t-38 87t-59 85t-79.5 73t-100.5 51t-120.5 19.5 q-81 0 -155 -34.5t-131.5 -90.5t-94.5 -127t-43 -144zM413 1317l2 107q0 8 5 8h14q4 0 4 -9l3 -106q0 -4 -3.5 -5t-7.5 -1h-7q-10 0 -10 6zM644 1317l2 107q0 8 5 8h14q4 0 4 -9l3 -106q0 -4 -3.5 -5t-7.5 -1h-7q-10 0 -10 6z" />
<glyph unicode="&#xec;" horiz-adv-x="323" d="M7.5 1428q2.5 4 11.5 4h36q12 1 20 -12l103 -148q3 -4 1.5 -10t-9.5 -1l-161 159q-4 4 -1.5 8zM145 11q0 -11 11 -11h16q11 0 11 11l-4 1009q0 9 -9 9h-11q-9 0 -9 -9z" />
<glyph unicode="&#xed;" horiz-adv-x="335" d="M140 11l5 1009q0 9 9 9h11q9 0 9 -9l4 -1009q0 -11 -11 -11h-16q-11 0 -11 11zM147 1261.5q-3 5.5 2 10.5l103 148q7 13 21 12h35q7 0 11 -4t0 -8l-162 -159q-7 -5 -10 0.5z" />
<glyph unicode="&#xee;" horiz-adv-x="402" d="M22.5 1268.5q2.5 7.5 13.5 18.5l131 135q9 10 25 10h3q7 0 12.5 -2t11.5 -8l136 -135q11 -11 14 -18.5t-11 -7.5h-28q-10 0 -16 4t-13 12l-102 126q-4 2 -4 2.5t-5 -2.5l-100 -126q-7 -8 -12.5 -12t-15.5 -4h-28q-14 0 -11.5 7.5zM176 11q0 -11 11 -11h16q11 0 11 11 l-4 1009q0 9 -9 9h-11q-9 0 -9 -9z" />
<glyph unicode="&#xef;" horiz-adv-x="297" d="M30 1317l2 107q0 8 5 8h14q4 0 4 -9l3 -106q0 -4 -3.5 -5t-7.5 -1h-7q-10 0 -10 6zM125 11q0 -11 11 -11h16q11 0 11 11l-4 1009q0 9 -9 9h-11q-9 0 -9 -9zM229 1317l2 107q0 8 5 8h14q4 0 4 -9l3 -106q0 -4 -3.5 -5t-7.5 -1h-7q-10 0 -10 6z" />
<glyph unicode="&#xf1;" horiz-adv-x="932" d="M100 11l5 1009q0 9 9 9h11q9 0 9 -9l1 -203q0 -9 4.5 -9t9.5 6q40 45 89.5 86t106.5 72t120.5 49.5t130.5 18.5q37 0 78.5 -12t76 -40t57 -73.5t21.5 -112.5l3 -791q0 -11 -11 -11h-16q-11 0 -11 11l4 768q1 61 -16 104.5t-48.5 71t-75 40t-94.5 12.5q-47 0 -97 -16 t-97.5 -41.5t-90.5 -57t-75 -62t-50.5 -57.5t-18.5 -43l3 -719q0 -11 -11 -11h-16q-11 0 -11 11zM273 1342q2 14 9.5 33.5t21.5 37t35.5 30t51.5 12.5q34 0 59 -16t47 -35t43.5 -35t50.5 -16q24 0 41 8.5t29 20t19 23.5t10 20q5 10 11 6.5t4 -13.5q-13 -53 -38.5 -78.5 t-78.5 -25.5q-28 0 -51.5 15.5t-47 33.5t-47 33.5t-51.5 15.5q-16 0 -28 -3t-23.5 -10.5t-23 -21.5t-26.5 -36q-4 -9 -11.5 -9.5t-5.5 10.5z" />
<glyph unicode="&#xf2;" horiz-adv-x="1106" d="M81 528q0 100 32.5 192.5t93.5 163.5t148 113.5t195 42.5q107 0 193.5 -42.5t147 -113.5t93.5 -163.5t33 -192.5q0 -98 -27.5 -194t-85 -172.5t-145.5 -124t-209 -47.5q-82 0 -148.5 22.5t-118.5 61.5t-90 91.5t-63 112t-37 123.5t-12 127zM115 537q0 -103 29 -196 t84.5 -163.5t136.5 -112t185 -41.5q105 0 185.5 41.5t134.5 111t82.5 160.5t30.5 191q0 51 -10.5 106.5t-33 108.5t-57.5 101t-83 84t-110 57.5t-139 21.5q-112 0 -194 -44.5t-135.5 -113.5t-79.5 -152t-26 -160zM471.5 1428q2.5 4 11.5 4h36q12 1 20 -12l103 -148 q3 -4 1.5 -10t-9.5 -1l-161 159q-4 4 -1.5 8z" />
<glyph unicode="&#xf3;" horiz-adv-x="1106" d="M81 528q0 100 32.5 192.5t93.5 163.5t148 113.5t195 42.5q107 0 193.5 -42.5t147 -113.5t93.5 -163.5t33 -192.5q0 -98 -27.5 -194t-85 -172.5t-145.5 -124t-209 -47.5q-82 0 -148.5 22.5t-118.5 61.5t-90 91.5t-63 112t-37 123.5t-12 127zM115 537q0 -103 29 -196 t84.5 -163.5t136.5 -112t185 -41.5q105 0 185.5 41.5t134.5 111t82.5 160.5t30.5 191q0 51 -10.5 106.5t-33 108.5t-57.5 101t-83 84t-110 57.5t-139 21.5q-112 0 -194 -44.5t-135.5 -113.5t-79.5 -152t-26 -160zM478 1262.5q-2 6.5 1 9.5l103 148q8 13 21 12h35q7 0 11 -4 t0 -8l-162 -159q-7 -5 -9 1.5z" />
<glyph unicode="&#xf4;" horiz-adv-x="1106" d="M81 528q0 100 32.5 192.5t93.5 163.5t148 113.5t195 42.5q107 0 193.5 -42.5t147 -113.5t93.5 -163.5t33 -192.5q0 -98 -27.5 -194t-85 -172.5t-145.5 -124t-209 -47.5q-82 0 -148.5 22.5t-118.5 61.5t-90 91.5t-63 112t-37 123.5t-12 127zM115 537q0 -103 29 -196 t84.5 -163.5t136.5 -112t185 -41.5q105 0 185.5 41.5t134.5 111t82.5 160.5t30.5 191q0 51 -10.5 106.5t-33 108.5t-57.5 101t-83 84t-110 57.5t-139 21.5q-112 0 -194 -44.5t-135.5 -113.5t-79.5 -152t-26 -160zM377.5 1270q1.5 6 8.5 13l138 142q5 5 9 7.5t12 2.5h11 q7 0 10.5 -2t9.5 -8l143 -142q7 -7 8.5 -13t-12.5 -6h-28q-10 0 -14 1t-10 9l-107 132q-4 5 -9 0l-105 -132q-6 -8 -9.5 -9t-13.5 -1h-32q-11 0 -9.5 6z" />
<glyph unicode="&#xf5;" horiz-adv-x="1106" d="M81 528q0 100 32.5 192.5t93.5 163.5t148 113.5t195 42.5q107 0 193.5 -42.5t147 -113.5t93.5 -163.5t33 -192.5q0 -98 -27.5 -194t-85 -172.5t-145.5 -124t-209 -47.5q-82 0 -148.5 22.5t-118.5 61.5t-90 91.5t-63 112t-37 123.5t-12 127zM115 537q0 -103 29 -196 t84.5 -163.5t136.5 -112t185 -41.5q105 0 185.5 41.5t134.5 111t82.5 160.5t30.5 191q0 51 -10.5 106.5t-33 108.5t-57.5 101t-83 84t-110 57.5t-139 21.5q-112 0 -194 -44.5t-135.5 -113.5t-79.5 -152t-26 -160zM349 1342q2 14 9.5 33.5t21.5 37t35.5 30t51.5 12.5 q34 0 59 -16t47 -35t43.5 -35t50.5 -16q24 0 41 8.5t29 20t19 23.5t10 20q5 10 11 6.5t4 -13.5q-13 -53 -38.5 -78.5t-78.5 -25.5q-28 0 -51.5 15.5t-47 33.5t-47 33.5t-51.5 15.5q-16 0 -28 -3t-23.5 -10.5t-23 -21.5t-26.5 -36q-4 -9 -11.5 -9.5t-5.5 10.5z" />
<glyph unicode="&#xf6;" horiz-adv-x="1106" d="M81 528q0 100 32.5 192.5t93.5 163.5t148 113.5t195 42.5q107 0 193.5 -42.5t147 -113.5t93.5 -163.5t33 -192.5q0 -98 -27.5 -194t-85 -172.5t-145.5 -124t-209 -47.5q-82 0 -148.5 22.5t-118.5 61.5t-90 91.5t-63 112t-37 123.5t-12 127zM115 537q0 -103 29 -196 t84.5 -163.5t136.5 -112t185 -41.5q105 0 185.5 41.5t134.5 111t82.5 160.5t30.5 191q0 51 -10.5 106.5t-33 108.5t-57.5 101t-83 84t-110 57.5t-139 21.5q-112 0 -194 -44.5t-135.5 -113.5t-79.5 -152t-26 -160zM432 1317l2 107q0 8 5 8h14q4 0 4 -9l3 -106q0 -4 -3.5 -5 t-7.5 -1h-7q-10 0 -10 6zM663 1317l2 107q0 8 5 8h14q4 0 4 -9l3 -106q0 -4 -3.5 -5t-7.5 -1h-7q-10 0 -10 6z" />
<glyph unicode="&#xf8;" horiz-adv-x="1106" d="M80 528q0 100 32.5 193.5t93.5 166t148 116t195 43.5q100 0 180.5 -38t143.5 -102l95 115q6 6 11 2l12 -11q5 -5 0 -11l-99 -119q60 -72 92 -163.5t32 -191.5q0 -98 -28 -193t-85.5 -170t-145.5 -121.5t-208 -46.5q-96 0 -168.5 28t-129.5 76l-78 -95q-6 -6 -11 -2 l-12 10q-6 5 -1 12l79 95q-38 39 -66 86.5t-46 100t-27 108.5t-9 112zM114 537q0 -121 34 -219t100 -168l607 733q-54 60 -129 96t-177 36q-75 0 -136 -21t-109.5 -57t-84 -84t-59 -101t-35 -108.5t-11.5 -106.5zM273 129q54 -45 122.5 -70.5t153.5 -25.5q105 0 185.5 37.5 t134.5 103.5t82.5 156.5t30.5 197.5q0 81 -26.5 168t-81.5 162z" />
<glyph unicode="&#xf9;" horiz-adv-x="921" d="M92 389l4 631q0 9 9 9h11q9 0 9 -9l2 -641q1 -36 5.5 -76t16 -79.5t32 -75.5t53 -63.5t78.5 -44t110 -16.5q45 0 89.5 13.5t85 35.5t75 50t60 57t40 56t14.5 48l3 736q0 9 9 9h11q9 0 9 -9l4 -1009q0 -11 -11 -11h-16q-11 0 -11 11l1 170q0 3 -2 4.5t-4 -1.5 q-29 -39 -68.5 -74t-86.5 -62t-99.5 -42.5t-107.5 -15.5q-89 0 -151.5 31t-101.5 84.5t-56 126.5t-16 157zM384.5 1428q2.5 4 11.5 4h36q12 1 20 -12l103 -148q3 -4 1.5 -10t-9.5 -1l-161 159q-4 4 -1.5 8z" />
<glyph unicode="&#xfa;" horiz-adv-x="921" d="M92 389l4 631q0 9 9 9h11q9 0 9 -9l2 -641q1 -36 5.5 -76t16 -79.5t32 -75.5t53 -63.5t78.5 -44t110 -16.5q45 0 89.5 13.5t85 35.5t75 50t60 57t40 56t14.5 48l3 736q0 9 9 9h11q9 0 9 -9l4 -1009q0 -11 -11 -11h-16q-11 0 -11 11l1 170q0 3 -2 4.5t-4 -1.5 q-29 -39 -68.5 -74t-86.5 -62t-99.5 -42.5t-107.5 -15.5q-89 0 -151.5 31t-101.5 84.5t-56 126.5t-16 157zM466 1262.5q-2 6.5 1 9.5l103 148q8 13 21 12h35q7 0 11 -4t0 -8l-162 -159q-7 -5 -9 1.5z" />
<glyph unicode="&#xfb;" horiz-adv-x="921" d="M92 389l4 631q0 9 9 9h11q9 0 9 -9l2 -641q1 -36 5.5 -76t16 -79.5t32 -75.5t53 -63.5t78.5 -44t110 -16.5q45 0 89.5 13.5t85 35.5t75 50t60 57t40 56t14.5 48l3 736q0 9 9 9h11q9 0 9 -9l4 -1009q0 -11 -11 -11h-16q-11 0 -11 11l1 170q0 3 -2 4.5t-4 -1.5 q-29 -39 -68.5 -74t-86.5 -62t-99.5 -42.5t-107.5 -15.5q-89 0 -151.5 31t-101.5 84.5t-56 126.5t-16 157zM277.5 1270q1.5 6 8.5 13l138 142q5 5 9 7.5t12 2.5h11q7 0 10.5 -2t9.5 -8l143 -142q7 -7 8.5 -13t-12.5 -6h-28q-10 0 -14 1t-10 9l-107 132q-4 5 -9 0l-105 -132 q-6 -8 -9.5 -9t-13.5 -1h-32q-11 0 -9.5 6z" />
<glyph unicode="&#xfc;" horiz-adv-x="921" d="M92 389l4 631q0 9 9 9h11q9 0 9 -9l2 -641q1 -36 5.5 -76t16 -79.5t32 -75.5t53 -63.5t78.5 -44t110 -16.5q45 0 89.5 13.5t85 35.5t75 50t60 57t40 56t14.5 48l3 736q0 9 9 9h11q9 0 9 -9l4 -1009q0 -11 -11 -11h-16q-11 0 -11 11l1 170q0 3 -2 4.5t-4 -1.5 q-29 -39 -68.5 -74t-86.5 -62t-99.5 -42.5t-107.5 -15.5q-89 0 -151.5 31t-101.5 84.5t-56 126.5t-16 157zM327 1317l2 107q0 8 5 8h14q4 0 4 -9l3 -106q0 -4 -3.5 -5t-7.5 -1h-7q-10 0 -10 6zM558 1317l2 107q0 8 5 8h14q4 0 4 -9l3 -106q0 -4 -3.5 -5t-7.5 -1h-7 q-10 0 -10 6z" />
<glyph unicode="&#xfd;" horiz-adv-x="983" d="M82 1020q-4 9 7 9h13q6 0 7.5 -1t4.5 -8l361 -966q4 -10 9 -10.5t9 10.5l368 966q4 9 12 9h14q9 0 5 -9l-540 -1447q-4 -10 -6.5 -11.5t-8.5 -1.5h-21q-9 0 -5 11l148 401q3 7 1 16zM438 1262.5q-2 6.5 1 9.5l103 148q8 13 21 12h35q7 0 11 -4t0 -8l-162 -159 q-7 -5 -9 1.5z" />
<glyph unicode="&#xff;" horiz-adv-x="983" d="M82 1020q-4 9 7 9h13q6 0 7.5 -1t4.5 -8l361 -966q4 -10 9 -10.5t9 10.5l368 966q4 9 12 9h14q9 0 5 -9l-540 -1447q-4 -10 -6.5 -11.5t-8.5 -1.5h-21q-9 0 -5 11l148 401q3 7 1 16zM357 1317l2 107q0 8 5 8h14q4 0 4 -9l3 -106q0 -4 -3.5 -5t-7.5 -1h-7q-10 0 -10 6z M588 1317l2 107q0 8 5 8h14q4 0 4 -9l3 -106q0 -4 -3.5 -5t-7.5 -1h-7q-10 0 -10 6z" />
<glyph unicode="&#x152;" horiz-adv-x="1930" d="M90 745q0 156 43.5 285t126.5 220.5t203.5 142t273.5 50.5q43 0 81.5 -1.5t69.5 -3t53.5 -3.5t33.5 -3h813q10 0 11.5 -2t1.5 -10l1 -5q0 -6 -0.5 -10t-10.5 -3h-776q-10 -1 -12 -3t-2 -10l4 -571q0 -10 3.5 -13t11.5 -3h710q11 0 11 -12v-4q0 -11 -5 -12.5t-13 -1.5 h-705q-8 0 -10 -4t-2 -7v-688q0 -25 3 -29.5t18 -4.5h788q8 0 10.5 -3.5t2.5 -7.5l2 -15q0 -9 -4 -11t-11 -2h-837q-25 -1 -50.5 -2.5t-54.5 -3t-63.5 -2.5t-77.5 -1q-144 0 -262.5 55.5t-203 155.5t-130.5 238.5t-46 304.5zM125 745q0 -168 48.5 -302t132.5 -227.5 t197 -143t242 -49.5q59 -2 119.5 2t100.5 12l4 1365q-35 4 -64 6.5t-56 3.5t-54.5 1h-59.5q-76 0 -151 -16t-143 -50.5t-126 -87.5t-100 -127.5t-66 -170.5t-24 -216z" />
<glyph unicode="&#x153;" horiz-adv-x="1967" d="M90 528q0 100 32.5 192.5t93.5 163.5t148 113.5t195 42.5q80 0 149 -23t123.5 -66.5t94 -108t60.5 -146.5q0 -8 2.5 -8t4.5 8q26 79 68 142.5t97 108.5t120 69t137 24q75 0 137.5 -21.5t112 -57t86.5 -82t62 -96t38 -98.5t15 -90q1 -15 -8 -19t-12 -4h-819 q-19 -1 -19 -23q-2 -40 2 -81t10 -83q14 -74 43.5 -139.5t77 -115t114.5 -78.5t157 -29q83 -1 144 22t105.5 57.5t74 74t49.5 71.5q6 8 8.5 11t11.5 3h10q8 0 8 -4t-2 -9q-34 -68 -78 -116.5t-95 -80.5t-108.5 -47t-118.5 -15q-84 0 -155 23.5t-126.5 70t-93.5 114 t-54 156.5q-2 5 -3 7t-3 -8q-20 -83 -56 -150t-89 -114.5t-123 -73t-159 -25.5q-123 0 -211.5 47t-145.5 123.5t-84.5 173t-27.5 194.5zM124 537q0 -110 30.5 -204t87 -163t137 -108t180.5 -39t176 39t128 107t79.5 160t29.5 199q0 55 -9 112t-29.5 110t-52.5 100t-78 82 t-106.5 55t-137.5 20q-75 0 -136 -21t-109.5 -57t-84 -83t-59 -99t-35 -106.5t-11.5 -103.5zM1012 619q2 -4 2 -8t6 -4h798q13 0 12 13q-3 35 -17 77.5t-38 85.5t-58.5 83.5t-79.5 71.5t-100.5 50t-120.5 19q-80 0 -150 -34.5t-123.5 -89.5t-88 -124.5t-42.5 -139.5z" />
<glyph unicode="&#x178;" horiz-adv-x="1092" d="M82 1424q-6 8 9 8h18q9 0 14 -8l419 -645q12 -15 23 0l421 645q5 8 17 8h15q14 0 9 -8l-449 -690q-2 -5 -4 -8t-2 -8l1 -707q0 -11 -11 -11h-16q-11 0 -11 11l1 707q0 8 -5 16zM425 1631l2 107q0 8 5 8h14q4 0 4 -9l3 -106q0 -4 -3.5 -5t-7.5 -1h-7q-10 0 -10 6z M656 1631l2 107q0 8 5 8h14q4 0 4 -9l3 -106q0 -4 -3.5 -5t-7.5 -1h-7q-10 0 -10 6z" />
<glyph unicode="&#x2c6;" horiz-adv-x="509" d="M78.5 1653q1.5 6 8.5 13l138 142q5 5 9 7.5t12 2.5h11q7 0 10.5 -2t9.5 -8l143 -142q7 -7 8.5 -13t-12.5 -6h-28q-10 0 -14 1t-10 9l-107 132q-4 5 -9 0l-105 -132q-6 -8 -9.5 -9t-13.5 -1h-32q-11 0 -9.5 6z" />
<glyph unicode="&#x2dc;" horiz-adv-x="594" d="M81 1342q2 14 9.5 33.5t21.5 37t35.5 30t51.5 12.5q34 0 59 -16t47 -35t43.5 -35t50.5 -16q24 0 41 8.5t29 20t19 23.5t10 20q5 10 11 6.5t4 -13.5q-13 -53 -38.5 -78.5t-78.5 -25.5q-28 0 -51.5 15.5t-47 33.5t-47 33.5t-51.5 15.5q-16 0 -28 -3t-23.5 -10.5t-23 -21.5 t-26.5 -36q-4 -9 -11.5 -9.5t-5.5 10.5z" />
<glyph unicode="&#x2000;" horiz-adv-x="910" />
<glyph unicode="&#x2001;" horiz-adv-x="1821" />
<glyph unicode="&#x2002;" horiz-adv-x="910" />
<glyph unicode="&#x2003;" horiz-adv-x="1821" />
<glyph unicode="&#x2004;" horiz-adv-x="607" />
<glyph unicode="&#x2005;" horiz-adv-x="455" />
<glyph unicode="&#x2006;" horiz-adv-x="303" />
<glyph unicode="&#x2007;" horiz-adv-x="303" />
<glyph unicode="&#x2008;" horiz-adv-x="227" />
<glyph unicode="&#x2009;" horiz-adv-x="364" />
<glyph unicode="&#x200a;" horiz-adv-x="101" />
<glyph unicode="&#x2010;" horiz-adv-x="635" d="M84 593q0 9 3 12.5t13 3.5h435q16 0 16 -14q-1 -9 -3.5 -11.5t-10.5 -3.5h-437q-10 0 -13 3t-3 12v-2z" />
<glyph unicode="&#x2011;" horiz-adv-x="635" d="M84 593q0 9 3 12.5t13 3.5h435q16 0 16 -14q-1 -9 -3.5 -11.5t-10.5 -3.5h-437q-10 0 -13 3t-3 12v-2z" />
<glyph unicode="&#x2012;" horiz-adv-x="635" d="M84 593q0 9 3 12.5t13 3.5h435q16 0 16 -14q-1 -9 -3.5 -11.5t-10.5 -3.5h-437q-10 0 -13 3t-3 12v-2z" />
<glyph unicode="&#x2013;" horiz-adv-x="900" d="M84 556v19q0 11 10 11h712q10 0 10 -12v-18q0 -11 -11 -11h-711q-10 0 -10 11z" />
<glyph unicode="&#x2014;" horiz-adv-x="1251" d="M84 556v19q0 11 10 11h1063q10 0 10 -12v-18q0 -11 -11 -11h-1062q-10 0 -10 11z" />
<glyph unicode="&#x2018;" horiz-adv-x="255" d="M100 1282q1 38 5 63.5t11.5 43t17.5 29.5t23 23q5 5 7.5 -0.5t-4.5 -13.5q-17 -20 -24.5 -49.5t-1.5 -60.5q3 -10 7.5 -14.5t4.5 -13.5l-2 -111q0 -14 -10 -14h-21q-10 0 -10 14z" />
<glyph unicode="&#x2019;" horiz-adv-x="285" d="M90.5 1155.5q-2.5 5.5 4.5 13.5q17 20 24.5 49.5t1.5 60.5q-3 10 -7.5 14.5t-4.5 13.5l2 111q0 14 10 14h21q10 0 10 -14l3 -104q-1 -38 -5 -63.5t-11.5 -43t-17.5 -29.5t-23 -23q-5 -5 -7.5 0.5z" />
<glyph unicode="&#x201c;" horiz-adv-x="475" d="M130 1282q1 38 5 63.5t11.5 43t17.5 29.5t23 23q5 5 7.5 -0.5t-4.5 -13.5q-17 -20 -24.5 -49.5t-1.5 -60.5q3 -10 7.5 -14.5t4.5 -13.5l-2 -111q0 -14 -10 -14h-21q-10 0 -10 14zM320 1282q1 38 5 63.5t11.5 43t17.5 29.5t23 23q5 5 7.5 -0.5t-4.5 -13.5 q-17 -20 -24.5 -49.5t-1.5 -60.5q3 -10 7.5 -14.5t4.5 -13.5l-2 -111q0 -14 -10 -14h-21q-10 0 -10 14z" />
<glyph unicode="&#x201d;" horiz-adv-x="475" d="M90.5 1170.5q-2.5 5.5 4.5 13.5q17 20 24.5 49.5t1.5 60.5q-3 10 -7.5 14.5t-4.5 13.5l2 111q0 14 10 14h21q10 0 10 -14l3 -104q-1 -38 -5 -63.5t-11.5 -43t-17.5 -29.5t-23 -23q-5 -5 -7.5 0.5zM280.5 1170.5q-2.5 5.5 4.5 13.5q17 20 24.5 49.5t1.5 60.5 q-3 10 -7.5 14.5t-4.5 13.5l2 111q0 14 10 14h21q10 0 10 -14l3 -104q-1 -38 -5 -63.5t-11.5 -43t-17.5 -29.5t-23 -23q-5 -5 -7.5 0.5z" />
<glyph unicode="&#x2022;" horiz-adv-x="761" d="M90 760q0 60 22.5 112.5t61 91t90.5 61t112 22.5q59 0 111 -22.5t90.5 -61t61 -91t22.5 -112.5q0 -59 -22.5 -110.5t-61 -90t-90.5 -61t-111 -22.5q-60 0 -112 22.5t-90.5 61t-61 90t-22.5 110.5z" />
<glyph unicode="&#x2026;" horiz-adv-x="1241" d="M100 21l2 111q0 14 10 14h21q10 0 10 -14l3 -111q0 -12 -2 -16.5t-11 -4.5h-21q-8 0 -10 4.5t-2 16.5zM593 21l2 111q0 14 10 14h21q10 0 10 -14l3 -111q0 -12 -2 -16.5t-11 -4.5h-21q-8 0 -10 4.5t-2 16.5zM1085 21l2 111q0 14 10 14h21q10 0 10 -14l3 -111 q0 -12 -2 -16.5t-11 -4.5h-21q-8 0 -10 4.5t-2 16.5z" />
<glyph unicode="&#x202f;" horiz-adv-x="364" />
<glyph unicode="&#x205f;" horiz-adv-x="455" />
<glyph unicode="&#x20ac;" horiz-adv-x="1118" d="M68 606v11q0 14 13 14h118q8 0 11.5 4t3.5 16q-2 13 -3 33.5t-1 41.5t1 41t3 34q0 11 -1.5 14.5t-12.5 5.5h-119q-13 0 -13 12v13q0 13 13 13h128q8 0 9.5 4.5t2.5 12.5q17 101 55 189t93.5 158.5t127.5 121t157 75.5t181 23t201 -37q11 -4 11 -7.5t-2 -8.5l-4 -8 q-5 -9 -20 -4q-100 32 -191 33t-170 -24.5t-145.5 -74t-118 -115t-87 -147.5t-53.5 -171q0 -11 0.5 -15.5t11.5 -4.5h318q10 0 13 -2t3 -12v-8q0 -10 -3 -13t-15 -3h-321q-7 -1 -9 -5.5t-4 -12.5q-3 -45 -3.5 -73t0.5 -44.5t2.5 -25t2.5 -13.5q2 -8 5.5 -12t12.5 -4h318 q14 0 14 -12v-12q0 -9 -3 -12t-10 -3h-317q-13 0 -13 -13q14 -92 52 -177.5t94 -156.5t128 -123.5t154 -77.5t171 -18.5t180 52.5q5 3 9 4.5t7 -6.5l2 -7q3 -8 0.5 -10.5t-10.5 -8.5q-24 -17 -53 -28.5t-60 -18.5t-63.5 -10t-63.5 -3q-95 0 -188 39t-171.5 114t-138 184 t-86.5 249q-2 8 -5.5 12t-12.5 4h-124q-12 0 -12 14z" />
<glyph unicode="&#x2122;" horiz-adv-x="687" d="M91 1430q-1 0 0 1h1q1 0 1.5 0.5t1.5 0.5h193q2 0 2 -0.5t1 -0.5q0 -1 1 -1v-13v-2.5t-4 -0.5h-84q-2 0 -2 -3l1 -275v-2q0 -2 -4 -2h-15q-4 0 -4 2v2v275q0 3 -2 3h-84q-3 0 -2.5 0.5t0.5 2.5zM315 1134q-1 1 0 2l2 294q0 2 2 2h33q3 0 3 -2t1 -4l93 -265q1 -5 4 0 l89 266q2 5 5 5h36q1 0 3 -2q1 -1 1 -2l-1 -292v-2q0 -2 -4 -2h-14q-5 0 -5 4l-2 273q0 5 -2 0l-89 -272q-3 -5 -7 -5h-23q-7 0 -7 5l-92 272q-1 3 -1.5 2t-0.5 -2l2 -271q0 -2 -1.5 -4t-3.5 -2h-17q-4 0 -4 2z" />
<glyph unicode="&#x25fc;" horiz-adv-x="1030" d="M0 0v1030h1030v-1030h-1030z" />
</font>
</defs>
</svg>
